<svg xmlns="http://www.w3.org/2000/svg" xmlns:xlink="http://www.w3.org/1999/xlink" width="1920" zoomAndPan="magnify" viewBox="0 0 1440 809.999993" height="1080" preserveAspectRatio="xMidYMid meet" version="1.0"><defs><clipPath id="id1"><path d="M 507.296875 334 L 552 334 L 552 466 L 507.296875 466 Z M 507.296875 334 " clip-rule="nonzero"/></clipPath><clipPath id="id2"><path d="M 901 334 L 945.296875 334 L 945.296875 466 L 901 466 Z M 901 334 " clip-rule="nonzero"/></clipPath><clipPath id="id3"><path d="M 565 290 L 639 290 L 639 495.6875 L 565 495.6875 Z M 565 290 " clip-rule="nonzero"/></clipPath><clipPath id="id4"><path d="M 813 290 L 887 290 L 887 495.6875 L 813 495.6875 Z M 813 290 " clip-rule="nonzero"/></clipPath></defs><path fill="rgb(87.449646%, 4.309082%, 1.959229%)" d="M 720.144531 95.769531 C 558.808594 95.769531 428.019531 226.558594 428.019531 387.894531 C 428.019531 549.230469 558.808594 680.019531 720.144531 680.019531 C 881.480469 680.019531 1012.269531 549.230469 1012.269531 387.894531 C 1012.269531 226.558594 881.480469 95.769531 720.144531 95.769531 " fill-opacity="1" fill-rule="nonzero"/><g clip-path="url(#id1)"><path fill="rgb(100%, 100%, 100%)" d="M 551.09375 334.601562 L 521.894531 334.601562 C 507.296875 334.601562 507.296875 344.144531 507.296875 349.195312 L 507.296875 451.359375 C 507.296875 456.40625 507.296875 465.953125 521.894531 465.953125 L 551.09375 465.953125 Z M 551.09375 334.601562 " fill-opacity="1" fill-rule="nonzero"/></g><path fill="rgb(100%, 100%, 100%)" d="M 653.296875 363.789062 L 799.296875 363.789062 L 799.296875 422.167969 L 653.296875 422.167969 Z M 653.296875 363.789062 " fill-opacity="1" fill-rule="nonzero"/><g clip-path="url(#id2)"><path fill="rgb(100%, 100%, 100%)" d="M 930.695312 334.601562 L 901.496094 334.601562 L 901.496094 465.953125 L 930.695312 465.953125 C 945.296875 465.953125 945.296875 456.40625 945.296875 451.359375 L 945.296875 349.195312 C 945.296875 344.144531 945.296875 334.601562 930.695312 334.601562 Z M 930.695312 334.601562 " fill-opacity="1" fill-rule="nonzero"/></g><g clip-path="url(#id3)"><path fill="rgb(100%, 100%, 100%)" d="M 638.695312 367.4375 L 638.695312 305.414062 C 638.695312 300.363281 638.695312 290.816406 624.09375 290.816406 L 580.296875 290.816406 C 565.695312 290.816406 565.695312 300.363281 565.695312 305.414062 L 565.695312 480.546875 C 565.695312 485.597656 565.695312 495.140625 580.296875 495.140625 L 624.09375 495.140625 C 638.695312 495.140625 638.695312 485.597656 638.695312 480.546875 Z M 638.695312 367.4375 " fill-opacity="1" fill-rule="nonzero"/></g><g clip-path="url(#id4)"><path fill="rgb(100%, 100%, 100%)" d="M 886.894531 458.65625 L 886.894531 305.414062 C 886.894531 300.363281 886.894531 290.816406 872.296875 290.816406 L 827.328125 290.816406 C 813.894531 290.816406 813.894531 300.363281 813.894531 305.414062 L 813.894531 480.546875 C 813.894531 485.597656 813.894531 495.140625 827.328125 495.140625 L 872.296875 495.140625 C 886.894531 495.140625 886.894531 485.597656 886.894531 480.546875 Z M 886.894531 458.65625 " fill-opacity="1" fill-rule="nonzero"/></g></svg>