<svg xmlns="http://www.w3.org/2000/svg" xmlns:xlink="http://www.w3.org/1999/xlink" width="1920" zoomAndPan="magnify" viewBox="0 0 1440 809.999993" height="1080" preserveAspectRatio="xMidYMid meet" version="1.0"><defs><clipPath id="id1"><path d="M 622.582031 241 L 811 241 L 811 647.988281 L 622.582031 647.988281 Z M 622.582031 241 " clip-rule="nonzero"/></clipPath></defs><path fill="rgb(87.449646%, 4.309082%, 1.959229%)" d="M 719.941406 112.441406 C 558.398438 112.441406 427.441406 243.398438 427.441406 404.941406 C 427.441406 566.484375 558.398438 697.441406 719.941406 697.441406 C 881.484375 697.441406 1012.441406 566.484375 1012.441406 404.941406 C 1012.441406 243.398438 881.484375 112.441406 719.941406 112.441406 " fill-opacity="1" fill-rule="nonzero"/><g clip-path="url(#id1)"><path fill="rgb(100%, 100%, 100%)" d="M 633.996094 644.777344 C 641.890625 621.183594 648.347656 596.863281 649.828125 571.902344 C 653.265625 530.402344 658.480469 489.097656 661.789062 447.585938 C 652.097656 436 647.867188 421.234375 642.886719 407.289062 C 637.507812 389.394531 641.300781 369.964844 636.28125 352.21875 C 636.761719 338.71875 627.152344 328.871094 622.554688 317.964844 C 629.703125 298.402344 650.835938 318.832031 656.066406 329.917969 C 661.769531 337.664062 666.335938 358.199219 667.917969 361.546875 C 674.984375 346.996094 676.535156 330.625 678.261719 314.851562 C 678.515625 295.5 686.308594 277.332031 688.679688 258.277344 C 689.585938 241.929688 719.015625 235.140625 712.683594 256.679688 C 708.960938 280.378906 707.148438 304.582031 710.03125 328.46875 C 715.644531 322.304688 716.433594 300.296875 719.867188 288.183594 C 723.183594 274.101562 723.035156 257.789062 732.539062 246.183594 C 748.285156 231.199219 755.863281 259.09375 749.675781 270.875 C 748.199219 290.960938 745.03125 311.023438 744.921875 331.144531 C 753.394531 325.027344 754.148438 306.390625 758.351562 295.109375 C 763.542969 282.675781 762.175781 258.179688 780.117188 257.621094 C 795.644531 264.871094 782.828125 284.882812 781.972656 297.429688 C 778.34375 314.542969 773.535156 331.527344 770.726562 348.734375 C 779.472656 341.761719 782.339844 321.890625 787.070312 309.636719 C 788.3125 293.011719 817.527344 287.578125 809.25 309.613281 C 806.554688 328.351562 799.210938 346.113281 793.4375 364.0625 C 786.3125 386.765625 778.914062 409.511719 769.441406 431.410156 C 763.308594 446.5 750.523438 458.546875 747.277344 475.074219 C 742.679688 498.214844 745.136719 522.195312 744.503906 545.6875 C 744.714844 579.730469 745.238281 613.773438 745.640625 647.8125 L 633.347656 647.8125 L 633.996094 644.785156 Z M 633.996094 644.777344 " fill-opacity="1" fill-rule="nonzero"/></g></svg>