<svg xmlns="http://www.w3.org/2000/svg" xmlns:xlink="http://www.w3.org/1999/xlink" width="500" zoomAndPan="magnify" viewBox="0 0 375 374.999991" height="500" preserveAspectRatio="xMidYMid meet" version="1.0"><defs><g><g id="id1"/></g></defs><rect x="-37.5" width="450" fill="rgb(100%, 100%, 100%)" y="-37.499999" height="449.999989" fill-opacity="1"/><rect x="-37.5" width="450" fill="rgb(100%, 100%, 100%)" y="-37.499999" height="449.999989" fill-opacity="1"/><rect x="-37.5" width="450" fill="rgb(100%, 100%, 100%)" y="-37.499999" height="449.999989" fill-opacity="1"/><path fill="rgb(0%, 0%, 0%)" d="M 294.628906 98 C 298.734375 98 302.109375 101.371094 302.109375 105.476562 L 302.109375 243.242188 C 302.109375 247.347656 298.734375 250.71875 294.628906 250.71875 L 51.871094 250.71875 C 47.765625 250.71875 44.390625 247.347656 44.390625 243.242188 L 44.390625 105.476562 C 44.390625 101.371094 47.765625 98 51.871094 98 L 294.628906 98 M 294.628906 91.109375 L 51.871094 91.109375 C 43.953125 91.109375 37.5 97.558594 37.5 105.476562 L 37.5 243.242188 C 37.5 251.160156 43.953125 257.609375 51.871094 257.609375 L 294.628906 257.609375 C 302.546875 257.609375 309 251.160156 309 243.242188 L 309 105.476562 C 309 97.558594 302.546875 91.109375 294.628906 91.109375 " fill-opacity="1" fill-rule="nonzero"/><g fill="rgb(0%, 0%, 0%)" fill-opacity="1"><g transform="translate(51.286765, 160.174451)"><g><path d="M 35 -44.375 L 35 -50.1875 L 7.878906 -50.1875 L 7.878906 0 L 14.398438 0 L 14.398438 -22.207031 L 32.363281 -22.207031 L 32.363281 -27.980469 L 14.398438 -27.980469 L 14.398438 -44.375 Z M 35 -44.375 "/></g></g></g><g fill="rgb(0%, 0%, 0%)" fill-opacity="1"><g transform="translate(92.970834, 160.174451)"><g><path d="M 21.03125 0.710938 C 31.117188 0.710938 38.671875 -6.308594 38.671875 -17.535156 C 38.671875 -28.691406 31.152344 -35.75 21.03125 -35.75 C 10.941406 -35.75 3.386719 -28.691406 3.386719 -17.535156 C 3.386719 -6.308594 11.050781 0.710938 21.03125 0.710938 Z M 20.992188 -4.457031 C 14.507812 -4.457031 9.515625 -9.589844 9.515625 -17.535156 C 9.515625 -25.449219 14.507812 -30.582031 20.992188 -30.582031 C 27.550781 -30.582031 32.578125 -25.449219 32.578125 -17.535156 C 32.578125 -9.589844 27.550781 -4.457031 20.992188 -4.457031 Z M 20.992188 -4.457031 "/></g></g></g><g fill="rgb(0%, 0%, 0%)" fill-opacity="1"><g transform="translate(138.825084, 160.174451)"><g><path d="M 12.367188 -29.050781 L 12.226562 -35.039062 L 6.273438 -35.039062 L 6.273438 0 L 12.441406 0 L 12.441406 -18.710938 C 12.441406 -26.589844 16.539062 -29.621094 23.382812 -29.621094 L 23.382812 -35.429688 C 18.464844 -35.359375 14.1875 -32.792969 12.367188 -29.050781 Z M 12.367188 -29.050781 "/></g></g></g><g fill="rgb(0%, 0%, 0%)" fill-opacity="1"><g transform="translate(166.929306, 160.174451)"><g><path d="M 42.09375 -35.714844 C 37.640625 -35.714844 34.003906 -33.71875 31.902344 -29.976562 C 30.152344 -33.753906 26.484375 -35.714844 22.027344 -35.714844 C 17.855469 -35.714844 14.472656 -33.824219 12.441406 -30.511719 L 12.441406 -35.039062 L 6.273438 -35.039062 L 6.273438 0 L 12.441406 0 L 12.441406 -21.457031 C 12.441406 -27.800781 15.71875 -30.511719 19.816406 -30.511719 C 23.632812 -30.511719 26.734375 -28.050781 26.734375 -22.527344 L 26.734375 0 L 33.003906 0 L 33.003906 -21.671875 C 33.003906 -27.800781 36.179688 -30.511719 40.382812 -30.511719 C 44.054688 -30.511719 47.191406 -28.160156 47.191406 -22.777344 L 47.191406 0 L 53.359375 0 L 53.359375 -24.378906 C 53.359375 -31.757812 48.652344 -35.714844 42.09375 -35.714844 Z M 42.09375 -35.714844 "/></g></g></g><g fill="rgb(0%, 0%, 0%)" fill-opacity="1"><g transform="translate(51.286765, 224.674447)"><g><path d="M 36 -47.191406 C 33.078125 -49.222656 28.941406 -50.1875 23.3125 -50.1875 L 7.878906 -50.1875 L 7.878906 0 L 14.257812 0 L 14.257812 -19.496094 L 23.3125 -19.496094 C 29.121094 -19.496094 33.363281 -20.707031 36.285156 -23.238281 C 39.707031 -25.878906 41.382812 -30.191406 41.382812 -35.609375 C 41.382812 -41.027344 39.601562 -44.875 36 -47.191406 Z M 32.292969 -27.800781 C 30.261719 -25.734375 26.980469 -25.058594 22.492188 -25.058594 L 14.257812 -25.058594 L 14.257812 -44.660156 L 22.492188 -44.660156 C 26.875 -44.660156 30.046875 -44.199219 32.1875 -42.453125 C 33.859375 -41.0625 34.859375 -38.78125 34.859375 -35.359375 C 34.859375 -31.792969 33.933594 -29.40625 32.292969 -27.800781 Z M 32.292969 -27.800781 "/></g></g></g><g fill="rgb(0%, 0%, 0%)" fill-opacity="1"><g transform="translate(99.8855, 224.674447)"><g><path d="M 23.027344 -35.714844 C 18.355469 -35.714844 14.648438 -33.753906 12.441406 -30.402344 L 12.441406 -54.75 L 6.273438 -54.75 L 6.273438 0 L 12.441406 0 L 12.441406 -20.957031 C 12.476562 -27.660156 16.46875 -30.511719 21.101562 -30.511719 C 25.234375 -30.511719 28.765625 -28.195312 28.765625 -21.992188 L 28.765625 0 L 34.929688 0 L 34.929688 -23.167969 C 34.929688 -31.472656 30.011719 -35.714844 23.027344 -35.714844 Z M 23.027344 -35.714844 "/></g></g></g><g fill="rgb(0%, 0%, 0%)" fill-opacity="1"><g transform="translate(144.20712, 224.674447)"><g><path d="M 27.875 -35.039062 L 17.855469 -7.769531 L 7.984375 -35.039062 L 1.140625 -35.039062 L 14.757812 -0.855469 L 7.164062 17.964844 L 13.582031 17.964844 L 34.394531 -35.039062 Z M 27.875 -35.039062 "/></g></g></g><g fill="rgb(0%, 0%, 0%)" fill-opacity="1"><g transform="translate(183.538778, 224.674447)"><g><path d="M 17.359375 0.675781 C 24.167969 0.675781 30.261719 -2.210938 30.261719 -9.625 C 30.261719 -16.964844 24.238281 -18.820312 18.710938 -20.246094 C 14.222656 -21.386719 10.050781 -22.277344 10.050781 -26.164062 C 10.050781 -29.796875 13.507812 -31.152344 16.714844 -31.152344 C 20.351562 -31.152344 23.632812 -29.40625 24.414062 -25.234375 L 29.796875 -26.519531 C 28.691406 -32.863281 23.0625 -35.644531 16.679688 -35.644531 C 9.945312 -35.644531 4.3125 -32.613281 4.3125 -25.734375 C 4.3125 -19.425781 9.089844 -17.535156 13.972656 -16.074219 C 19.605469 -14.363281 24.203125 -13.652344 24.308594 -9.375 C 24.414062 -5.3125 20.746094 -3.992188 17.324219 -3.992188 C 12.761719 -3.992188 9.480469 -6.34375 8.695312 -10.585938 L 3.316406 -9.054688 C 4.417969 -2.707031 9.945312 0.675781 17.359375 0.675781 Z M 17.359375 0.675781 "/></g></g></g><g fill="rgb(0%, 0%, 0%)" fill-opacity="1"><g transform="translate(221.230876, 224.674447)"><g><path d="M 9.410156 -43.269531 C 11.65625 -43.269531 13.542969 -45.160156 13.542969 -47.441406 C 13.542969 -49.722656 11.65625 -51.574219 9.410156 -51.574219 C 7.128906 -51.574219 5.238281 -49.722656 5.238281 -47.441406 C 5.238281 -45.160156 7.128906 -43.269531 9.410156 -43.269531 Z M 6.273438 0 L 12.476562 0 L 12.476562 -35.039062 L 6.273438 -35.039062 Z M 6.273438 0 "/></g></g></g><g fill="rgb(0%, 0%, 0%)" fill-opacity="1"><g transform="translate(243.774843, 224.674447)"><g><path d="M 21.03125 0.710938 C 31.117188 0.710938 38.671875 -6.308594 38.671875 -17.535156 C 38.671875 -28.691406 31.152344 -35.75 21.03125 -35.75 C 10.941406 -35.75 3.386719 -28.691406 3.386719 -17.535156 C 3.386719 -6.308594 11.050781 0.710938 21.03125 0.710938 Z M 20.992188 -4.457031 C 14.507812 -4.457031 9.515625 -9.589844 9.515625 -17.535156 C 9.515625 -25.449219 14.507812 -30.582031 20.992188 -30.582031 C 27.550781 -30.582031 32.578125 -25.449219 32.578125 -17.535156 C 32.578125 -9.589844 27.550781 -4.457031 20.992188 -4.457031 Z M 20.992188 -4.457031 "/></g></g></g><g fill="rgb(0%, 0%, 0%)" fill-opacity="1"><g transform="translate(33.53315, 271.677198)"><g><path d="M 12.96875 -9.96875 L 10.3125 -9.96875 L 6.71875 -1.84375 L 2.875 -9.96875 L 0.5 -9.96875 L 0.5 -9.53125 L 1.828125 -9.53125 L 1.828125 -0.4375 L 0.5 -0.4375 L 0.5 0 L 3.8125 0 C 3.8125 -0.238281 3.722656 -0.378906 3.546875 -0.421875 C 3.492188 -0.429688 3.441406 -0.4375 3.390625 -0.4375 L 2.484375 -0.4375 L 2.484375 -7.578125 L 6.125 0.078125 L 6.46875 0.078125 L 10.3125 -8.46875 L 10.3125 -0.4375 L 8.984375 -0.4375 L 8.984375 0 L 12.96875 0 C 12.96875 -0.238281 12.878906 -0.378906 12.703125 -0.421875 C 12.648438 -0.429688 12.59375 -0.4375 12.53125 -0.4375 L 11.640625 -0.4375 L 11.640625 -9.53125 L 12.96875 -9.53125 Z M 12.96875 -9.96875 "/></g></g></g><g fill="rgb(0%, 0%, 0%)" fill-opacity="1"><g transform="translate(48.588839, 271.677198)"><g><path d="M 6.484375 0.171875 C 7.335938 0.171875 7.8125 -0.34375 7.90625 -1.375 C 7.914062 -1.445312 7.921875 -1.507812 7.921875 -1.5625 L 7.484375 -1.578125 C 7.410156 -0.765625 7.195312 -0.351562 6.84375 -0.34375 C 6.550781 -0.363281 6.398438 -0.65625 6.390625 -1.21875 L 6.390625 -4.71875 C 6.390625 -6.300781 5.597656 -7.132812 4.015625 -7.21875 C 3.921875 -7.21875 3.820312 -7.21875 3.71875 -7.21875 C 2.476562 -7.21875 1.648438 -6.929688 1.234375 -6.359375 C 1.097656 -6.171875 1.03125 -5.984375 1.03125 -5.796875 C 1.03125 -5.453125 1.191406 -5.253906 1.515625 -5.203125 C 1.566406 -5.191406 1.617188 -5.1875 1.671875 -5.1875 C 1.929688 -5.1875 2.117188 -5.34375 2.234375 -5.65625 C 2.390625 -6.070312 2.5 -6.316406 2.5625 -6.390625 C 2.769531 -6.671875 3.09375 -6.8125 3.53125 -6.8125 C 4.570312 -6.738281 5.109375 -6.164062 5.140625 -5.09375 L 5.140625 -4.046875 C 2.546875 -4.046875 1.0625 -3.503906 0.6875 -2.421875 C 0.613281 -2.210938 0.578125 -1.988281 0.578125 -1.75 C 0.578125 -0.90625 0.945312 -0.328125 1.6875 -0.015625 C 1.988281 0.109375 2.304688 0.171875 2.640625 0.171875 C 3.453125 0.171875 4.132812 -0.109375 4.6875 -0.671875 C 4.882812 -0.878906 5.03125 -1.097656 5.125 -1.328125 C 5.257812 -0.335938 5.710938 0.160156 6.484375 0.171875 Z M 3.1875 -0.5 C 2.507812 -0.5 2.09375 -0.835938 1.9375 -1.515625 C 1.90625 -1.671875 1.890625 -1.84375 1.890625 -2.03125 C 1.890625 -2.769531 2.316406 -3.238281 3.171875 -3.4375 C 3.628906 -3.539062 4.285156 -3.597656 5.140625 -3.609375 L 5.140625 -2.28125 C 4.972656 -1.507812 4.570312 -0.972656 3.9375 -0.671875 C 3.675781 -0.554688 3.425781 -0.5 3.1875 -0.5 Z M 3.1875 -0.5 "/></g></g></g><g fill="rgb(0%, 0%, 0%)" fill-opacity="1"><g transform="translate(58.185124, 271.677198)"><g><path d="M 3.75 -0.421875 L 3 -0.421875 L 3 -2.875 L 3.921875 -3.71875 L 6.265625 0 L 8.46875 0 C 8.46875 -0.238281 8.382812 -0.375 8.21875 -0.40625 C 8.175781 -0.414062 8.117188 -0.421875 8.046875 -0.421875 L 7.453125 -0.421875 L 4.78125 -4.53125 L 6.34375 -6 C 6.726562 -6.363281 7.019531 -6.566406 7.21875 -6.609375 C 7.3125 -6.628906 7.410156 -6.640625 7.515625 -6.640625 C 7.765625 -6.640625 7.898438 -6.722656 7.921875 -6.890625 C 7.929688 -6.941406 7.9375 -7 7.9375 -7.0625 L 5.109375 -7.0625 L 5.109375 -6.640625 L 6.359375 -6.640625 L 3 -3.53125 L 3 -10.796875 L 0.515625 -10.796875 L 0.515625 -10.375 L 1.765625 -10.375 L 1.765625 -1.40625 C 1.765625 -0.894531 1.617188 -0.59375 1.328125 -0.5 C 1.160156 -0.445312 0.890625 -0.421875 0.515625 -0.421875 L 0.515625 0 L 4.171875 0 C 4.171875 -0.238281 4.085938 -0.375 3.921875 -0.40625 C 3.878906 -0.414062 3.820312 -0.421875 3.75 -0.421875 Z M 3.75 -0.421875 "/></g></g></g><g fill="rgb(0%, 0%, 0%)" fill-opacity="1"><g transform="translate(68.0801, 271.677198)"><g><path d="M 3.90625 -0.421875 L 3.078125 -0.421875 L 3.078125 -7.0625 L 0.5 -7.0625 L 0.5 -6.640625 L 1.828125 -6.640625 L 1.828125 -1.40625 C 1.828125 -0.894531 1.65625 -0.585938 1.3125 -0.484375 C 1.144531 -0.441406 0.875 -0.421875 0.5 -0.421875 L 0.5 0 L 4.3125 0 C 4.3125 -0.238281 4.226562 -0.375 4.0625 -0.40625 C 4.007812 -0.414062 3.957031 -0.421875 3.90625 -0.421875 Z M 3.265625 -9.484375 C 3.265625 -9.867188 3.09375 -10.144531 2.75 -10.3125 C 2.625 -10.363281 2.5 -10.390625 2.375 -10.390625 C 1.988281 -10.390625 1.710938 -10.210938 1.546875 -9.859375 C 1.492188 -9.734375 1.46875 -9.609375 1.46875 -9.484375 C 1.46875 -9.066406 1.648438 -8.785156 2.015625 -8.640625 C 2.128906 -8.585938 2.25 -8.5625 2.375 -8.5625 C 2.757812 -8.5625 3.03125 -8.738281 3.1875 -9.09375 C 3.238281 -9.21875 3.265625 -9.347656 3.265625 -9.484375 Z M 3.265625 -9.484375 "/></g></g></g><g fill="rgb(0%, 0%, 0%)" fill-opacity="1"><g transform="translate(74.490351, 271.677198)"><g><path d="M 3.734375 -0.421875 L 2.984375 -0.421875 L 2.984375 -4 C 3.015625 -5.03125 3.378906 -5.769531 4.078125 -6.21875 C 4.378906 -6.414062 4.6875 -6.515625 5 -6.515625 C 5.675781 -6.515625 6.132812 -6.195312 6.375 -5.5625 C 6.476562 -5.3125 6.53125 -5.023438 6.53125 -4.703125 L 6.53125 -1.40625 C 6.53125 -0.894531 6.382812 -0.59375 6.09375 -0.5 C 5.925781 -0.445312 5.65625 -0.421875 5.28125 -0.421875 L 5.28125 0 L 9.015625 0 C 9.015625 -0.238281 8.929688 -0.375 8.765625 -0.40625 C 8.722656 -0.414062 8.664062 -0.421875 8.59375 -0.421875 L 7.765625 -0.421875 L 7.765625 -4.53125 C 7.765625 -5.632812 7.382812 -6.425781 6.625 -6.90625 C 6.269531 -7.113281 5.890625 -7.21875 5.484375 -7.21875 C 4.660156 -7.21875 3.984375 -6.894531 3.453125 -6.25 C 3.253906 -5.988281 3.09375 -5.703125 2.96875 -5.390625 L 2.90625 -7.0625 L 0.5 -7.0625 L 0.5 -6.640625 L 1.75 -6.640625 L 1.75 -1.40625 C 1.75 -0.894531 1.601562 -0.59375 1.3125 -0.5 C 1.144531 -0.445312 0.875 -0.421875 0.5 -0.421875 L 0.5 0 L 4.15625 0 C 4.15625 -0.238281 4.070312 -0.375 3.90625 -0.40625 C 3.851562 -0.414062 3.796875 -0.421875 3.734375 -0.421875 Z M 3.734375 -0.421875 "/></g></g></g><g fill="rgb(0%, 0%, 0%)" fill-opacity="1"><g transform="translate(85.513711, 271.677198)"><g><path d="M 2.15625 -4.59375 C 2.175781 -6.0625 2.726562 -6.800781 3.8125 -6.8125 C 4.90625 -6.789062 5.457031 -6.050781 5.46875 -4.59375 C 5.4375 -3.09375 4.882812 -2.335938 3.8125 -2.328125 C 2.71875 -2.347656 2.164062 -3.101562 2.15625 -4.59375 Z M 3.828125 -7.21875 C 2.835938 -7.21875 2.050781 -6.898438 1.46875 -6.265625 C 1.039062 -5.785156 0.828125 -5.222656 0.828125 -4.578125 C 0.828125 -3.742188 1.238281 -3.046875 2.0625 -2.484375 C 2.132812 -2.429688 2.210938 -2.382812 2.296875 -2.34375 C 1.585938 -2.34375 1.144531 -2.035156 0.96875 -1.421875 C 0.925781 -1.285156 0.90625 -1.144531 0.90625 -1 C 0.925781 -0.40625 1.164062 0.03125 1.625 0.3125 C 1.257812 0.695312 1.078125 1.09375 1.078125 1.5 C 1.078125 2.101562 1.4375 2.554688 2.15625 2.859375 C 2.613281 3.054688 3.171875 3.15625 3.828125 3.15625 C 5.515625 3.15625 6.628906 2.742188 7.171875 1.921875 C 7.347656 1.648438 7.4375 1.359375 7.4375 1.046875 C 7.4375 0.0976562 6.890625 -0.445312 5.796875 -0.59375 C 5.648438 -0.613281 5.5 -0.625 5.34375 -0.625 L 2.328125 -0.703125 C 1.816406 -0.734375 1.554688 -0.953125 1.546875 -1.359375 C 1.546875 -1.648438 1.726562 -1.832031 2.09375 -1.90625 C 2.164062 -1.914062 2.25 -1.921875 2.34375 -1.921875 L 3.796875 -1.90625 C 4.785156 -1.90625 5.570312 -2.238281 6.15625 -2.90625 C 6.582031 -3.382812 6.796875 -3.945312 6.796875 -4.59375 C 6.785156 -5.425781 6.460938 -6.09375 5.828125 -6.59375 C 5.929688 -6.945312 6.117188 -7.15625 6.390625 -7.21875 C 6.429688 -7.226562 6.476562 -7.234375 6.53125 -7.234375 C 6.675781 -7.234375 6.835938 -7.148438 7.015625 -6.984375 C 7.140625 -6.878906 7.253906 -6.828125 7.359375 -6.828125 C 7.628906 -6.890625 7.789062 -7.066406 7.84375 -7.359375 C 7.84375 -7.703125 7.679688 -7.929688 7.359375 -8.046875 C 7.234375 -8.097656 7.109375 -8.125 6.984375 -8.125 C 6.460938 -8.125 6.046875 -7.890625 5.734375 -7.421875 C 5.609375 -7.242188 5.515625 -7.050781 5.453125 -6.84375 C 4.953125 -7.09375 4.410156 -7.21875 3.828125 -7.21875 Z M 3.828125 2.71875 C 2.734375 2.71875 2.046875 2.429688 1.765625 1.859375 C 1.679688 1.703125 1.640625 1.546875 1.640625 1.390625 C 1.648438 1.097656 1.785156 0.800781 2.046875 0.5 C 2.265625 0.539062 2.445312 0.5625 2.59375 0.5625 L 5.140625 0.59375 C 5.972656 0.601562 6.457031 0.789062 6.59375 1.15625 C 6.625 1.25 6.640625 1.363281 6.640625 1.5 C 6.640625 1.976562 6.1875 2.332031 5.28125 2.5625 C 4.832031 2.664062 4.347656 2.71875 3.828125 2.71875 Z M 3.828125 2.71875 "/></g></g></g><g fill="rgb(0%, 0%, 0%)" fill-opacity="1"><g transform="translate(95.0934, 271.677198)"><g/></g></g><g fill="rgb(0%, 0%, 0%)" fill-opacity="1"><g transform="translate(99.927223, 271.677198)"><g><path d="M 5.234375 -9.53125 C 6.210938 -9.53125 6.847656 -9.085938 7.140625 -8.203125 C 7.222656 -7.910156 7.265625 -7.597656 7.265625 -7.265625 C 7.265625 -5.828125 6.625 -5.035156 5.34375 -4.890625 C 5.207031 -4.878906 5.078125 -4.875 4.953125 -4.875 L 3.421875 -4.875 L 3.421875 -9.53125 Z M 5.078125 0 C 5.078125 -0.238281 4.988281 -0.378906 4.8125 -0.421875 C 4.757812 -0.429688 4.707031 -0.4375 4.65625 -0.4375 L 3.421875 -0.4375 L 3.421875 -4.40625 L 4.875 -4.40625 C 6.695312 -4.40625 7.898438 -4.914062 8.484375 -5.9375 C 8.710938 -6.332031 8.828125 -6.78125 8.828125 -7.28125 C 8.828125 -8.382812 8.351562 -9.15625 7.40625 -9.59375 C 6.894531 -9.84375 6.285156 -9.96875 5.578125 -9.96875 L 0.671875 -9.96875 L 0.671875 -9.53125 L 2 -9.53125 L 2 -0.4375 L 0.671875 -0.4375 L 0.671875 0 Z M 5.078125 0 "/></g></g></g><g fill="rgb(0%, 0%, 0%)" fill-opacity="1"><g transform="translate(110.85102, 271.677198)"><g><path d="M 3.859375 -0.421875 L 3.015625 -0.421875 L 3.015625 -4 C 3.015625 -5.007812 3.363281 -5.738281 4.0625 -6.1875 C 4.351562 -6.375 4.65625 -6.46875 4.96875 -6.46875 C 5.644531 -6.46875 6.113281 -6.15625 6.375 -5.53125 C 6.5 -5.226562 6.5625 -4.894531 6.5625 -4.53125 L 6.5625 -1.40625 C 6.5625 -0.894531 6.4375 -0.59375 6.1875 -0.5 C 6.03125 -0.445312 5.765625 -0.421875 5.390625 -0.421875 L 5.390625 0 L 9.046875 0 C 9.046875 -0.238281 8.960938 -0.375 8.796875 -0.40625 C 8.753906 -0.414062 8.703125 -0.421875 8.640625 -0.421875 L 7.796875 -0.421875 L 7.796875 -4.53125 C 7.796875 -5.738281 7.398438 -6.554688 6.609375 -6.984375 C 6.296875 -7.140625 5.960938 -7.21875 5.609375 -7.21875 C 4.796875 -7.21875 4.109375 -6.921875 3.546875 -6.328125 C 3.316406 -6.066406 3.140625 -5.78125 3.015625 -5.46875 L 3.015625 -10.796875 L 0.53125 -10.796875 L 0.53125 -10.375 L 1.78125 -10.375 L 1.78125 -1.40625 C 1.78125 -0.894531 1.632812 -0.59375 1.34375 -0.5 C 1.175781 -0.445312 0.90625 -0.421875 0.53125 -0.421875 L 0.53125 0 L 4.265625 0 C 4.265625 -0.238281 4.179688 -0.375 4.015625 -0.40625 C 3.972656 -0.414062 3.921875 -0.421875 3.859375 -0.421875 Z M 3.859375 -0.421875 "/></g></g></g><g fill="rgb(0%, 0%, 0%)" fill-opacity="1"><g transform="translate(121.924163, 271.677198)"><g><path d="M 1.703125 2.640625 C 1.523438 2.640625 1.394531 2.503906 1.3125 2.234375 C 1.1875 1.910156 1.070312 1.707031 0.96875 1.625 C 0.863281 1.5625 0.742188 1.53125 0.609375 1.53125 C 0.253906 1.53125 0.0507812 1.6875 0 2 C -0.0078125 2.039062 -0.015625 2.078125 -0.015625 2.109375 C -0.015625 2.523438 0.226562 2.828125 0.71875 3.015625 C 0.9375 3.109375 1.164062 3.15625 1.40625 3.15625 C 2.28125 3.15625 3.039062 2.617188 3.6875 1.546875 C 3.945312 1.109375 4.203125 0.59375 4.453125 0 L 6.90625 -6.0625 C 7.019531 -6.375 7.140625 -6.550781 7.265625 -6.59375 C 7.347656 -6.613281 7.4375 -6.625 7.53125 -6.625 C 7.757812 -6.625 7.890625 -6.6875 7.921875 -6.8125 C 7.941406 -6.875 7.953125 -6.957031 7.953125 -7.0625 L 5.421875 -7.0625 L 5.421875 -6.625 L 6.640625 -6.625 L 4.515625 -1.3125 L 2.234375 -6.625 L 3.359375 -6.625 L 3.359375 -7.0625 L 0.109375 -7.0625 L 0.109375 -6.625 L 0.9375 -6.625 L 3.921875 0 C 3.296875 1.457031 2.710938 2.304688 2.171875 2.546875 C 2.015625 2.609375 1.859375 2.640625 1.703125 2.640625 Z M 1.703125 2.640625 "/></g></g></g><g fill="rgb(0%, 0%, 0%)" fill-opacity="1"><g transform="translate(131.553633, 271.677198)"><g><path d="M 3.15625 -0.28125 C 3.914062 -0.28125 4.429688 -0.515625 4.703125 -0.984375 C 4.796875 -1.148438 4.84375 -1.332031 4.84375 -1.53125 C 4.84375 -1.988281 4.503906 -2.382812 3.828125 -2.71875 C 3.691406 -2.800781 3.457031 -2.914062 3.125 -3.0625 C 2.21875 -3.4375 1.613281 -3.789062 1.3125 -4.125 C 0.988281 -4.488281 0.828125 -4.910156 0.828125 -5.390625 C 0.828125 -6.160156 1.25 -6.695312 2.09375 -7 C 2.476562 -7.144531 2.898438 -7.21875 3.359375 -7.21875 C 4.085938 -7.21875 4.71875 -7.0625 5.25 -6.75 C 5.25 -7.070312 5.328125 -7.257812 5.484375 -7.3125 C 5.546875 -7.320312 5.613281 -7.328125 5.6875 -7.328125 L 5.6875 -5.25 L 5.265625 -5.25 C 5.242188 -6.269531 4.675781 -6.785156 3.5625 -6.796875 C 2.738281 -6.796875 2.226562 -6.550781 2.03125 -6.0625 C 1.96875 -5.925781 1.9375 -5.785156 1.9375 -5.640625 C 1.9375 -5.171875 2.28125 -4.769531 2.96875 -4.4375 C 3.125 -4.351562 3.367188 -4.25 3.703125 -4.125 C 4.597656 -3.75 5.195312 -3.398438 5.5 -3.078125 C 5.820312 -2.722656 5.984375 -2.300781 5.984375 -1.8125 C 5.984375 -0.914062 5.503906 -0.316406 4.546875 -0.015625 C 4.179688 0.109375 3.785156 0.171875 3.359375 0.171875 C 2.554688 0.160156 1.863281 -0.0390625 1.28125 -0.4375 C 1.28125 -0.144531 1.207031 0.0195312 1.0625 0.0625 C 1 0.0703125 0.921875 0.078125 0.828125 0.078125 L 0.828125 -2.4375 L 1.296875 -2.4375 C 1.316406 -1.007812 1.9375 -0.289062 3.15625 -0.28125 Z M 3.15625 -0.28125 "/></g></g></g><g fill="rgb(0%, 0%, 0%)" fill-opacity="1"><g transform="translate(139.789213, 271.677198)"><g><path d="M 3.90625 -0.421875 L 3.078125 -0.421875 L 3.078125 -7.0625 L 0.5 -7.0625 L 0.5 -6.640625 L 1.828125 -6.640625 L 1.828125 -1.40625 C 1.828125 -0.894531 1.65625 -0.585938 1.3125 -0.484375 C 1.144531 -0.441406 0.875 -0.421875 0.5 -0.421875 L 0.5 0 L 4.3125 0 C 4.3125 -0.238281 4.226562 -0.375 4.0625 -0.40625 C 4.007812 -0.414062 3.957031 -0.421875 3.90625 -0.421875 Z M 3.265625 -9.484375 C 3.265625 -9.867188 3.09375 -10.144531 2.75 -10.3125 C 2.625 -10.363281 2.5 -10.390625 2.375 -10.390625 C 1.988281 -10.390625 1.710938 -10.210938 1.546875 -9.859375 C 1.492188 -9.734375 1.46875 -9.609375 1.46875 -9.484375 C 1.46875 -9.066406 1.648438 -8.785156 2.015625 -8.640625 C 2.128906 -8.585938 2.25 -8.5625 2.375 -8.5625 C 2.757812 -8.5625 3.03125 -8.738281 3.1875 -9.09375 C 3.238281 -9.21875 3.265625 -9.347656 3.265625 -9.484375 Z M 3.265625 -9.484375 "/></g></g></g><g fill="rgb(0%, 0%, 0%)" fill-opacity="1"><g transform="translate(146.19946, 271.677198)"><g><path d="M 2.078125 -3.53125 C 2.078125 -5.25 2.546875 -6.296875 3.484375 -6.671875 C 3.734375 -6.765625 3.988281 -6.8125 4.25 -6.8125 C 5.476562 -6.8125 6.191406 -6.035156 6.390625 -4.484375 C 6.421875 -4.210938 6.4375 -3.921875 6.4375 -3.609375 C 6.4375 -1.742188 5.929688 -0.648438 4.921875 -0.328125 C 4.710938 -0.273438 4.503906 -0.25 4.296875 -0.25 C 3.179688 -0.25 2.476562 -0.910156 2.1875 -2.234375 C 2.113281 -2.628906 2.078125 -3.0625 2.078125 -3.53125 Z M 4.296875 -7.21875 C 3.234375 -7.21875 2.347656 -6.851562 1.640625 -6.125 C 0.992188 -5.445312 0.671875 -4.609375 0.671875 -3.609375 C 0.671875 -2.210938 1.175781 -1.164062 2.1875 -0.46875 C 2.8125 -0.0390625 3.5 0.171875 4.25 0.171875 C 5.3125 0.171875 6.191406 -0.207031 6.890625 -0.96875 C 7.535156 -1.65625 7.859375 -2.507812 7.859375 -3.53125 C 7.859375 -4.925781 7.34375 -5.960938 6.3125 -6.640625 C 5.695312 -7.023438 5.023438 -7.21875 4.296875 -7.21875 Z M 4.296875 -7.21875 "/></g></g></g><g fill="rgb(0%, 0%, 0%)" fill-opacity="1"><g transform="translate(156.310154, 271.677198)"><g><path d="M 0.328125 -6.640625 L 1.5 -6.640625 L 1.5 -1.953125 C 1.570312 -0.578125 2.207031 0.132812 3.40625 0.1875 C 4.425781 0.1875 5.0625 -0.4375 5.3125 -1.6875 C 5.3125 -1.695312 5.3125 -1.710938 5.3125 -1.734375 L 4.859375 -1.8125 C 4.585938 -0.894531 4.1875 -0.394531 3.65625 -0.3125 C 3.050781 -0.332031 2.742188 -0.757812 2.734375 -1.59375 L 2.734375 -6.640625 L 5.3125 -6.640625 L 5.3125 -7.0625 L 2.734375 -7.0625 L 2.734375 -8.984375 L 1.5 -8.640625 L 1.5 -7.0625 L 0.328125 -7.0625 Z M 0.328125 -6.640625 "/></g></g></g><g fill="rgb(0%, 0%, 0%)" fill-opacity="1"><g transform="translate(163.301189, 271.677198)"><g><path d="M 3.859375 -0.421875 L 3.015625 -0.421875 L 3.015625 -4 C 3.015625 -5.007812 3.363281 -5.738281 4.0625 -6.1875 C 4.351562 -6.375 4.65625 -6.46875 4.96875 -6.46875 C 5.644531 -6.46875 6.113281 -6.15625 6.375 -5.53125 C 6.5 -5.226562 6.5625 -4.894531 6.5625 -4.53125 L 6.5625 -1.40625 C 6.5625 -0.894531 6.4375 -0.59375 6.1875 -0.5 C 6.03125 -0.445312 5.765625 -0.421875 5.390625 -0.421875 L 5.390625 0 L 9.046875 0 C 9.046875 -0.238281 8.960938 -0.375 8.796875 -0.40625 C 8.753906 -0.414062 8.703125 -0.421875 8.640625 -0.421875 L 7.796875 -0.421875 L 7.796875 -4.53125 C 7.796875 -5.738281 7.398438 -6.554688 6.609375 -6.984375 C 6.296875 -7.140625 5.960938 -7.21875 5.609375 -7.21875 C 4.796875 -7.21875 4.109375 -6.921875 3.546875 -6.328125 C 3.316406 -6.066406 3.140625 -5.78125 3.015625 -5.46875 L 3.015625 -10.796875 L 0.53125 -10.796875 L 0.53125 -10.375 L 1.78125 -10.375 L 1.78125 -1.40625 C 1.78125 -0.894531 1.632812 -0.59375 1.34375 -0.5 C 1.175781 -0.445312 0.90625 -0.421875 0.53125 -0.421875 L 0.53125 0 L 4.265625 0 C 4.265625 -0.238281 4.179688 -0.375 4.015625 -0.40625 C 3.972656 -0.414062 3.921875 -0.421875 3.859375 -0.421875 Z M 3.859375 -0.421875 "/></g></g></g><g fill="rgb(0%, 0%, 0%)" fill-opacity="1"><g transform="translate(174.374332, 271.677198)"><g><path d="M 4.140625 -6.8125 C 4.910156 -6.8125 5.421875 -6.484375 5.671875 -5.828125 C 5.765625 -5.617188 5.8125 -5.390625 5.8125 -5.140625 C 5.8125 -4.585938 5.546875 -4.253906 5.015625 -4.140625 C 4.734375 -4.078125 4.335938 -4.050781 3.828125 -4.0625 L 2.078125 -4.125 C 2.128906 -5.394531 2.546875 -6.222656 3.328125 -6.609375 C 3.578125 -6.742188 3.847656 -6.8125 4.140625 -6.8125 Z M 7.015625 -1.59375 L 6.609375 -1.75 C 6.222656 -0.90625 5.597656 -0.425781 4.734375 -0.3125 C 4.617188 -0.300781 4.515625 -0.296875 4.421875 -0.296875 C 3.253906 -0.296875 2.519531 -0.988281 2.21875 -2.375 C 2.132812 -2.757812 2.085938 -3.1875 2.078125 -3.65625 L 4.0625 -3.625 C 5.414062 -3.601562 6.285156 -3.726562 6.671875 -4 C 6.972656 -4.21875 7.125 -4.535156 7.125 -4.953125 C 7.125 -5.703125 6.742188 -6.296875 5.984375 -6.734375 C 5.429688 -7.054688 4.800781 -7.21875 4.09375 -7.21875 C 2.71875 -7.21875 1.726562 -6.644531 1.125 -5.5 C 0.820312 -4.894531 0.671875 -4.21875 0.671875 -3.46875 C 0.671875 -2.09375 1.160156 -1.078125 2.140625 -0.421875 C 2.722656 -0.0234375 3.394531 0.171875 4.15625 0.171875 C 5.34375 0.171875 6.222656 -0.257812 6.796875 -1.125 C 6.878906 -1.28125 6.953125 -1.4375 7.015625 -1.59375 Z M 7.015625 -1.59375 "/></g></g></g><g fill="rgb(0%, 0%, 0%)" fill-opacity="1"><g transform="translate(183.671923, 271.677198)"><g><path d="M 4.21875 -0.421875 L 3.015625 -0.421875 L 3.015625 -3.71875 C 3.015625 -4.726562 3.328125 -5.535156 3.953125 -6.140625 C 4.191406 -6.367188 4.394531 -6.492188 4.5625 -6.515625 C 4.75 -6.515625 4.921875 -6.375 5.078125 -6.09375 C 5.253906 -5.78125 5.421875 -5.601562 5.578125 -5.5625 C 5.640625 -5.539062 5.707031 -5.53125 5.78125 -5.53125 C 6.113281 -5.53125 6.320312 -5.691406 6.40625 -6.015625 C 6.425781 -6.078125 6.4375 -6.140625 6.4375 -6.203125 C 6.4375 -6.703125 6.179688 -7.007812 5.671875 -7.125 C 5.566406 -7.144531 5.460938 -7.15625 5.359375 -7.15625 C 4.691406 -7.15625 4.101562 -6.875 3.59375 -6.3125 C 3.34375 -6.039062 3.144531 -5.738281 3 -5.40625 L 2.9375 -7.0625 L 0.53125 -7.0625 L 0.53125 -6.640625 L 1.78125 -6.640625 L 1.78125 -1.40625 C 1.78125 -0.894531 1.632812 -0.59375 1.34375 -0.5 C 1.175781 -0.445312 0.90625 -0.421875 0.53125 -0.421875 L 0.53125 0 L 4.625 0 C 4.625 -0.238281 4.546875 -0.375 4.390625 -0.40625 C 4.335938 -0.414062 4.28125 -0.421875 4.21875 -0.421875 Z M 4.21875 -0.421875 "/></g></g></g><g fill="rgb(0%, 0%, 0%)" fill-opacity="1"><g transform="translate(191.791345, 271.677198)"><g><path d="M 6.484375 0.171875 C 7.335938 0.171875 7.8125 -0.34375 7.90625 -1.375 C 7.914062 -1.445312 7.921875 -1.507812 7.921875 -1.5625 L 7.484375 -1.578125 C 7.410156 -0.765625 7.195312 -0.351562 6.84375 -0.34375 C 6.550781 -0.363281 6.398438 -0.65625 6.390625 -1.21875 L 6.390625 -4.71875 C 6.390625 -6.300781 5.597656 -7.132812 4.015625 -7.21875 C 3.921875 -7.21875 3.820312 -7.21875 3.71875 -7.21875 C 2.476562 -7.21875 1.648438 -6.929688 1.234375 -6.359375 C 1.097656 -6.171875 1.03125 -5.984375 1.03125 -5.796875 C 1.03125 -5.453125 1.191406 -5.253906 1.515625 -5.203125 C 1.566406 -5.191406 1.617188 -5.1875 1.671875 -5.1875 C 1.929688 -5.1875 2.117188 -5.34375 2.234375 -5.65625 C 2.390625 -6.070312 2.5 -6.316406 2.5625 -6.390625 C 2.769531 -6.671875 3.09375 -6.8125 3.53125 -6.8125 C 4.570312 -6.738281 5.109375 -6.164062 5.140625 -5.09375 L 5.140625 -4.046875 C 2.546875 -4.046875 1.0625 -3.503906 0.6875 -2.421875 C 0.613281 -2.210938 0.578125 -1.988281 0.578125 -1.75 C 0.578125 -0.90625 0.945312 -0.328125 1.6875 -0.015625 C 1.988281 0.109375 2.304688 0.171875 2.640625 0.171875 C 3.453125 0.171875 4.132812 -0.109375 4.6875 -0.671875 C 4.882812 -0.878906 5.03125 -1.097656 5.125 -1.328125 C 5.257812 -0.335938 5.710938 0.160156 6.484375 0.171875 Z M 3.1875 -0.5 C 2.507812 -0.5 2.09375 -0.835938 1.9375 -1.515625 C 1.90625 -1.671875 1.890625 -1.84375 1.890625 -2.03125 C 1.890625 -2.769531 2.316406 -3.238281 3.171875 -3.4375 C 3.628906 -3.539062 4.285156 -3.597656 5.140625 -3.609375 L 5.140625 -2.28125 C 4.972656 -1.507812 4.570312 -0.972656 3.9375 -0.671875 C 3.675781 -0.554688 3.425781 -0.5 3.1875 -0.5 Z M 3.1875 -0.5 "/></g></g></g><g fill="rgb(0%, 0%, 0%)" fill-opacity="1"><g transform="translate(201.387628, 271.677198)"><g><path d="M 2.921875 2.734375 L 2.921875 -0.703125 C 3.523438 -0.171875 4.226562 0.117188 5.03125 0.171875 C 6.019531 0.171875 6.84375 -0.203125 7.5 -0.953125 C 8.144531 -1.671875 8.46875 -2.582031 8.46875 -3.6875 C 8.46875 -4.945312 8.117188 -5.90625 7.421875 -6.5625 C 6.929688 -7 6.335938 -7.21875 5.640625 -7.21875 C 4.566406 -7.21875 3.765625 -6.789062 3.234375 -5.9375 C 3.097656 -5.71875 2.988281 -5.488281 2.90625 -5.25 L 2.828125 -7.0625 L 0.4375 -7.0625 L 0.4375 -6.640625 L 1.671875 -6.640625 L 1.671875 1.75 C 1.671875 2.25 1.53125 2.550781 1.25 2.65625 C 1.082031 2.707031 0.8125 2.734375 0.4375 2.734375 L 0.4375 3.15625 L 4.5 3.15625 C 4.5 2.914062 4.414062 2.78125 4.25 2.75 C 4.207031 2.738281 4.148438 2.734375 4.078125 2.734375 Z M 5.109375 -6.5625 C 6.078125 -6.5625 6.6875 -5.957031 6.9375 -4.75 C 7.019531 -4.382812 7.0625 -3.972656 7.0625 -3.515625 C 7.0625 -1.890625 6.625 -0.863281 5.75 -0.4375 C 5.488281 -0.3125 5.210938 -0.25 4.921875 -0.25 C 4.066406 -0.25 3.476562 -0.695312 3.15625 -1.59375 C 2.988281 -2.050781 2.90625 -2.585938 2.90625 -3.203125 C 2.90625 -4.640625 3.273438 -5.632812 4.015625 -6.1875 C 4.347656 -6.4375 4.710938 -6.5625 5.109375 -6.5625 Z M 5.109375 -6.5625 "/></g></g></g><g fill="rgb(0%, 0%, 0%)" fill-opacity="1"><g transform="translate(212.112297, 271.677198)"><g><path d="M 1.703125 2.640625 C 1.523438 2.640625 1.394531 2.503906 1.3125 2.234375 C 1.1875 1.910156 1.070312 1.707031 0.96875 1.625 C 0.863281 1.5625 0.742188 1.53125 0.609375 1.53125 C 0.253906 1.53125 0.0507812 1.6875 0 2 C -0.0078125 2.039062 -0.015625 2.078125 -0.015625 2.109375 C -0.015625 2.523438 0.226562 2.828125 0.71875 3.015625 C 0.9375 3.109375 1.164062 3.15625 1.40625 3.15625 C 2.28125 3.15625 3.039062 2.617188 3.6875 1.546875 C 3.945312 1.109375 4.203125 0.59375 4.453125 0 L 6.90625 -6.0625 C 7.019531 -6.375 7.140625 -6.550781 7.265625 -6.59375 C 7.347656 -6.613281 7.4375 -6.625 7.53125 -6.625 C 7.757812 -6.625 7.890625 -6.6875 7.921875 -6.8125 C 7.941406 -6.875 7.953125 -6.957031 7.953125 -7.0625 L 5.421875 -7.0625 L 5.421875 -6.625 L 6.640625 -6.625 L 4.515625 -1.3125 L 2.234375 -6.625 L 3.359375 -6.625 L 3.359375 -7.0625 L 0.109375 -7.0625 L 0.109375 -6.625 L 0.9375 -6.625 L 3.921875 0 C 3.296875 1.457031 2.710938 2.304688 2.171875 2.546875 C 2.015625 2.609375 1.859375 2.640625 1.703125 2.640625 Z M 1.703125 2.640625 "/></g></g></g><g fill="rgb(0%, 0%, 0%)" fill-opacity="1"><g transform="translate(221.741768, 271.677198)"><g/></g></g><g fill="rgb(0%, 0%, 0%)" fill-opacity="1"><g transform="translate(226.575603, 271.677198)"><g><path d="M 10.171875 0 C 10.171875 -0.238281 10.082031 -0.378906 9.90625 -0.421875 C 9.851562 -0.429688 9.800781 -0.4375 9.75 -0.4375 L 9.1875 -0.4375 L 5.375 -9.96875 L 4.765625 -9.96875 L 1.046875 -0.4375 L 0 -0.4375 L 0 0 L 2.953125 0 C 2.953125 -0.238281 2.863281 -0.378906 2.6875 -0.421875 C 2.632812 -0.429688 2.582031 -0.4375 2.53125 -0.4375 L 1.703125 -0.4375 L 2.953125 -3.65625 L 6.421875 -3.65625 L 7.671875 -0.4375 L 6.59375 -0.4375 L 6.59375 0 Z M 6.25 -4.140625 L 3.140625 -4.140625 L 4.6875 -8.15625 Z M 6.25 -4.140625 "/></g></g></g><g fill="rgb(0%, 0%, 0%)" fill-opacity="1"><g transform="translate(238.34569, 271.677198)"><g><path d="M 0.671875 -3.453125 C 0.671875 -2.109375 1.160156 -1.109375 2.140625 -0.453125 C 2.753906 -0.0351562 3.445312 0.171875 4.21875 0.171875 C 5.363281 0.171875 6.234375 -0.234375 6.828125 -1.046875 C 6.953125 -1.234375 7.054688 -1.421875 7.140625 -1.609375 L 6.703125 -1.765625 C 6.296875 -0.890625 5.625 -0.40625 4.6875 -0.3125 C 4.59375 -0.300781 4.503906 -0.296875 4.421875 -0.296875 C 3.628906 -0.296875 3.015625 -0.691406 2.578125 -1.484375 C 2.242188 -2.078125 2.078125 -2.785156 2.078125 -3.609375 C 2.078125 -5.054688 2.457031 -6.023438 3.21875 -6.515625 C 3.539062 -6.710938 3.894531 -6.8125 4.28125 -6.8125 C 4.882812 -6.8125 5.242188 -6.578125 5.359375 -6.109375 C 5.378906 -6.023438 5.410156 -5.882812 5.453125 -5.6875 C 5.515625 -5.25 5.632812 -4.972656 5.8125 -4.859375 C 5.925781 -4.804688 6.046875 -4.773438 6.171875 -4.765625 C 6.546875 -4.742188 6.785156 -4.898438 6.890625 -5.234375 C 6.910156 -5.304688 6.921875 -5.378906 6.921875 -5.453125 C 6.921875 -6.015625 6.5625 -6.476562 5.84375 -6.84375 C 5.332031 -7.09375 4.78125 -7.21875 4.1875 -7.21875 C 2.695312 -7.21875 1.660156 -6.613281 1.078125 -5.40625 C 0.804688 -4.832031 0.671875 -4.179688 0.671875 -3.453125 Z M 0.671875 -3.453125 "/></g></g></g><g fill="rgb(0%, 0%, 0%)" fill-opacity="1"><g transform="translate(247.162058, 271.677198)"><g><path d="M 0.671875 -3.453125 C 0.671875 -2.109375 1.160156 -1.109375 2.140625 -0.453125 C 2.753906 -0.0351562 3.445312 0.171875 4.21875 0.171875 C 5.363281 0.171875 6.234375 -0.234375 6.828125 -1.046875 C 6.953125 -1.234375 7.054688 -1.421875 7.140625 -1.609375 L 6.703125 -1.765625 C 6.296875 -0.890625 5.625 -0.40625 4.6875 -0.3125 C 4.59375 -0.300781 4.503906 -0.296875 4.421875 -0.296875 C 3.628906 -0.296875 3.015625 -0.691406 2.578125 -1.484375 C 2.242188 -2.078125 2.078125 -2.785156 2.078125 -3.609375 C 2.078125 -5.054688 2.457031 -6.023438 3.21875 -6.515625 C 3.539062 -6.710938 3.894531 -6.8125 4.28125 -6.8125 C 4.882812 -6.8125 5.242188 -6.578125 5.359375 -6.109375 C 5.378906 -6.023438 5.410156 -5.882812 5.453125 -5.6875 C 5.515625 -5.25 5.632812 -4.972656 5.8125 -4.859375 C 5.925781 -4.804688 6.046875 -4.773438 6.171875 -4.765625 C 6.546875 -4.742188 6.785156 -4.898438 6.890625 -5.234375 C 6.910156 -5.304688 6.921875 -5.378906 6.921875 -5.453125 C 6.921875 -6.015625 6.5625 -6.476562 5.84375 -6.84375 C 5.332031 -7.09375 4.78125 -7.21875 4.1875 -7.21875 C 2.695312 -7.21875 1.660156 -6.613281 1.078125 -5.40625 C 0.804688 -4.832031 0.671875 -4.179688 0.671875 -3.453125 Z M 0.671875 -3.453125 "/></g></g></g><g fill="rgb(0%, 0%, 0%)" fill-opacity="1"><g transform="translate(255.978425, 271.677198)"><g><path d="M 4.140625 -6.8125 C 4.910156 -6.8125 5.421875 -6.484375 5.671875 -5.828125 C 5.765625 -5.617188 5.8125 -5.390625 5.8125 -5.140625 C 5.8125 -4.585938 5.546875 -4.253906 5.015625 -4.140625 C 4.734375 -4.078125 4.335938 -4.050781 3.828125 -4.0625 L 2.078125 -4.125 C 2.128906 -5.394531 2.546875 -6.222656 3.328125 -6.609375 C 3.578125 -6.742188 3.847656 -6.8125 4.140625 -6.8125 Z M 7.015625 -1.59375 L 6.609375 -1.75 C 6.222656 -0.90625 5.597656 -0.425781 4.734375 -0.3125 C 4.617188 -0.300781 4.515625 -0.296875 4.421875 -0.296875 C 3.253906 -0.296875 2.519531 -0.988281 2.21875 -2.375 C 2.132812 -2.757812 2.085938 -3.1875 2.078125 -3.65625 L 4.0625 -3.625 C 5.414062 -3.601562 6.285156 -3.726562 6.671875 -4 C 6.972656 -4.21875 7.125 -4.535156 7.125 -4.953125 C 7.125 -5.703125 6.742188 -6.296875 5.984375 -6.734375 C 5.429688 -7.054688 4.800781 -7.21875 4.09375 -7.21875 C 2.71875 -7.21875 1.726562 -6.644531 1.125 -5.5 C 0.820312 -4.894531 0.671875 -4.21875 0.671875 -3.46875 C 0.671875 -2.09375 1.160156 -1.078125 2.140625 -0.421875 C 2.722656 -0.0234375 3.394531 0.171875 4.15625 0.171875 C 5.34375 0.171875 6.222656 -0.257812 6.796875 -1.125 C 6.878906 -1.28125 6.953125 -1.4375 7.015625 -1.59375 Z M 7.015625 -1.59375 "/></g></g></g><g fill="rgb(0%, 0%, 0%)" fill-opacity="1"><g transform="translate(265.276017, 271.677198)"><g><path d="M 3.15625 -0.28125 C 3.914062 -0.28125 4.429688 -0.515625 4.703125 -0.984375 C 4.796875 -1.148438 4.84375 -1.332031 4.84375 -1.53125 C 4.84375 -1.988281 4.503906 -2.382812 3.828125 -2.71875 C 3.691406 -2.800781 3.457031 -2.914062 3.125 -3.0625 C 2.21875 -3.4375 1.613281 -3.789062 1.3125 -4.125 C 0.988281 -4.488281 0.828125 -4.910156 0.828125 -5.390625 C 0.828125 -6.160156 1.25 -6.695312 2.09375 -7 C 2.476562 -7.144531 2.898438 -7.21875 3.359375 -7.21875 C 4.085938 -7.21875 4.71875 -7.0625 5.25 -6.75 C 5.25 -7.070312 5.328125 -7.257812 5.484375 -7.3125 C 5.546875 -7.320312 5.613281 -7.328125 5.6875 -7.328125 L 5.6875 -5.25 L 5.265625 -5.25 C 5.242188 -6.269531 4.675781 -6.785156 3.5625 -6.796875 C 2.738281 -6.796875 2.226562 -6.550781 2.03125 -6.0625 C 1.96875 -5.925781 1.9375 -5.785156 1.9375 -5.640625 C 1.9375 -5.171875 2.28125 -4.769531 2.96875 -4.4375 C 3.125 -4.351562 3.367188 -4.25 3.703125 -4.125 C 4.597656 -3.75 5.195312 -3.398438 5.5 -3.078125 C 5.820312 -2.722656 5.984375 -2.300781 5.984375 -1.8125 C 5.984375 -0.914062 5.503906 -0.316406 4.546875 -0.015625 C 4.179688 0.109375 3.785156 0.171875 3.359375 0.171875 C 2.554688 0.160156 1.863281 -0.0390625 1.28125 -0.4375 C 1.28125 -0.144531 1.207031 0.0195312 1.0625 0.0625 C 1 0.0703125 0.921875 0.078125 0.828125 0.078125 L 0.828125 -2.4375 L 1.296875 -2.4375 C 1.316406 -1.007812 1.9375 -0.289062 3.15625 -0.28125 Z M 3.15625 -0.28125 "/></g></g></g><g fill="rgb(0%, 0%, 0%)" fill-opacity="1"><g transform="translate(273.511597, 271.677198)"><g><path d="M 3.15625 -0.28125 C 3.914062 -0.28125 4.429688 -0.515625 4.703125 -0.984375 C 4.796875 -1.148438 4.84375 -1.332031 4.84375 -1.53125 C 4.84375 -1.988281 4.503906 -2.382812 3.828125 -2.71875 C 3.691406 -2.800781 3.457031 -2.914062 3.125 -3.0625 C 2.21875 -3.4375 1.613281 -3.789062 1.3125 -4.125 C 0.988281 -4.488281 0.828125 -4.910156 0.828125 -5.390625 C 0.828125 -6.160156 1.25 -6.695312 2.09375 -7 C 2.476562 -7.144531 2.898438 -7.21875 3.359375 -7.21875 C 4.085938 -7.21875 4.71875 -7.0625 5.25 -6.75 C 5.25 -7.070312 5.328125 -7.257812 5.484375 -7.3125 C 5.546875 -7.320312 5.613281 -7.328125 5.6875 -7.328125 L 5.6875 -5.25 L 5.265625 -5.25 C 5.242188 -6.269531 4.675781 -6.785156 3.5625 -6.796875 C 2.738281 -6.796875 2.226562 -6.550781 2.03125 -6.0625 C 1.96875 -5.925781 1.9375 -5.785156 1.9375 -5.640625 C 1.9375 -5.171875 2.28125 -4.769531 2.96875 -4.4375 C 3.125 -4.351562 3.367188 -4.25 3.703125 -4.125 C 4.597656 -3.75 5.195312 -3.398438 5.5 -3.078125 C 5.820312 -2.722656 5.984375 -2.300781 5.984375 -1.8125 C 5.984375 -0.914062 5.503906 -0.316406 4.546875 -0.015625 C 4.179688 0.109375 3.785156 0.171875 3.359375 0.171875 C 2.554688 0.160156 1.863281 -0.0390625 1.28125 -0.4375 C 1.28125 -0.144531 1.207031 0.0195312 1.0625 0.0625 C 1 0.0703125 0.921875 0.078125 0.828125 0.078125 L 0.828125 -2.4375 L 1.296875 -2.4375 C 1.316406 -1.007812 1.9375 -0.289062 3.15625 -0.28125 Z M 3.15625 -0.28125 "/></g></g></g><g fill="rgb(0%, 0%, 0%)" fill-opacity="1"><g transform="translate(281.747177, 271.677198)"><g><path d="M 3.90625 -0.421875 L 3.078125 -0.421875 L 3.078125 -7.0625 L 0.5 -7.0625 L 0.5 -6.640625 L 1.828125 -6.640625 L 1.828125 -1.40625 C 1.828125 -0.894531 1.65625 -0.585938 1.3125 -0.484375 C 1.144531 -0.441406 0.875 -0.421875 0.5 -0.421875 L 0.5 0 L 4.3125 0 C 4.3125 -0.238281 4.226562 -0.375 4.0625 -0.40625 C 4.007812 -0.414062 3.957031 -0.421875 3.90625 -0.421875 Z M 3.265625 -9.484375 C 3.265625 -9.867188 3.09375 -10.144531 2.75 -10.3125 C 2.625 -10.363281 2.5 -10.390625 2.375 -10.390625 C 1.988281 -10.390625 1.710938 -10.210938 1.546875 -9.859375 C 1.492188 -9.734375 1.46875 -9.609375 1.46875 -9.484375 C 1.46875 -9.066406 1.648438 -8.785156 2.015625 -8.640625 C 2.128906 -8.585938 2.25 -8.5625 2.375 -8.5625 C 2.757812 -8.5625 3.03125 -8.738281 3.1875 -9.09375 C 3.238281 -9.21875 3.265625 -9.347656 3.265625 -9.484375 Z M 3.265625 -9.484375 "/></g></g></g><g fill="rgb(0%, 0%, 0%)" fill-opacity="1"><g transform="translate(288.157424, 271.677198)"><g><path d="M 5.078125 0.171875 C 6.054688 0.171875 6.875 -0.195312 7.53125 -0.9375 C 8.15625 -1.644531 8.46875 -2.539062 8.46875 -3.625 C 8.46875 -4.84375 8.132812 -5.789062 7.46875 -6.46875 C 6.96875 -6.96875 6.351562 -7.21875 5.625 -7.21875 C 4.414062 -7.21875 3.5625 -6.675781 3.0625 -5.59375 C 3 -5.5 2.953125 -5.398438 2.921875 -5.296875 L 2.921875 -10.796875 L 0.4375 -10.796875 L 0.4375 -10.375 L 1.671875 -10.375 L 1.671875 -1.40625 C 1.671875 -0.894531 1.53125 -0.59375 1.25 -0.5 C 1.082031 -0.445312 0.8125 -0.421875 0.4375 -0.421875 L 0.4375 0 L 2.53125 0 L 2.671875 -1.09375 C 3.148438 -0.332031 3.867188 0.0820312 4.828125 0.15625 C 4.921875 0.164062 5.003906 0.171875 5.078125 0.171875 Z M 5.109375 -6.5625 C 6.015625 -6.5625 6.609375 -6.003906 6.890625 -4.890625 C 7.003906 -4.484375 7.0625 -4.019531 7.0625 -3.5 C 7.0625 -1.9375 6.640625 -0.925781 5.796875 -0.46875 C 5.523438 -0.320312 5.234375 -0.25 4.921875 -0.25 C 4.085938 -0.25 3.5 -0.691406 3.15625 -1.578125 C 2.988281 -2.046875 2.90625 -2.582031 2.90625 -3.1875 C 2.90625 -4.53125 3.238281 -5.5 3.90625 -6.09375 C 4.257812 -6.40625 4.660156 -6.5625 5.109375 -6.5625 Z M 5.109375 -6.5625 "/></g></g></g><g fill="rgb(0%, 0%, 0%)" fill-opacity="1"><g transform="translate(298.882094, 271.677198)"><g><path d="M 3.9375 -0.421875 L 3.03125 -0.421875 L 3.03125 -10.796875 L 0.546875 -10.796875 L 0.546875 -10.375 L 1.796875 -10.375 L 1.796875 -1.40625 C 1.796875 -0.894531 1.648438 -0.59375 1.359375 -0.5 C 1.191406 -0.445312 0.921875 -0.421875 0.546875 -0.421875 L 0.546875 0 L 4.34375 0 C 4.34375 -0.238281 4.257812 -0.375 4.09375 -0.40625 C 4.050781 -0.414062 4 -0.421875 3.9375 -0.421875 Z M 3.9375 -0.421875 "/></g></g></g><g fill="rgb(0%, 0%, 0%)" fill-opacity="1"><g transform="translate(305.275747, 271.677198)"><g><path d="M 4.140625 -6.8125 C 4.910156 -6.8125 5.421875 -6.484375 5.671875 -5.828125 C 5.765625 -5.617188 5.8125 -5.390625 5.8125 -5.140625 C 5.8125 -4.585938 5.546875 -4.253906 5.015625 -4.140625 C 4.734375 -4.078125 4.335938 -4.050781 3.828125 -4.0625 L 2.078125 -4.125 C 2.128906 -5.394531 2.546875 -6.222656 3.328125 -6.609375 C 3.578125 -6.742188 3.847656 -6.8125 4.140625 -6.8125 Z M 7.015625 -1.59375 L 6.609375 -1.75 C 6.222656 -0.90625 5.597656 -0.425781 4.734375 -0.3125 C 4.617188 -0.300781 4.515625 -0.296875 4.421875 -0.296875 C 3.253906 -0.296875 2.519531 -0.988281 2.21875 -2.375 C 2.132812 -2.757812 2.085938 -3.1875 2.078125 -3.65625 L 4.0625 -3.625 C 5.414062 -3.601562 6.285156 -3.726562 6.671875 -4 C 6.972656 -4.21875 7.125 -4.535156 7.125 -4.953125 C 7.125 -5.703125 6.742188 -6.296875 5.984375 -6.734375 C 5.429688 -7.054688 4.800781 -7.21875 4.09375 -7.21875 C 2.71875 -7.21875 1.726562 -6.644531 1.125 -5.5 C 0.820312 -4.894531 0.671875 -4.21875 0.671875 -3.46875 C 0.671875 -2.09375 1.160156 -1.078125 2.140625 -0.421875 C 2.722656 -0.0234375 3.394531 0.171875 4.15625 0.171875 C 5.34375 0.171875 6.222656 -0.257812 6.796875 -1.125 C 6.878906 -1.28125 6.953125 -1.4375 7.015625 -1.59375 Z M 7.015625 -1.59375 "/></g></g></g></svg>