<svg xmlns="http://www.w3.org/2000/svg" xmlns:xlink="http://www.w3.org/1999/xlink" width="350" zoomAndPan="magnify" viewBox="0 0 262.5 187.499995" height="250" preserveAspectRatio="xMidYMid meet" version="1.0"><defs><g/><clipPath id="id1"><path d="M 0.101562 0 L 261.902344 0 L 261.902344 187 L 0.101562 187 Z M 0.101562 0 " clip-rule="nonzero"/></clipPath></defs><g clip-path="url(#id1)"><path fill="rgb(100%, 100%, 100%)" d="M 0.101562 0 L 262.398438 0 L 262.398438 194.101562 L 0.101562 194.101562 Z M 0.101562 0 " fill-opacity="1" fill-rule="nonzero"/><path fill="rgb(100%, 100%, 100%)" d="M 0.101562 0 L 262.398438 0 L 262.398438 187.359375 L 0.101562 187.359375 Z M 0.101562 0 " fill-opacity="1" fill-rule="nonzero"/><path fill="rgb(100%, 8.628845%, 8.628845%)" d="M 0.101562 0 L 262.398438 0 L 262.398438 187.359375 L 0.101562 187.359375 Z M 0.101562 0 " fill-opacity="1" fill-rule="nonzero"/></g><path fill="rgb(100%, 100%, 100%)" d="M 237.054688 27.027344 C 240.632812 27.027344 243.574219 29.972656 243.574219 33.558594 L 243.574219 153.855469 C 243.574219 157.441406 240.632812 160.382812 237.054688 160.382812 L 25.300781 160.382812 C 21.71875 160.382812 18.777344 157.441406 18.777344 153.855469 L 18.777344 33.558594 C 18.777344 29.972656 21.71875 27.027344 25.300781 27.027344 L 237.054688 27.027344 M 237.054688 21.011719 L 25.300781 21.011719 C 18.394531 21.011719 12.765625 26.644531 12.765625 33.558594 L 12.765625 153.855469 C 12.765625 160.769531 18.394531 166.402344 25.300781 166.402344 L 237.054688 166.402344 C 243.960938 166.402344 249.585938 160.769531 249.585938 153.855469 L 249.585938 33.558594 C 249.585938 26.644531 243.960938 21.011719 237.054688 21.011719 " fill-opacity="1" fill-rule="nonzero"/><g fill="rgb(100%, 100%, 100%)" fill-opacity="1"><g transform="translate(24.799314, 81.290504)"><g><path d="M 30.550781 -38.730469 L 30.550781 -43.800781 L 6.875 -43.800781 L 6.875 0 L 12.566406 0 L 12.566406 -19.378906 L 28.246094 -19.378906 L 28.246094 -24.421875 L 12.566406 -24.421875 L 12.566406 -38.730469 Z M 30.550781 -38.730469 "/></g></g></g><g fill="rgb(100%, 100%, 100%)" fill-opacity="1"><g transform="translate(61.180468, 81.290504)"><g><path d="M 18.355469 0.621094 C 27.15625 0.621094 33.753906 -5.507812 33.753906 -15.304688 C 33.753906 -25.042969 27.1875 -31.203125 18.355469 -31.203125 C 9.550781 -31.203125 2.957031 -25.042969 2.957031 -15.304688 C 2.957031 -5.507812 9.644531 0.621094 18.355469 0.621094 Z M 18.324219 -3.886719 C 12.660156 -3.886719 8.304688 -8.367188 8.304688 -15.304688 C 8.304688 -22.210938 12.660156 -26.691406 18.324219 -26.691406 C 24.046875 -26.691406 28.433594 -22.210938 28.433594 -15.304688 C 28.433594 -8.367188 24.046875 -3.886719 18.324219 -3.886719 Z M 18.324219 -3.886719 "/></g></g></g><g fill="rgb(100%, 100%, 100%)" fill-opacity="1"><g transform="translate(101.201287, 81.290504)"><g><path d="M 10.792969 -25.355469 L 10.671875 -30.578125 L 5.476562 -30.578125 L 5.476562 0 L 10.855469 0 L 10.855469 -16.332031 C 10.855469 -23.207031 14.433594 -25.851562 20.40625 -25.851562 L 20.40625 -30.921875 C 16.113281 -30.859375 12.382812 -28.621094 10.792969 -25.355469 Z M 10.792969 -25.355469 "/></g></g></g><g fill="rgb(100%, 100%, 100%)" fill-opacity="1"><g transform="translate(125.73018, 81.290504)"><g><path d="M 36.738281 -31.171875 C 32.851562 -31.171875 29.679688 -29.429688 27.84375 -26.164062 C 26.316406 -29.460938 23.113281 -31.171875 19.226562 -31.171875 C 15.585938 -31.171875 12.628906 -29.523438 10.855469 -26.628906 L 10.855469 -30.578125 L 5.476562 -30.578125 L 5.476562 0 L 10.855469 0 L 10.855469 -18.726562 C 10.855469 -24.265625 13.71875 -26.628906 17.296875 -26.628906 C 20.625 -26.628906 23.332031 -24.484375 23.332031 -19.660156 L 23.332031 0 L 28.808594 0 L 28.808594 -18.914062 C 28.808594 -24.265625 31.574219 -26.628906 35.246094 -26.628906 C 38.449219 -26.628906 41.1875 -24.574219 41.1875 -19.878906 L 41.1875 0 L 46.570312 0 L 46.570312 -21.277344 C 46.570312 -27.71875 42.464844 -31.171875 36.738281 -31.171875 Z M 36.738281 -31.171875 "/></g></g></g><g fill="rgb(100%, 100%, 100%)" fill-opacity="1"><g transform="translate(24.799314, 137.585017)"><g><path d="M 31.421875 -41.1875 C 28.867188 -42.960938 25.261719 -43.800781 20.34375 -43.800781 L 6.875 -43.800781 L 6.875 0 L 12.445312 0 L 12.445312 -17.015625 L 20.34375 -17.015625 C 25.414062 -17.015625 29.117188 -18.074219 31.667969 -20.28125 C 34.65625 -22.585938 36.117188 -26.347656 36.117188 -31.078125 C 36.117188 -35.804688 34.5625 -39.167969 31.421875 -41.1875 Z M 28.183594 -24.265625 C 26.410156 -22.460938 23.550781 -21.871094 19.628906 -21.871094 L 12.445312 -21.871094 L 12.445312 -38.980469 L 19.628906 -38.980469 C 23.457031 -38.980469 26.226562 -38.574219 28.089844 -37.050781 C 29.554688 -35.835938 30.425781 -33.847656 30.425781 -30.859375 C 30.425781 -27.75 29.617188 -25.664062 28.183594 -24.265625 Z M 28.183594 -24.265625 "/></g></g></g><g fill="rgb(100%, 100%, 100%)" fill-opacity="1"><g transform="translate(67.215473, 137.585017)"><g><path d="M 20.097656 -31.171875 C 16.019531 -31.171875 12.785156 -29.460938 10.855469 -26.535156 L 10.855469 -47.785156 L 5.476562 -47.785156 L 5.476562 0 L 10.855469 0 L 10.855469 -18.292969 C 10.886719 -24.140625 14.371094 -26.628906 18.417969 -26.628906 C 22.023438 -26.628906 25.105469 -24.605469 25.105469 -19.195312 L 25.105469 0 L 30.488281 0 L 30.488281 -20.222656 C 30.488281 -27.46875 26.195312 -31.171875 20.097656 -31.171875 Z M 20.097656 -31.171875 "/></g></g></g><g fill="rgb(100%, 100%, 100%)" fill-opacity="1"><g transform="translate(105.898638, 137.585017)"><g><path d="M 24.328125 -30.578125 L 15.585938 -6.78125 L 6.96875 -30.578125 L 0.996094 -30.578125 L 12.878906 -0.746094 L 6.253906 15.679688 L 11.851562 15.679688 L 30.019531 -30.578125 Z M 24.328125 -30.578125 "/></g></g></g><g fill="rgb(100%, 100%, 100%)" fill-opacity="1"><g transform="translate(140.226648, 137.585017)"><g><path d="M 15.148438 0.589844 C 21.09375 0.589844 26.410156 -1.929688 26.410156 -8.398438 C 26.410156 -14.808594 21.152344 -16.425781 16.332031 -17.667969 C 12.414062 -18.664062 8.773438 -19.441406 8.773438 -22.832031 C 8.773438 -26.007812 11.789062 -27.1875 14.589844 -27.1875 C 17.761719 -27.1875 20.625 -25.664062 21.308594 -22.023438 L 26.007812 -23.144531 C 25.042969 -28.683594 20.128906 -31.109375 14.558594 -31.109375 C 8.679688 -31.109375 3.765625 -28.464844 3.765625 -22.460938 C 3.765625 -16.953125 7.933594 -15.304688 12.195312 -14.03125 C 17.109375 -12.535156 21.121094 -11.914062 21.214844 -8.179688 C 21.308594 -4.636719 18.105469 -3.484375 15.117188 -3.484375 C 11.136719 -3.484375 8.273438 -5.539062 7.589844 -9.238281 L 2.894531 -7.902344 C 3.859375 -2.363281 8.679688 0.589844 15.148438 0.589844 Z M 15.148438 0.589844 "/></g></g></g><g fill="rgb(100%, 100%, 100%)" fill-opacity="1"><g transform="translate(173.123678, 137.585017)"><g><path d="M 8.210938 -37.765625 C 10.171875 -37.765625 11.820312 -39.414062 11.820312 -41.40625 C 11.820312 -43.398438 10.171875 -45.015625 8.210938 -45.015625 C 6.222656 -45.015625 4.574219 -43.398438 4.574219 -41.40625 C 4.574219 -39.414062 6.222656 -37.765625 8.210938 -37.765625 Z M 5.476562 0 L 10.886719 0 L 10.886719 -30.578125 L 5.476562 -30.578125 Z M 5.476562 0 "/></g></g></g><g fill="rgb(100%, 100%, 100%)" fill-opacity="1"><g transform="translate(192.799674, 137.585017)"><g><path d="M 18.355469 0.621094 C 27.15625 0.621094 33.753906 -5.507812 33.753906 -15.304688 C 33.753906 -25.042969 27.1875 -31.203125 18.355469 -31.203125 C 9.550781 -31.203125 2.957031 -25.042969 2.957031 -15.304688 C 2.957031 -5.507812 9.644531 0.621094 18.355469 0.621094 Z M 18.324219 -3.886719 C 12.660156 -3.886719 8.304688 -8.367188 8.304688 -15.304688 C 8.304688 -22.210938 12.660156 -26.691406 18.324219 -26.691406 C 24.046875 -26.691406 28.433594 -22.210938 28.433594 -15.304688 C 28.433594 -8.367188 24.046875 -3.886719 18.324219 -3.886719 Z M 18.324219 -3.886719 "/></g></g></g></svg>