<svg xmlns="http://www.w3.org/2000/svg" xmlns:xlink="http://www.w3.org/1999/xlink" width="500" zoomAndPan="magnify" viewBox="0 0 375 374.999991" height="500" preserveAspectRatio="xMidYMid meet" version="1.0"><defs><g><g id="id1"/><g id="id2"/></g></defs><path fill="rgb(37%, 122%,232%)" d="M 314.226562 81.203125 C 319.375 81.203125 323.605469 85.421875 323.605469 90.5625 L 323.605469 251.085938 C 323.605469 256.226562 319.375 260.449219 314.226562 260.449219 L 55.523438 260.449219 C 50.375 260.449219 46.144531 256.226562 46.144531 251.085938 L 46.144531 90.5625 C 46.144531 85.421875 50.375 81.203125 55.523438 81.203125 L 314.226562 81.203125 M 314.226562 72.574219 L 55.523438 72.574219 C 45.59375 72.574219 37.5 80.652344 37.5 90.5625 L 37.5 251.085938 C 37.5 261 45.59375 269.074219 55.523438 269.074219 L 314.226562 269.074219 C 324.15625 269.074219 332.25 261 332.25 251.085938 L 332.25 90.5625 C 332.25 80.652344 324.15625 72.574219 314.226562 72.574219 " fill-opacity="1" fill-rule="nonzero"/><g fill="rgb(0%, 0%,0%)" fill-opacity="1"><g transform="translate(56.890962, 156.738571)"><g><path d="M 19.40625 0 L 5.609375 0 L 5.609375 -51.859375 L 36.25 -51.859375 L 36.25 -40.609375 L 19.40625 -40.609375 L 19.40625 -30.71875 L 34.9375 -30.71875 L 34.9375 -19.46875 L 19.40625 -19.46875 Z M 19.40625 0 "/></g></g></g><g fill="rgb(0%, 0%, 0%)" fill-opacity="1"><g transform="translate(96.050902, 156.738571)"><g><path d="M 43.171875 -20.1875 C 43.171875 -13.613281 41.398438 -8.488281 37.859375 -4.8125 C 34.328125 -1.132812 29.378906 0.703125 23.015625 0.703125 C 16.921875 0.703125 12.066406 -1.171875 8.453125 -4.921875 C 4.847656 -8.679688 3.046875 -13.769531 3.046875 -20.1875 C 3.046875 -26.726562 4.8125 -31.8125 8.34375 -35.4375 C 11.882812 -39.070312 16.847656 -40.890625 23.234375 -40.890625 C 27.179688 -40.890625 30.664062 -40.050781 33.6875 -38.375 C 36.71875 -36.695312 39.054688 -34.289062 40.703125 -31.15625 C 42.347656 -28.019531 43.171875 -24.363281 43.171875 -20.1875 Z M 17.125 -20.1875 C 17.125 -16.726562 17.582031 -14.09375 18.5 -12.28125 C 19.425781 -10.476562 20.976562 -9.578125 23.15625 -9.578125 C 25.3125 -9.578125 26.832031 -10.476562 27.71875 -12.28125 C 28.601562 -14.09375 29.046875 -16.726562 29.046875 -20.1875 C 29.046875 -23.613281 28.597656 -26.203125 27.703125 -27.953125 C 26.804688 -29.703125 25.269531 -30.578125 23.09375 -30.578125 C 20.957031 -30.578125 19.425781 -29.707031 18.5 -27.96875 C 17.582031 -26.226562 17.125 -23.632812 17.125 -20.1875 Z M 17.125 -20.1875 "/></g></g></g><g fill="rgb(0%, 0%, 0%)" fill-opacity="1"><g transform="translate(142.34051, 156.738571)"><g><path d="M 29.046875 -40.890625 C 30.253906 -40.890625 31.398438 -40.796875 32.484375 -40.609375 L 33.265625 -40.46875 L 32.03125 -27.375 C 30.894531 -27.664062 29.320312 -27.8125 27.3125 -27.8125 C 24.28125 -27.8125 22.078125 -27.117188 20.703125 -25.734375 C 19.335938 -24.347656 18.65625 -22.351562 18.65625 -19.75 L 18.65625 0 L 4.78125 0 L 4.78125 -40.1875 L 15.109375 -40.1875 L 17.265625 -33.765625 L 17.953125 -33.765625 C 19.109375 -35.890625 20.71875 -37.609375 22.78125 -38.921875 C 24.851562 -40.234375 26.941406 -40.890625 29.046875 -40.890625 Z M 29.046875 -40.890625 "/></g></g></g><g fill="rgb(0%, 0%, 0%)" fill-opacity="1"><g transform="translate(176.428108, 156.738571)"><g><path d="M 54.125 0 L 54.125 -21.84375 C 54.125 -24.5625 53.75 -26.597656 53 -27.953125 C 52.257812 -29.316406 51.085938 -30 49.484375 -30 C 47.347656 -30 45.785156 -29.085938 44.796875 -27.265625 C 43.804688 -25.453125 43.3125 -22.609375 43.3125 -18.734375 L 43.3125 0 L 29.40625 0 L 29.40625 -21.84375 C 29.40625 -24.5625 29.050781 -26.597656 28.34375 -27.953125 C 27.632812 -29.316406 26.488281 -30 24.90625 -30 C 22.726562 -30 21.140625 -29.03125 20.140625 -27.09375 C 19.148438 -25.15625 18.65625 -21.988281 18.65625 -17.59375 L 18.65625 0 L 4.78125 0 L 4.78125 -40.1875 L 15.25 -40.1875 L 16.984375 -35.21875 L 17.8125 -35.21875 C 18.875 -37.0625 20.414062 -38.46875 22.4375 -39.4375 C 24.457031 -40.40625 26.753906 -40.890625 29.328125 -40.890625 C 35.117188 -40.890625 39.1875 -39.128906 41.53125 -35.609375 L 42.640625 -35.609375 C 43.773438 -37.265625 45.351562 -38.554688 47.375 -39.484375 C 49.394531 -40.421875 51.625 -40.890625 54.0625 -40.890625 C 58.8125 -40.890625 62.320312 -39.671875 64.59375 -37.234375 C 66.863281 -34.804688 68 -31.109375 68 -26.140625 L 68 0 Z M 54.125 0 "/></g></g></g><g fill="rgb(0%, 0%, 0%)" fill-opacity="1"><g transform="translate(249.066734, 156.738571)"><g/></g></g><g fill="rgb(0%, 0%, 0%)" fill-opacity="1"><g transform="translate(56.890962, 230.238566)"><g><path d="M 43.234375 -35.359375 C 43.234375 -29.566406 41.523438 -25.09375 38.109375 -21.9375 C 34.691406 -18.78125 29.835938 -17.203125 23.546875 -17.203125 L 19.609375 -17.203125 L 19.609375 0 L 5.609375 0 L 5.609375 -51.859375 L 23.546875 -51.859375 C 30.097656 -51.859375 35.015625 -50.425781 38.296875 -47.5625 C 41.585938 -44.695312 43.234375 -40.628906 43.234375 -35.359375 Z M 19.609375 -28.625 L 22.171875 -28.625 C 24.273438 -28.625 25.945312 -29.210938 27.1875 -30.390625 C 28.425781 -31.578125 29.046875 -33.210938 29.046875 -35.296875 C 29.046875 -38.796875 27.109375 -40.546875 23.234375 -40.546875 L 19.609375 -40.546875 Z M 19.609375 -28.625 "/></g></g></g><g fill="rgb(0%, 0%, 0%)" fill-opacity="1"><g transform="translate(102.790384, 230.238566)"><g><path d="M 30.078125 0 L 30.078125 -21.921875 C 30.078125 -27.304688 28.484375 -30 25.296875 -30 C 23.023438 -30 21.347656 -29.046875 20.265625 -27.140625 C 19.191406 -25.242188 18.65625 -22.082031 18.65625 -17.65625 L 18.65625 0 L 4.78125 0 L 4.78125 -55.1875 L 18.65625 -55.1875 L 18.65625 -47.34375 C 18.65625 -43.800781 18.46875 -39.757812 18.09375 -35.21875 L 18.734375 -35.21875 C 20.054688 -37.300781 21.625 -38.765625 23.4375 -39.609375 C 25.257812 -40.460938 27.378906 -40.890625 29.796875 -40.890625 C 34.285156 -40.890625 37.773438 -39.59375 40.265625 -37 C 42.765625 -34.414062 44.015625 -30.796875 44.015625 -26.140625 L 44.015625 0 Z M 30.078125 0 "/></g></g></g><g fill="rgb(0%, 0%, 0%)" fill-opacity="1"><g transform="translate(151.456541, 230.238566)"><g><path d="M -0.078125 -40.1875 L 14.546875 -40.1875 L 21.359375 -17.125 C 21.679688 -15.925781 21.90625 -14.472656 22.03125 -12.765625 L 22.3125 -12.765625 C 22.5 -14.398438 22.78125 -15.832031 23.15625 -17.0625 L 30.15625 -40.1875 L 44.296875 -40.1875 L 28.40625 2.546875 C 26.375 7.992188 23.875 11.835938 20.90625 14.078125 C 17.9375 16.328125 14.066406 17.453125 9.296875 17.453125 C 7.453125 17.453125 5.5625 17.25 3.625 16.84375 L 3.625 5.953125 C 4.875 6.242188 6.300781 6.390625 7.90625 6.390625 C 9.132812 6.390625 10.207031 6.148438 11.125 5.671875 C 12.050781 5.203125 12.859375 4.535156 13.546875 3.671875 C 14.234375 2.804688 14.96875 1.394531 15.75 -0.5625 Z M -0.078125 -40.1875 "/></g></g></g><g fill="rgb(0%, 0%, 0%)" fill-opacity="1"><g transform="translate(195.759776, 230.238566)"><g><path d="M 35.828125 -12.34375 C 35.828125 -8.039062 34.359375 -4.789062 31.421875 -2.59375 C 28.492188 -0.394531 24.285156 0.703125 18.796875 0.703125 C 15.816406 0.703125 13.226562 0.539062 11.03125 0.21875 C 8.832031 -0.09375 6.585938 -0.675781 4.296875 -1.53125 L 4.296875 -12.625 C 6.441406 -11.675781 8.796875 -10.894531 11.359375 -10.28125 C 13.929688 -9.664062 16.222656 -9.359375 18.234375 -9.359375 C 21.234375 -9.359375 22.734375 -10.046875 22.734375 -11.421875 C 22.734375 -12.128906 22.3125 -12.757812 21.46875 -13.3125 C 20.632812 -13.875 18.195312 -14.957031 14.15625 -16.5625 C 10.46875 -18.070312 7.890625 -19.789062 6.421875 -21.71875 C 4.953125 -23.644531 4.21875 -26.085938 4.21875 -29.046875 C 4.21875 -32.785156 5.660156 -35.691406 8.546875 -37.765625 C 11.429688 -39.847656 15.507812 -40.890625 20.78125 -40.890625 C 23.425781 -40.890625 25.914062 -40.597656 28.25 -40.015625 C 30.582031 -39.441406 33 -38.597656 35.5 -37.484375 L 31.75 -28.546875 C 29.90625 -29.378906 27.953125 -30.082031 25.890625 -30.65625 C 23.835938 -31.238281 22.160156 -31.53125 20.859375 -31.53125 C 18.585938 -31.53125 17.453125 -30.972656 17.453125 -29.859375 C 17.453125 -29.179688 17.847656 -28.597656 18.640625 -28.109375 C 19.429688 -27.617188 21.71875 -26.628906 25.5 -25.140625 C 28.3125 -23.984375 30.410156 -22.847656 31.796875 -21.734375 C 33.179688 -20.628906 34.195312 -19.328125 34.84375 -17.828125 C 35.5 -16.328125 35.828125 -14.5 35.828125 -12.34375 Z M 35.828125 -12.34375 "/></g></g></g><g fill="rgb(0%, 0%, 0%)" fill-opacity="1"><g transform="translate(234.494065, 230.238566)"><g><path d="M 18.734375 0 L 4.859375 0 L 4.859375 -40.1875 L 18.734375 -40.1875 Z M 4.5 -50.1875 C 4.5 -52.269531 5.078125 -53.816406 6.234375 -54.828125 C 7.398438 -55.847656 9.269531 -56.359375 11.84375 -56.359375 C 14.425781 -56.359375 16.304688 -55.835938 17.484375 -54.796875 C 18.671875 -53.753906 19.265625 -52.21875 19.265625 -50.1875 C 19.265625 -46.125 16.789062 -44.09375 11.84375 -44.09375 C 6.945312 -44.09375 4.5 -46.125 4.5 -50.1875 Z M 4.5 -50.1875 "/></g></g></g><g fill="rgb(0%, 0%, 0%)" fill-opacity="1"><g transform="translate(258.117724, 230.238566)"><g><path d="M 43.171875 -20.1875 C 43.171875 -13.613281 41.398438 -8.488281 37.859375 -4.8125 C 34.328125 -1.132812 29.378906 0.703125 23.015625 0.703125 C 16.921875 0.703125 12.066406 -1.171875 8.453125 -4.921875 C 4.847656 -8.679688 3.046875 -13.769531 3.046875 -20.1875 C 3.046875 -26.726562 4.8125 -31.8125 8.34375 -35.4375 C 11.882812 -39.070312 16.847656 -40.890625 23.234375 -40.890625 C 27.179688 -40.890625 30.664062 -40.050781 33.6875 -38.375 C 36.71875 -36.695312 39.054688 -34.289062 40.703125 -31.15625 C 42.347656 -28.019531 43.171875 -24.363281 43.171875 -20.1875 Z M 17.125 -20.1875 C 17.125 -16.726562 17.582031 -14.09375 18.5 -12.28125 C 19.425781 -10.476562 20.976562 -9.578125 23.15625 -9.578125 C 25.3125 -9.578125 26.832031 -10.476562 27.71875 -12.28125 C 28.601562 -14.09375 29.046875 -16.726562 29.046875 -20.1875 C 29.046875 -23.613281 28.597656 -26.203125 27.703125 -27.953125 C 26.804688 -29.703125 25.269531 -30.578125 23.09375 -30.578125 C 20.957031 -30.578125 19.425781 -29.707031 18.5 -27.96875 C 17.582031 -26.226562 17.125 -23.632812 17.125 -20.1875 Z M 17.125 -20.1875 "/></g></g></g><g fill="rgb(0%, 0%, 0%)" fill-opacity="1"><g transform="translate(304.402668, 230.238566)"><g/></g></g><g fill="rgb(0%, 0%, 0%)" fill-opacity="1"><g transform="translate(187.496425, 303.738561)"><g/></g></g><g fill="rgb(0%, 0%, 0%)" fill-opacity="1"><g transform="translate(37.558596, 307.965126)"><g><path d="M 8.28125 0 L 3.4375 -12.65625 L 3.359375 -12.65625 C 3.453125 -11.65625 3.5 -10.460938 3.5 -9.078125 L 3.5 0 L 1.96875 0 L 1.96875 -14.28125 L 4.46875 -14.28125 L 8.984375 -2.5 L 9.0625 -2.5 L 13.625 -14.28125 L 16.109375 -14.28125 L 16.109375 0 L 14.4375 0 L 14.4375 -9.203125 C 14.4375 -10.253906 14.484375 -11.398438 14.578125 -12.640625 L 14.5 -12.640625 L 9.625 0 Z M 8.28125 0 "/></g></g></g><g fill="rgb(0%, 0%, 0%)" fill-opacity="1"><g transform="translate(55.608182, 307.965126)"><g><path d="M 8.296875 0 L 7.984375 -1.53125 L 7.90625 -1.53125 C 7.363281 -0.851562 6.828125 -0.394531 6.296875 -0.15625 C 5.773438 0.0820312 5.113281 0.203125 4.3125 0.203125 C 3.25 0.203125 2.414062 -0.0703125 1.8125 -0.625 C 1.21875 -1.175781 0.921875 -1.953125 0.921875 -2.953125 C 0.921875 -5.117188 2.648438 -6.253906 6.109375 -6.359375 L 7.921875 -6.421875 L 7.921875 -7.078125 C 7.921875 -7.921875 7.738281 -8.539062 7.375 -8.9375 C 7.019531 -9.34375 6.441406 -9.546875 5.640625 -9.546875 C 4.753906 -9.546875 3.75 -9.269531 2.625 -8.71875 L 2.125 -9.96875 C 2.644531 -10.25 3.21875 -10.46875 3.84375 -10.625 C 4.476562 -10.789062 5.113281 -10.875 5.75 -10.875 C 7.019531 -10.875 7.960938 -10.59375 8.578125 -10.03125 C 9.191406 -9.46875 9.5 -8.5625 9.5 -7.3125 L 9.5 0 Z M 4.640625 -1.140625 C 5.648438 -1.140625 6.441406 -1.414062 7.015625 -1.96875 C 7.585938 -2.519531 7.875 -3.296875 7.875 -4.296875 L 7.875 -5.265625 L 6.265625 -5.203125 C 4.972656 -5.148438 4.039062 -4.945312 3.46875 -4.59375 C 2.90625 -4.238281 2.625 -3.6875 2.625 -2.9375 C 2.625 -2.351562 2.800781 -1.90625 3.15625 -1.59375 C 3.507812 -1.289062 4.003906 -1.140625 4.640625 -1.140625 Z M 4.640625 -1.140625 "/></g></g></g><g fill="rgb(0%, 0%, 0%)" fill-opacity="1"><g transform="translate(66.726883, 307.965126)"><g><path d="M 3.328125 -5.484375 C 3.597656 -5.878906 4.019531 -6.398438 4.59375 -7.046875 L 8.0625 -10.703125 L 9.984375 -10.703125 L 5.640625 -6.140625 L 10.28125 0 L 8.328125 0 L 4.546875 -5.0625 L 3.328125 -4 L 3.328125 0 L 1.71875 0 L 1.71875 -15.203125 L 3.328125 -15.203125 L 3.328125 -7.140625 C 3.328125 -6.785156 3.300781 -6.234375 3.25 -5.484375 Z M 3.328125 -5.484375 "/></g></g></g><g fill="rgb(0%, 0%, 0%)" fill-opacity="1"><g transform="translate(77.220828, 307.965126)"><g><path d="M 3.34375 0 L 1.71875 0 L 1.71875 -10.703125 L 3.34375 -10.703125 Z M 1.578125 -13.609375 C 1.578125 -13.972656 1.664062 -14.238281 1.84375 -14.40625 C 2.03125 -14.582031 2.265625 -14.671875 2.546875 -14.671875 C 2.804688 -14.671875 3.03125 -14.582031 3.21875 -14.40625 C 3.40625 -14.238281 3.5 -13.972656 3.5 -13.609375 C 3.5 -13.242188 3.40625 -12.96875 3.21875 -12.78125 C 3.03125 -12.601562 2.804688 -12.515625 2.546875 -12.515625 C 2.265625 -12.515625 2.03125 -12.601562 1.84375 -12.78125 C 1.664062 -12.96875 1.578125 -13.242188 1.578125 -13.609375 Z M 1.578125 -13.609375 "/></g></g></g><g fill="rgb(0%, 0%, 0%)" fill-opacity="1"><g transform="translate(82.277446, 307.965126)"><g><path d="M 9.046875 0 L 9.046875 -6.921875 C 9.046875 -7.796875 8.847656 -8.445312 8.453125 -8.875 C 8.054688 -9.300781 7.429688 -9.515625 6.578125 -9.515625 C 5.460938 -9.515625 4.644531 -9.210938 4.125 -8.609375 C 3.601562 -8.003906 3.34375 -7.003906 3.34375 -5.609375 L 3.34375 0 L 1.71875 0 L 1.71875 -10.703125 L 3.03125 -10.703125 L 3.296875 -9.234375 L 3.375 -9.234375 C 3.707031 -9.765625 4.171875 -10.175781 4.765625 -10.46875 C 5.367188 -10.757812 6.039062 -10.90625 6.78125 -10.90625 C 8.070312 -10.90625 9.039062 -10.59375 9.6875 -9.96875 C 10.34375 -9.34375 10.671875 -8.347656 10.671875 -6.984375 L 10.671875 0 Z M 9.046875 0 "/></g></g></g><g fill="rgb(0%, 0%, 0%)" fill-opacity="1"><g transform="translate(94.54804, 307.965126)"><g><path d="M 10.484375 -10.703125 L 10.484375 -9.671875 L 8.5 -9.4375 C 8.675781 -9.21875 8.835938 -8.921875 8.984375 -8.546875 C 9.128906 -8.179688 9.203125 -7.769531 9.203125 -7.3125 C 9.203125 -6.257812 8.84375 -5.421875 8.125 -4.796875 C 7.40625 -4.171875 6.421875 -3.859375 5.171875 -3.859375 C 4.859375 -3.859375 4.5625 -3.882812 4.28125 -3.9375 C 3.59375 -3.570312 3.25 -3.113281 3.25 -2.5625 C 3.25 -2.269531 3.367188 -2.050781 3.609375 -1.90625 C 3.847656 -1.769531 4.257812 -1.703125 4.84375 -1.703125 L 6.734375 -1.703125 C 7.898438 -1.703125 8.789062 -1.457031 9.40625 -0.96875 C 10.03125 -0.476562 10.34375 0.226562 10.34375 1.15625 C 10.34375 2.34375 9.863281 3.25 8.90625 3.875 C 7.957031 4.5 6.570312 4.8125 4.75 4.8125 C 3.351562 4.8125 2.273438 4.550781 1.515625 4.03125 C 0.753906 3.507812 0.375 2.769531 0.375 1.8125 C 0.375 1.164062 0.582031 0.601562 1 0.125 C 1.414062 -0.351562 2.003906 -0.675781 2.765625 -0.84375 C 2.492188 -0.96875 2.265625 -1.160156 2.078125 -1.421875 C 1.890625 -1.679688 1.796875 -1.984375 1.796875 -2.328125 C 1.796875 -2.710938 1.898438 -3.050781 2.109375 -3.34375 C 2.316406 -3.644531 2.644531 -3.929688 3.09375 -4.203125 C 2.539062 -4.429688 2.085938 -4.816406 1.734375 -5.359375 C 1.390625 -5.910156 1.21875 -6.535156 1.21875 -7.234375 C 1.21875 -8.410156 1.566406 -9.316406 2.265625 -9.953125 C 2.972656 -10.585938 3.972656 -10.90625 5.265625 -10.90625 C 5.828125 -10.90625 6.332031 -10.835938 6.78125 -10.703125 Z M 1.9375 1.796875 C 1.9375 2.378906 2.179688 2.816406 2.671875 3.109375 C 3.160156 3.410156 3.863281 3.5625 4.78125 3.5625 C 6.132812 3.5625 7.140625 3.359375 7.796875 2.953125 C 8.453125 2.546875 8.78125 1.992188 8.78125 1.296875 C 8.78125 0.722656 8.597656 0.320312 8.234375 0.09375 C 7.878906 -0.132812 7.207031 -0.25 6.21875 -0.25 L 4.28125 -0.25 C 3.539062 -0.25 2.960938 -0.0703125 2.546875 0.28125 C 2.140625 0.632812 1.9375 1.140625 1.9375 1.796875 Z M 2.828125 -7.28125 C 2.828125 -6.53125 3.035156 -5.960938 3.453125 -5.578125 C 3.878906 -5.191406 4.46875 -5 5.21875 -5 C 6.800781 -5 7.59375 -5.769531 7.59375 -7.3125 C 7.59375 -8.914062 6.796875 -9.71875 5.203125 -9.71875 C 4.429688 -9.71875 3.84375 -9.507812 3.4375 -9.09375 C 3.03125 -8.6875 2.828125 -8.082031 2.828125 -7.28125 Z M 2.828125 -7.28125 "/></g></g></g><g fill="rgb(0%, 0%, 0%)" fill-opacity="1"><g transform="translate(105.500791, 307.965126)"><g/></g></g><g fill="rgb(0%, 0%, 0%)" fill-opacity="1"><g transform="translate(110.694074, 307.965126)"><g><path d="M 11.015625 -10.125 C 11.015625 -8.675781 10.519531 -7.5625 9.53125 -6.78125 C 8.550781 -6 7.140625 -5.609375 5.296875 -5.609375 L 3.625 -5.609375 L 3.625 0 L 1.96875 0 L 1.96875 -14.28125 L 5.671875 -14.28125 C 9.234375 -14.28125 11.015625 -12.894531 11.015625 -10.125 Z M 3.625 -7.046875 L 5.125 -7.046875 C 6.59375 -7.046875 7.65625 -7.28125 8.3125 -7.75 C 8.96875 -8.226562 9.296875 -8.992188 9.296875 -10.046875 C 9.296875 -10.984375 8.984375 -11.679688 8.359375 -12.140625 C 7.742188 -12.609375 6.785156 -12.84375 5.484375 -12.84375 L 3.625 -12.84375 Z M 3.625 -7.046875 "/></g></g></g><g fill="rgb(0%, 0%, 0%)" fill-opacity="1"><g transform="translate(122.730385, 307.965126)"><g><path d="M 9.046875 0 L 9.046875 -6.921875 C 9.046875 -7.796875 8.847656 -8.445312 8.453125 -8.875 C 8.054688 -9.300781 7.429688 -9.515625 6.578125 -9.515625 C 5.453125 -9.515625 4.628906 -9.207031 4.109375 -8.59375 C 3.597656 -7.988281 3.34375 -6.988281 3.34375 -5.59375 L 3.34375 0 L 1.71875 0 L 1.71875 -15.203125 L 3.34375 -15.203125 L 3.34375 -10.59375 C 3.34375 -10.039062 3.316406 -9.582031 3.265625 -9.21875 L 3.359375 -9.21875 C 3.679688 -9.726562 4.132812 -10.128906 4.71875 -10.421875 C 5.3125 -10.722656 5.984375 -10.875 6.734375 -10.875 C 8.046875 -10.875 9.03125 -10.5625 9.6875 -9.9375 C 10.34375 -9.320312 10.671875 -8.335938 10.671875 -6.984375 L 10.671875 0 Z M 9.046875 0 "/></g></g></g><g fill="rgb(0%, 0%, 0%)" fill-opacity="1"><g transform="translate(135.00098, 307.965126)"><g><path d="M 0.015625 -10.703125 L 1.765625 -10.703125 L 4.109375 -4.59375 C 4.617188 -3.207031 4.9375 -2.203125 5.0625 -1.578125 L 5.140625 -1.578125 C 5.222656 -1.910156 5.398438 -2.476562 5.671875 -3.28125 C 5.941406 -4.09375 6.828125 -6.566406 8.328125 -10.703125 L 10.0625 -10.703125 L 5.453125 1.484375 C 5.003906 2.691406 4.472656 3.546875 3.859375 4.046875 C 3.253906 4.554688 2.507812 4.8125 1.625 4.8125 C 1.125 4.8125 0.632812 4.753906 0.15625 4.640625 L 0.15625 3.34375 C 0.507812 3.414062 0.910156 3.453125 1.359375 3.453125 C 2.472656 3.453125 3.265625 2.828125 3.734375 1.578125 L 4.34375 0.0625 Z M 0.015625 -10.703125 "/></g></g></g><g fill="rgb(0%, 0%, 0%)" fill-opacity="1"><g transform="translate(145.075167, 307.965126)"><g><path d="M 8.625 -2.921875 C 8.625 -1.921875 8.25 -1.148438 7.5 -0.609375 C 6.757812 -0.0664062 5.722656 0.203125 4.390625 0.203125 C 2.960938 0.203125 1.851562 -0.0234375 1.0625 -0.484375 L 1.0625 -1.984375 C 1.582031 -1.722656 2.132812 -1.515625 2.71875 -1.359375 C 3.3125 -1.210938 3.878906 -1.140625 4.421875 -1.140625 C 5.265625 -1.140625 5.914062 -1.273438 6.375 -1.546875 C 6.832031 -1.816406 7.0625 -2.226562 7.0625 -2.78125 C 7.0625 -3.195312 6.878906 -3.550781 6.515625 -3.84375 C 6.160156 -4.144531 5.457031 -4.5 4.40625 -4.90625 C 3.40625 -5.269531 2.695312 -5.59375 2.28125 -5.875 C 1.863281 -6.15625 1.550781 -6.46875 1.34375 -6.8125 C 1.132812 -7.164062 1.03125 -7.585938 1.03125 -8.078125 C 1.03125 -8.953125 1.382812 -9.640625 2.09375 -10.140625 C 2.8125 -10.648438 3.785156 -10.90625 5.015625 -10.90625 C 6.171875 -10.90625 7.300781 -10.671875 8.40625 -10.203125 L 7.828125 -8.875 C 6.753906 -9.320312 5.78125 -9.546875 4.90625 -9.546875 C 4.132812 -9.546875 3.550781 -9.421875 3.15625 -9.171875 C 2.769531 -8.929688 2.578125 -8.601562 2.578125 -8.1875 C 2.578125 -7.894531 2.648438 -7.648438 2.796875 -7.453125 C 2.941406 -7.253906 3.175781 -7.0625 3.5 -6.875 C 3.832031 -6.695312 4.457031 -6.429688 5.375 -6.078125 C 6.644531 -5.617188 7.503906 -5.15625 7.953125 -4.6875 C 8.398438 -4.21875 8.625 -3.628906 8.625 -2.921875 Z M 8.625 -2.921875 "/></g></g></g><g fill="rgb(0%, 0%, 0%)" fill-opacity="1"><g transform="translate(154.612455, 307.965126)"><g><path d="M 3.34375 0 L 1.71875 0 L 1.71875 -10.703125 L 3.34375 -10.703125 Z M 1.578125 -13.609375 C 1.578125 -13.972656 1.664062 -14.238281 1.84375 -14.40625 C 2.03125 -14.582031 2.265625 -14.671875 2.546875 -14.671875 C 2.804688 -14.671875 3.03125 -14.582031 3.21875 -14.40625 C 3.40625 -14.238281 3.5 -13.972656 3.5 -13.609375 C 3.5 -13.242188 3.40625 -12.96875 3.21875 -12.78125 C 3.03125 -12.601562 2.804688 -12.515625 2.546875 -12.515625 C 2.265625 -12.515625 2.03125 -12.601562 1.84375 -12.78125 C 1.664062 -12.96875 1.578125 -13.242188 1.578125 -13.609375 Z M 1.578125 -13.609375 "/></g></g></g><g fill="rgb(0%, 0%, 0%)" fill-opacity="1"><g transform="translate(159.669073, 307.965126)"><g><path d="M 10.953125 -5.359375 C 10.953125 -3.617188 10.515625 -2.253906 9.640625 -1.265625 C 8.765625 -0.285156 7.550781 0.203125 6 0.203125 C 5.039062 0.203125 4.1875 -0.0195312 3.4375 -0.46875 C 2.695312 -0.925781 2.125 -1.570312 1.71875 -2.40625 C 1.320312 -3.25 1.125 -4.234375 1.125 -5.359375 C 1.125 -7.109375 1.554688 -8.46875 2.421875 -9.4375 C 3.296875 -10.414062 4.507812 -10.90625 6.0625 -10.90625 C 7.5625 -10.90625 8.75 -10.40625 9.625 -9.40625 C 10.507812 -8.40625 10.953125 -7.054688 10.953125 -5.359375 Z M 2.796875 -5.359375 C 2.796875 -3.992188 3.066406 -2.953125 3.609375 -2.234375 C 4.160156 -1.515625 4.96875 -1.15625 6.03125 -1.15625 C 7.09375 -1.15625 7.898438 -1.507812 8.453125 -2.21875 C 9.003906 -2.9375 9.28125 -3.984375 9.28125 -5.359375 C 9.28125 -6.722656 9.003906 -7.753906 8.453125 -8.453125 C 7.898438 -9.160156 7.085938 -9.515625 6.015625 -9.515625 C 4.953125 -9.515625 4.148438 -9.164062 3.609375 -8.46875 C 3.066406 -7.78125 2.796875 -6.742188 2.796875 -5.359375 Z M 2.796875 -5.359375 "/></g></g></g><g fill="rgb(0%, 0%, 0%)" fill-opacity="1"><g transform="translate(171.744431, 307.965126)"><g><path d="M 5.171875 -1.140625 C 5.460938 -1.140625 5.738281 -1.160156 6 -1.203125 C 6.269531 -1.242188 6.484375 -1.289062 6.640625 -1.34375 L 6.640625 -0.09375 C 6.460938 -0.0078125 6.203125 0.0546875 5.859375 0.109375 C 5.523438 0.171875 5.21875 0.203125 4.9375 0.203125 C 2.875 0.203125 1.84375 -0.890625 1.84375 -3.078125 L 1.84375 -9.4375 L 0.296875 -9.4375 L 0.296875 -10.21875 L 1.84375 -10.90625 L 2.515625 -13.1875 L 3.453125 -13.1875 L 3.453125 -10.703125 L 6.5625 -10.703125 L 6.5625 -9.4375 L 3.453125 -9.4375 L 3.453125 -3.140625 C 3.453125 -2.492188 3.601562 -2 3.90625 -1.65625 C 4.21875 -1.3125 4.640625 -1.140625 5.171875 -1.140625 Z M 5.171875 -1.140625 "/></g></g></g><g fill="rgb(0%, 0%, 0%)" fill-opacity="1"><g transform="translate(178.80222, 307.965126)"><g><path d="M 9.046875 0 L 9.046875 -6.921875 C 9.046875 -7.796875 8.847656 -8.445312 8.453125 -8.875 C 8.054688 -9.300781 7.429688 -9.515625 6.578125 -9.515625 C 5.453125 -9.515625 4.628906 -9.207031 4.109375 -8.59375 C 3.597656 -7.988281 3.34375 -6.988281 3.34375 -5.59375 L 3.34375 0 L 1.71875 0 L 1.71875 -15.203125 L 3.34375 -15.203125 L 3.34375 -10.59375 C 3.34375 -10.039062 3.316406 -9.582031 3.265625 -9.21875 L 3.359375 -9.21875 C 3.679688 -9.726562 4.132812 -10.128906 4.71875 -10.421875 C 5.3125 -10.722656 5.984375 -10.875 6.734375 -10.875 C 8.046875 -10.875 9.03125 -10.5625 9.6875 -9.9375 C 10.34375 -9.320312 10.671875 -8.335938 10.671875 -6.984375 L 10.671875 0 Z M 9.046875 0 "/></g></g></g><g fill="rgb(0%, 0%, 0%)" fill-opacity="1"><g transform="translate(191.072814, 307.965126)"><g><path d="M 6.234375 0.203125 C 4.660156 0.203125 3.414062 -0.28125 2.5 -1.25 C 1.582031 -2.21875 1.125 -3.554688 1.125 -5.265625 C 1.125 -6.992188 1.546875 -8.363281 2.390625 -9.375 C 3.242188 -10.394531 4.390625 -10.90625 5.828125 -10.90625 C 7.160156 -10.90625 8.21875 -10.460938 9 -9.578125 C 9.78125 -8.691406 10.171875 -7.523438 10.171875 -6.078125 L 10.171875 -5.0625 L 2.796875 -5.0625 C 2.835938 -3.800781 3.15625 -2.84375 3.75 -2.1875 C 4.351562 -1.539062 5.203125 -1.21875 6.296875 -1.21875 C 7.453125 -1.21875 8.59375 -1.457031 9.71875 -1.9375 L 9.71875 -0.5 C 9.144531 -0.25 8.601562 -0.0703125 8.09375 0.03125 C 7.582031 0.144531 6.960938 0.203125 6.234375 0.203125 Z M 5.796875 -9.546875 C 4.941406 -9.546875 4.257812 -9.265625 3.75 -8.703125 C 3.238281 -8.140625 2.9375 -7.363281 2.84375 -6.375 L 8.4375 -6.375 C 8.4375 -7.394531 8.207031 -8.175781 7.75 -8.71875 C 7.300781 -9.269531 6.648438 -9.546875 5.796875 -9.546875 Z M 5.796875 -9.546875 "/></g></g></g><g fill="rgb(0%, 0%, 0%)" fill-opacity="1"><g transform="translate(202.289134, 307.965126)"><g><path d="M 6.609375 -10.90625 C 7.078125 -10.90625 7.5 -10.863281 7.875 -10.78125 L 7.65625 -9.28125 C 7.21875 -9.375 6.828125 -9.421875 6.484375 -9.421875 C 5.617188 -9.421875 4.878906 -9.066406 4.265625 -8.359375 C 3.648438 -7.660156 3.34375 -6.789062 3.34375 -5.75 L 3.34375 0 L 1.71875 0 L 1.71875 -10.703125 L 3.0625 -10.703125 L 3.25 -8.71875 L 3.328125 -8.71875 C 3.722656 -9.414062 4.195312 -9.953125 4.75 -10.328125 C 5.3125 -10.710938 5.929688 -10.90625 6.609375 -10.90625 Z M 6.609375 -10.90625 "/></g></g></g><g fill="rgb(0%, 0%, 0%)" fill-opacity="1"><g transform="translate(210.450007, 307.965126)"><g><path d="M 8.296875 0 L 7.984375 -1.53125 L 7.90625 -1.53125 C 7.363281 -0.851562 6.828125 -0.394531 6.296875 -0.15625 C 5.773438 0.0820312 5.113281 0.203125 4.3125 0.203125 C 3.25 0.203125 2.414062 -0.0703125 1.8125 -0.625 C 1.21875 -1.175781 0.921875 -1.953125 0.921875 -2.953125 C 0.921875 -5.117188 2.648438 -6.253906 6.109375 -6.359375 L 7.921875 -6.421875 L 7.921875 -7.078125 C 7.921875 -7.921875 7.738281 -8.539062 7.375 -8.9375 C 7.019531 -9.34375 6.441406 -9.546875 5.640625 -9.546875 C 4.753906 -9.546875 3.75 -9.269531 2.625 -8.71875 L 2.125 -9.96875 C 2.644531 -10.25 3.21875 -10.46875 3.84375 -10.625 C 4.476562 -10.789062 5.113281 -10.875 5.75 -10.875 C 7.019531 -10.875 7.960938 -10.59375 8.578125 -10.03125 C 9.191406 -9.46875 9.5 -8.5625 9.5 -7.3125 L 9.5 0 Z M 4.640625 -1.140625 C 5.648438 -1.140625 6.441406 -1.414062 7.015625 -1.96875 C 7.585938 -2.519531 7.875 -3.296875 7.875 -4.296875 L 7.875 -5.265625 L 6.265625 -5.203125 C 4.972656 -5.148438 4.039062 -4.945312 3.46875 -4.59375 C 2.90625 -4.238281 2.625 -3.6875 2.625 -2.9375 C 2.625 -2.351562 2.800781 -1.90625 3.15625 -1.59375 C 3.507812 -1.289062 4.003906 -1.140625 4.640625 -1.140625 Z M 4.640625 -1.140625 "/></g></g></g><g fill="rgb(0%, 0%, 0%)" fill-opacity="1"><g transform="translate(221.568708, 307.965126)"><g><path d="M 6.703125 0.203125 C 6.003906 0.203125 5.363281 0.0703125 4.78125 -0.1875 C 4.207031 -0.445312 3.726562 -0.84375 3.34375 -1.375 L 3.21875 -1.375 C 3.300781 -0.75 3.34375 -0.15625 3.34375 0.40625 L 3.34375 4.8125 L 1.71875 4.8125 L 1.71875 -10.703125 L 3.03125 -10.703125 L 3.265625 -9.234375 L 3.34375 -9.234375 C 3.757812 -9.828125 4.242188 -10.253906 4.796875 -10.515625 C 5.347656 -10.773438 5.984375 -10.90625 6.703125 -10.90625 C 8.117188 -10.90625 9.210938 -10.414062 9.984375 -9.4375 C 10.753906 -8.46875 11.140625 -7.109375 11.140625 -5.359375 C 11.140625 -3.597656 10.75 -2.226562 9.96875 -1.25 C 9.1875 -0.28125 8.097656 0.203125 6.703125 0.203125 Z M 6.46875 -9.515625 C 5.375 -9.515625 4.582031 -9.210938 4.09375 -8.609375 C 3.601562 -8.003906 3.351562 -7.039062 3.34375 -5.71875 L 3.34375 -5.359375 C 3.34375 -3.859375 3.59375 -2.78125 4.09375 -2.125 C 4.59375 -1.476562 5.394531 -1.15625 6.5 -1.15625 C 7.425781 -1.15625 8.148438 -1.53125 8.671875 -2.28125 C 9.203125 -3.03125 9.46875 -4.0625 9.46875 -5.375 C 9.46875 -6.71875 9.203125 -7.742188 8.671875 -8.453125 C 8.148438 -9.160156 7.414062 -9.515625 6.46875 -9.515625 Z M 6.46875 -9.515625 "/></g></g></g><g fill="rgb(0%, 0%, 0%)" fill-opacity="1"><g transform="translate(233.819767, 307.965126)"><g><path d="M 0.015625 -10.703125 L 1.765625 -10.703125 L 4.109375 -4.59375 C 4.617188 -3.207031 4.9375 -2.203125 5.0625 -1.578125 L 5.140625 -1.578125 C 5.222656 -1.910156 5.398438 -2.476562 5.671875 -3.28125 C 5.941406 -4.09375 6.828125 -6.566406 8.328125 -10.703125 L 10.0625 -10.703125 L 5.453125 1.484375 C 5.003906 2.691406 4.472656 3.546875 3.859375 4.046875 C 3.253906 4.554688 2.507812 4.8125 1.625 4.8125 C 1.125 4.8125 0.632812 4.753906 0.15625 4.640625 L 0.15625 3.34375 C 0.507812 3.414062 0.910156 3.453125 1.359375 3.453125 C 2.472656 3.453125 3.265625 2.828125 3.734375 1.578125 L 4.34375 0.0625 Z M 0.015625 -10.703125 "/></g></g></g><g fill="rgb(0%, 0%, 0%)" fill-opacity="1"><g transform="translate(243.893955, 307.965126)"><g/></g></g><g fill="rgb(0%, 0%, 0%)" fill-opacity="1"><g transform="translate(249.087238, 307.965126)"><g><path d="M 10.9375 0 L 9.15625 -4.546875 L 3.4375 -4.546875 L 1.6875 0 L 0 0 L 5.640625 -14.34375 L 7.046875 -14.34375 L 12.65625 0 Z M 8.640625 -6.03125 L 6.984375 -10.453125 C 6.765625 -11.015625 6.539062 -11.703125 6.3125 -12.515625 C 6.175781 -11.890625 5.972656 -11.203125 5.703125 -10.453125 L 4.03125 -6.03125 Z M 8.640625 -6.03125 "/></g></g></g><g fill="rgb(0%, 0%, 0%)" fill-opacity="1"><g transform="translate(261.738543, 307.965126)"><g><path d="M 6 0.203125 C 4.445312 0.203125 3.242188 -0.273438 2.390625 -1.234375 C 1.546875 -2.191406 1.125 -3.539062 1.125 -5.28125 C 1.125 -7.070312 1.554688 -8.457031 2.421875 -9.4375 C 3.285156 -10.414062 4.515625 -10.90625 6.109375 -10.90625 C 6.617188 -10.90625 7.128906 -10.847656 7.640625 -10.734375 C 8.160156 -10.617188 8.566406 -10.488281 8.859375 -10.34375 L 8.359375 -8.96875 C 8.003906 -9.113281 7.613281 -9.234375 7.1875 -9.328125 C 6.757812 -9.421875 6.382812 -9.46875 6.0625 -9.46875 C 3.882812 -9.46875 2.796875 -8.078125 2.796875 -5.296875 C 2.796875 -3.984375 3.0625 -2.972656 3.59375 -2.265625 C 4.125 -1.566406 4.910156 -1.21875 5.953125 -1.21875 C 6.847656 -1.21875 7.765625 -1.410156 8.703125 -1.796875 L 8.703125 -0.359375 C 7.984375 0.015625 7.082031 0.203125 6 0.203125 Z M 6 0.203125 "/></g></g></g><g fill="rgb(0%, 0%, 0%)" fill-opacity="1"><g transform="translate(271.256319, 307.965126)"><g><path d="M 6 0.203125 C 4.445312 0.203125 3.242188 -0.273438 2.390625 -1.234375 C 1.546875 -2.191406 1.125 -3.539062 1.125 -5.28125 C 1.125 -7.070312 1.554688 -8.457031 2.421875 -9.4375 C 3.285156 -10.414062 4.515625 -10.90625 6.109375 -10.90625 C 6.617188 -10.90625 7.128906 -10.847656 7.640625 -10.734375 C 8.160156 -10.617188 8.566406 -10.488281 8.859375 -10.34375 L 8.359375 -8.96875 C 8.003906 -9.113281 7.613281 -9.234375 7.1875 -9.328125 C 6.757812 -9.421875 6.382812 -9.46875 6.0625 -9.46875 C 3.882812 -9.46875 2.796875 -8.078125 2.796875 -5.296875 C 2.796875 -3.984375 3.0625 -2.972656 3.59375 -2.265625 C 4.125 -1.566406 4.910156 -1.21875 5.953125 -1.21875 C 6.847656 -1.21875 7.765625 -1.410156 8.703125 -1.796875 L 8.703125 -0.359375 C 7.984375 0.015625 7.082031 0.203125 6 0.203125 Z M 6 0.203125 "/></g></g></g><g fill="rgb(0%, 0%, 0%)" fill-opacity="1"><g transform="translate(280.774095, 307.965126)"><g><path d="M 6.234375 0.203125 C 4.660156 0.203125 3.414062 -0.28125 2.5 -1.25 C 1.582031 -2.21875 1.125 -3.554688 1.125 -5.265625 C 1.125 -6.992188 1.546875 -8.363281 2.390625 -9.375 C 3.242188 -10.394531 4.390625 -10.90625 5.828125 -10.90625 C 7.160156 -10.90625 8.21875 -10.460938 9 -9.578125 C 9.78125 -8.691406 10.171875 -7.523438 10.171875 -6.078125 L 10.171875 -5.0625 L 2.796875 -5.0625 C 2.835938 -3.800781 3.15625 -2.84375 3.75 -2.1875 C 4.351562 -1.539062 5.203125 -1.21875 6.296875 -1.21875 C 7.453125 -1.21875 8.59375 -1.457031 9.71875 -1.9375 L 9.71875 -0.5 C 9.144531 -0.25 8.601562 -0.0703125 8.09375 0.03125 C 7.582031 0.144531 6.960938 0.203125 6.234375 0.203125 Z M 5.796875 -9.546875 C 4.941406 -9.546875 4.257812 -9.265625 3.75 -8.703125 C 3.238281 -8.140625 2.9375 -7.363281 2.84375 -6.375 L 8.4375 -6.375 C 8.4375 -7.394531 8.207031 -8.175781 7.75 -8.71875 C 7.300781 -9.269531 6.648438 -9.546875 5.796875 -9.546875 Z M 5.796875 -9.546875 "/></g></g></g><g fill="rgb(0%, 0%, 0%)" fill-opacity="1"><g transform="translate(291.990402, 307.965126)"><g><path d="M 8.625 -2.921875 C 8.625 -1.921875 8.25 -1.148438 7.5 -0.609375 C 6.757812 -0.0664062 5.722656 0.203125 4.390625 0.203125 C 2.960938 0.203125 1.851562 -0.0234375 1.0625 -0.484375 L 1.0625 -1.984375 C 1.582031 -1.722656 2.132812 -1.515625 2.71875 -1.359375 C 3.3125 -1.210938 3.878906 -1.140625 4.421875 -1.140625 C 5.265625 -1.140625 5.914062 -1.273438 6.375 -1.546875 C 6.832031 -1.816406 7.0625 -2.226562 7.0625 -2.78125 C 7.0625 -3.195312 6.878906 -3.550781 6.515625 -3.84375 C 6.160156 -4.144531 5.457031 -4.5 4.40625 -4.90625 C 3.40625 -5.269531 2.695312 -5.59375 2.28125 -5.875 C 1.863281 -6.15625 1.550781 -6.46875 1.34375 -6.8125 C 1.132812 -7.164062 1.03125 -7.585938 1.03125 -8.078125 C 1.03125 -8.953125 1.382812 -9.640625 2.09375 -10.140625 C 2.8125 -10.648438 3.785156 -10.90625 5.015625 -10.90625 C 6.171875 -10.90625 7.300781 -10.671875 8.40625 -10.203125 L 7.828125 -8.875 C 6.753906 -9.320312 5.78125 -9.546875 4.90625 -9.546875 C 4.132812 -9.546875 3.550781 -9.421875 3.15625 -9.171875 C 2.769531 -8.929688 2.578125 -8.601562 2.578125 -8.1875 C 2.578125 -7.894531 2.648438 -7.648438 2.796875 -7.453125 C 2.941406 -7.253906 3.175781 -7.0625 3.5 -6.875 C 3.832031 -6.695312 4.457031 -6.429688 5.375 -6.078125 C 6.644531 -5.617188 7.503906 -5.15625 7.953125 -4.6875 C 8.398438 -4.21875 8.625 -3.628906 8.625 -2.921875 Z M 8.625 -2.921875 "/></g></g></g><g fill="rgb(0%, 0%, 0%)" fill-opacity="1"><g transform="translate(301.527679, 307.965126)"><g><path d="M 8.625 -2.921875 C 8.625 -1.921875 8.25 -1.148438 7.5 -0.609375 C 6.757812 -0.0664062 5.722656 0.203125 4.390625 0.203125 C 2.960938 0.203125 1.851562 -0.0234375 1.0625 -0.484375 L 1.0625 -1.984375 C 1.582031 -1.722656 2.132812 -1.515625 2.71875 -1.359375 C 3.3125 -1.210938 3.878906 -1.140625 4.421875 -1.140625 C 5.265625 -1.140625 5.914062 -1.273438 6.375 -1.546875 C 6.832031 -1.816406 7.0625 -2.226562 7.0625 -2.78125 C 7.0625 -3.195312 6.878906 -3.550781 6.515625 -3.84375 C 6.160156 -4.144531 5.457031 -4.5 4.40625 -4.90625 C 3.40625 -5.269531 2.695312 -5.59375 2.28125 -5.875 C 1.863281 -6.15625 1.550781 -6.46875 1.34375 -6.8125 C 1.132812 -7.164062 1.03125 -7.585938 1.03125 -8.078125 C 1.03125 -8.953125 1.382812 -9.640625 2.09375 -10.140625 C 2.8125 -10.648438 3.785156 -10.90625 5.015625 -10.90625 C 6.171875 -10.90625 7.300781 -10.671875 8.40625 -10.203125 L 7.828125 -8.875 C 6.753906 -9.320312 5.78125 -9.546875 4.90625 -9.546875 C 4.132812 -9.546875 3.550781 -9.421875 3.15625 -9.171875 C 2.769531 -8.929688 2.578125 -8.601562 2.578125 -8.1875 C 2.578125 -7.894531 2.648438 -7.648438 2.796875 -7.453125 C 2.941406 -7.253906 3.175781 -7.0625 3.5 -6.875 C 3.832031 -6.695312 4.457031 -6.429688 5.375 -6.078125 C 6.644531 -5.617188 7.503906 -5.15625 7.953125 -4.6875 C 8.398438 -4.21875 8.625 -3.628906 8.625 -2.921875 Z M 8.625 -2.921875 "/></g></g></g><g fill="rgb(0%, 0%, 0%)" fill-opacity="1"><g transform="translate(311.064956, 307.965126)"><g><path d="M 3.34375 0 L 1.71875 0 L 1.71875 -10.703125 L 3.34375 -10.703125 Z M 1.578125 -13.609375 C 1.578125 -13.972656 1.664062 -14.238281 1.84375 -14.40625 C 2.03125 -14.582031 2.265625 -14.671875 2.546875 -14.671875 C 2.804688 -14.671875 3.03125 -14.582031 3.21875 -14.40625 C 3.40625 -14.238281 3.5 -13.972656 3.5 -13.609375 C 3.5 -13.242188 3.40625 -12.96875 3.21875 -12.78125 C 3.03125 -12.601562 2.804688 -12.515625 2.546875 -12.515625 C 2.265625 -12.515625 2.03125 -12.601562 1.84375 -12.78125 C 1.664062 -12.96875 1.578125 -13.242188 1.578125 -13.609375 Z M 1.578125 -13.609375 "/></g></g></g><g fill="rgb(0%, 0%, 0%)" fill-opacity="1"><g transform="translate(316.121573, 307.965126)"><g><path d="M 6.703125 -10.875 C 8.109375 -10.875 9.195312 -10.394531 9.96875 -9.4375 C 10.75 -8.476562 11.140625 -7.117188 11.140625 -5.359375 C 11.140625 -3.597656 10.75 -2.226562 9.96875 -1.25 C 9.1875 -0.28125 8.097656 0.203125 6.703125 0.203125 C 6.003906 0.203125 5.363281 0.0703125 4.78125 -0.1875 C 4.207031 -0.445312 3.726562 -0.84375 3.34375 -1.375 L 3.21875 -1.375 L 2.875 0 L 1.71875 0 L 1.71875 -15.203125 L 3.34375 -15.203125 L 3.34375 -11.5 C 3.34375 -10.675781 3.316406 -9.9375 3.265625 -9.28125 L 3.34375 -9.28125 C 4.09375 -10.34375 5.210938 -10.875 6.703125 -10.875 Z M 6.46875 -9.515625 C 5.363281 -9.515625 4.566406 -9.195312 4.078125 -8.5625 C 3.585938 -7.9375 3.34375 -6.867188 3.34375 -5.359375 C 3.34375 -3.859375 3.59375 -2.78125 4.09375 -2.125 C 4.59375 -1.476562 5.394531 -1.15625 6.5 -1.15625 C 7.5 -1.15625 8.242188 -1.519531 8.734375 -2.25 C 9.222656 -2.976562 9.46875 -4.019531 9.46875 -5.375 C 9.46875 -6.769531 9.222656 -7.804688 8.734375 -8.484375 C 8.242188 -9.171875 7.488281 -9.515625 6.46875 -9.515625 Z M 6.46875 -9.515625 "/></g></g></g><g fill="rgb(0%, 0%, 0%)" fill-opacity="1"><g transform="translate(328.372633, 307.965126)"><g><path d="M 3.34375 0 L 1.71875 0 L 1.71875 -15.203125 L 3.34375 -15.203125 Z M 3.34375 0 "/></g></g></g><g fill="rgb(0%, 0%, 0%)" fill-opacity="1"><g transform="translate(333.42925, 307.965126)"><g><path d="M 6.234375 0.203125 C 4.660156 0.203125 3.414062 -0.28125 2.5 -1.25 C 1.582031 -2.21875 1.125 -3.554688 1.125 -5.265625 C 1.125 -6.992188 1.546875 -8.363281 2.390625 -9.375 C 3.242188 -10.394531 4.390625 -10.90625 5.828125 -10.90625 C 7.160156 -10.90625 8.21875 -10.460938 9 -9.578125 C 9.78125 -8.691406 10.171875 -7.523438 10.171875 -6.078125 L 10.171875 -5.0625 L 2.796875 -5.0625 C 2.835938 -3.800781 3.15625 -2.84375 3.75 -2.1875 C 4.351562 -1.539062 5.203125 -1.21875 6.296875 -1.21875 C 7.453125 -1.21875 8.59375 -1.457031 9.71875 -1.9375 L 9.71875 -0.5 C 9.144531 -0.25 8.601562 -0.0703125 8.09375 0.03125 C 7.582031 0.144531 6.960938 0.203125 6.234375 0.203125 Z M 5.796875 -9.546875 C 4.941406 -9.546875 4.257812 -9.265625 3.75 -8.703125 C 3.238281 -8.140625 2.9375 -7.363281 2.84375 -6.375 L 8.4375 -6.375 C 8.4375 -7.394531 8.207031 -8.175781 7.75 -8.71875 C 7.300781 -9.269531 6.648438 -9.546875 5.796875 -9.546875 Z M 5.796875 -9.546875 "/></g></g></g><g fill="rgb(0%, 0%, 0%)" fill-opacity="1"><g transform="translate(344.636704, 307.965126)"><g/></g></g></svg>