<svg xmlns="http://www.w3.org/2000/svg" xmlns:xlink="http://www.w3.org/1999/xlink" width="350" zoomAndPan="magnify" viewBox="0 0 262.5 187.499995" height="250" preserveAspectRatio="xMidYMid meet" version="1.0"><defs><g><g id="id1"/></g><clipPath id="id2"><path d="M 0.101562 0 L 261.902344 0 L 261.902344 187 L 0.101562 187 Z M 0.101562 0 " clip-rule="nonzero"/></clipPath></defs><g clip-path="url(#id2)"><path fill="rgb(100%, 100%, 100%)" d="M 0.101562 0 L 262.398438 0 L 262.398438 194.101562 L 0.101562 194.101562 Z M 0.101562 0 " fill-opacity="1" fill-rule="nonzero"/><path fill="rgb(100%, 100%, 100%)" d="M 0.101562 0 L 262.398438 0 L 262.398438 187.359375 L 0.101562 187.359375 Z M 0.101562 0 " fill-opacity="1" fill-rule="nonzero"/><path fill="rgb(100%, 8.628845%, 8.628845%)" d="M 0.101562 0 L 262.398438 0 L 262.398438 187.359375 L 0.101562 187.359375 Z M 0.101562 0 " fill-opacity="1" fill-rule="nonzero"/></g><path fill="rgb(100%, 100%, 100%)" d="M 236.90625 18.722656 C 240.476562 18.722656 243.410156 21.652344 243.410156 25.21875 L 243.410156 144.894531 C 243.410156 148.460938 240.476562 151.390625 236.90625 151.390625 L 25.824219 151.390625 C 22.253906 151.390625 19.320312 148.460938 19.320312 144.894531 L 19.320312 25.21875 C 19.320312 21.652344 22.253906 18.722656 25.824219 18.722656 L 236.90625 18.722656 M 236.90625 12.738281 L 25.824219 12.738281 C 18.941406 12.738281 13.332031 18.339844 13.332031 25.21875 L 13.332031 144.894531 C 13.332031 151.773438 18.941406 157.375 25.824219 157.375 L 236.90625 157.375 C 243.792969 157.375 249.398438 151.773438 249.398438 144.894531 L 249.398438 25.21875 C 249.398438 18.339844 243.792969 12.738281 236.90625 12.738281 " fill-opacity="1" fill-rule="nonzero"/><g fill="rgb(100%, 100%, 100%)" fill-opacity="1"><g transform="translate(25.305753, 72.728287)"><g><path d="M 30.402344 -38.546875 L 30.402344 -43.59375 L 6.84375 -43.59375 L 6.84375 0 L 12.507812 0 L 12.507812 -19.289062 L 28.113281 -19.289062 L 28.113281 -24.304688 L 12.507812 -24.304688 L 12.507812 -38.546875 Z M 30.402344 -38.546875 "/></g></g></g><g fill="rgb(100%, 100%, 100%)" fill-opacity="1"><g transform="translate(61.513826, 72.728287)"><g><path d="M 18.265625 0.621094 C 27.027344 0.621094 33.59375 -5.480469 33.59375 -15.234375 C 33.59375 -24.921875 27.058594 -31.054688 18.265625 -31.054688 C 9.503906 -31.054688 2.941406 -24.921875 2.941406 -15.234375 C 2.941406 -5.480469 9.597656 0.621094 18.265625 0.621094 Z M 18.234375 -3.871094 C 12.601562 -3.871094 8.265625 -8.328125 8.265625 -15.234375 C 8.265625 -22.105469 12.601562 -26.5625 18.234375 -26.5625 C 23.933594 -26.5625 28.296875 -22.105469 28.296875 -15.234375 C 28.296875 -8.328125 23.933594 -3.871094 18.234375 -3.871094 Z M 18.234375 -3.871094 "/></g></g></g><g fill="rgb(100%, 100%, 100%)" fill-opacity="1"><g transform="translate(101.344248, 72.728287)"><g><path d="M 10.742188 -25.234375 L 10.621094 -30.433594 L 5.449219 -30.433594 L 5.449219 0 L 10.804688 0 L 10.804688 -16.253906 C 10.804688 -23.097656 14.367188 -25.726562 20.308594 -25.726562 L 20.308594 -30.773438 C 16.039062 -30.714844 12.324219 -28.484375 10.742188 -25.234375 Z M 10.742188 -25.234375 "/></g></g></g><g fill="rgb(100%, 100%, 100%)" fill-opacity="1"><g transform="translate(125.756446, 72.728287)"><g><path d="M 36.566406 -31.023438 C 32.695312 -31.023438 29.535156 -29.289062 27.710938 -26.039062 C 26.191406 -29.320312 23.003906 -31.023438 19.132812 -31.023438 C 15.511719 -31.023438 12.570312 -29.382812 10.804688 -26.503906 L 10.804688 -30.433594 L 5.449219 -30.433594 L 5.449219 0 L 10.804688 0 L 10.804688 -18.636719 C 10.804688 -24.148438 13.652344 -26.503906 17.214844 -26.503906 C 20.527344 -26.503906 23.21875 -24.367188 23.21875 -19.566406 L 23.21875 0 L 28.667969 0 L 28.667969 -18.824219 C 28.667969 -24.148438 31.425781 -26.503906 35.078125 -26.503906 C 38.269531 -26.503906 40.992188 -24.460938 40.992188 -19.785156 L 40.992188 0 L 46.347656 0 L 46.347656 -21.175781 C 46.347656 -27.585938 42.261719 -31.023438 36.566406 -31.023438 Z M 36.566406 -31.023438 "/></g></g></g><g fill="rgb(100%, 100%, 100%)" fill-opacity="1"><g transform="translate(25.305753, 128.754982)"><g><path d="M 31.269531 -40.992188 C 28.730469 -42.757812 25.140625 -43.59375 20.25 -43.59375 L 6.84375 -43.59375 L 6.84375 0 L 12.382812 0 L 12.382812 -16.9375 L 20.25 -16.9375 C 25.296875 -16.9375 28.980469 -17.988281 31.519531 -20.1875 C 34.492188 -22.476562 35.945312 -26.222656 35.945312 -30.929688 C 35.945312 -35.636719 34.398438 -38.980469 31.269531 -40.992188 Z M 28.050781 -24.148438 C 26.285156 -22.355469 23.4375 -21.765625 19.535156 -21.765625 L 12.382812 -21.765625 L 12.382812 -38.792969 L 19.535156 -38.792969 C 23.34375 -38.792969 26.101562 -38.390625 27.957031 -36.875 C 29.414062 -35.667969 30.28125 -33.683594 30.28125 -30.714844 C 30.28125 -27.617188 29.476562 -25.542969 28.050781 -24.148438 Z M 28.050781 -24.148438 "/></g></g></g><g fill="rgb(100%, 100%, 100%)" fill-opacity="1"><g transform="translate(67.520119, 128.754982)"><g><path d="M 20 -31.023438 C 15.945312 -31.023438 12.726562 -29.320312 10.804688 -26.410156 L 10.804688 -47.554688 L 5.449219 -47.554688 L 5.449219 0 L 10.804688 0 L 10.804688 -18.203125 C 10.835938 -24.027344 14.304688 -26.503906 18.328125 -26.503906 C 21.921875 -26.503906 24.984375 -24.488281 24.984375 -19.101562 L 24.984375 0 L 30.339844 0 L 30.339844 -20.125 C 30.339844 -27.339844 26.070312 -31.023438 20 -31.023438 Z M 20 -31.023438 "/></g></g></g><g fill="rgb(100%, 100%, 100%)" fill-opacity="1"><g transform="translate(106.019251, 128.754982)"><g><path d="M 24.210938 -30.433594 L 15.511719 -6.75 L 6.933594 -30.433594 L 0.992188 -30.433594 L 12.816406 -0.742188 L 6.222656 15.605469 L 11.796875 15.605469 L 29.878906 -30.433594 Z M 24.210938 -30.433594 "/></g></g></g><g fill="rgb(100%, 100%, 100%)" fill-opacity="1"><g transform="translate(140.183948, 128.754982)"><g><path d="M 15.078125 0.589844 C 20.992188 0.589844 26.285156 -1.917969 26.285156 -8.359375 C 26.285156 -14.738281 21.054688 -16.347656 16.253906 -17.585938 C 12.351562 -18.578125 8.730469 -19.351562 8.730469 -22.726562 C 8.730469 -25.882812 11.734375 -27.058594 14.519531 -27.058594 C 17.679688 -27.058594 20.527344 -25.542969 21.207031 -21.921875 L 25.882812 -23.035156 C 24.921875 -28.546875 20.03125 -30.960938 14.488281 -30.960938 C 8.636719 -30.960938 3.746094 -28.328125 3.746094 -22.355469 C 3.746094 -16.875 7.894531 -15.234375 12.136719 -13.964844 C 17.027344 -12.476562 21.023438 -11.859375 21.117188 -8.144531 C 21.207031 -4.613281 18.019531 -3.46875 15.046875 -3.46875 C 11.085938 -3.46875 8.234375 -5.511719 7.554688 -9.195312 L 2.878906 -7.863281 C 3.839844 -2.351562 8.636719 0.589844 15.078125 0.589844 Z M 15.078125 0.589844 "/></g></g></g><g fill="rgb(100%, 100%, 100%)" fill-opacity="1"><g transform="translate(172.924472, 128.754982)"><g><path d="M 8.171875 -37.585938 C 10.125 -37.585938 11.765625 -39.226562 11.765625 -41.207031 C 11.765625 -43.191406 10.125 -44.800781 8.171875 -44.800781 C 6.191406 -44.800781 4.550781 -43.191406 4.550781 -41.207031 C 4.550781 -39.226562 6.191406 -37.585938 8.171875 -37.585938 Z M 5.449219 0 L 10.835938 0 L 10.835938 -30.433594 L 5.449219 -30.433594 Z M 5.449219 0 "/></g></g></g><g fill="rgb(100%, 100%, 100%)" fill-opacity="1"><g transform="translate(192.50686, 128.754982)"><g><path d="M 18.265625 0.621094 C 27.027344 0.621094 33.59375 -5.480469 33.59375 -15.234375 C 33.59375 -24.921875 27.058594 -31.054688 18.265625 -31.054688 C 9.503906 -31.054688 2.941406 -24.921875 2.941406 -15.234375 C 2.941406 -5.480469 9.597656 0.621094 18.265625 0.621094 Z M 18.234375 -3.871094 C 12.601562 -3.871094 8.265625 -8.328125 8.265625 -15.234375 C 8.265625 -22.105469 12.601562 -26.5625 18.234375 -26.5625 C 23.933594 -26.5625 28.296875 -22.105469 28.296875 -15.234375 C 28.296875 -8.328125 23.933594 -3.871094 18.234375 -3.871094 Z M 18.234375 -3.871094 "/></g></g></g><g fill="rgb(100%, 100%, 100%)" fill-opacity="1"><g transform="translate(9.884415, 169.583029)"><g><path d="M 11.265625 -8.65625 L 8.953125 -8.65625 L 5.84375 -1.59375 L 2.5 -8.65625 L 0.4375 -8.65625 L 0.4375 -8.28125 L 1.59375 -8.28125 L 1.59375 -0.375 L 0.4375 -0.375 L 0.4375 0 L 3.3125 0 C 3.3125 -0.207031 3.234375 -0.328125 3.078125 -0.359375 C 3.035156 -0.367188 2.988281 -0.375 2.9375 -0.375 L 2.15625 -0.375 L 2.15625 -6.578125 L 5.328125 0.078125 L 5.625 0.078125 L 8.953125 -7.359375 L 8.953125 -0.375 L 7.796875 -0.375 L 7.796875 0 L 11.265625 0 C 11.265625 -0.207031 11.1875 -0.328125 11.03125 -0.359375 C 10.976562 -0.367188 10.929688 -0.375 10.890625 -0.375 L 10.109375 -0.375 L 10.109375 -8.28125 L 11.265625 -8.28125 Z M 11.265625 -8.65625 "/></g></g></g><g fill="rgb(100%, 100%, 100%)" fill-opacity="1"><g transform="translate(22.962253, 169.583029)"><g><path d="M 5.640625 0.140625 C 6.378906 0.140625 6.785156 -0.304688 6.859375 -1.203125 C 6.867188 -1.253906 6.875 -1.304688 6.875 -1.359375 L 6.5 -1.375 C 6.4375 -0.664062 6.25 -0.304688 5.9375 -0.296875 C 5.6875 -0.316406 5.554688 -0.566406 5.546875 -1.046875 L 5.546875 -4.09375 C 5.546875 -5.46875 4.859375 -6.191406 3.484375 -6.265625 C 3.398438 -6.265625 3.316406 -6.265625 3.234375 -6.265625 C 2.148438 -6.265625 1.425781 -6.015625 1.0625 -5.515625 C 0.945312 -5.359375 0.890625 -5.195312 0.890625 -5.03125 C 0.890625 -4.726562 1.03125 -4.554688 1.3125 -4.515625 C 1.363281 -4.503906 1.410156 -4.5 1.453125 -4.5 C 1.671875 -4.5 1.835938 -4.640625 1.953125 -4.921875 C 2.085938 -5.273438 2.175781 -5.484375 2.21875 -5.546875 C 2.40625 -5.785156 2.691406 -5.90625 3.078125 -5.90625 C 3.972656 -5.851562 4.4375 -5.359375 4.46875 -4.421875 L 4.46875 -3.515625 C 2.207031 -3.515625 0.914062 -3.046875 0.59375 -2.109375 C 0.53125 -1.921875 0.5 -1.722656 0.5 -1.515625 C 0.5 -0.785156 0.820312 -0.285156 1.46875 -0.015625 C 1.726562 0.0859375 2.003906 0.140625 2.296875 0.140625 C 2.992188 0.140625 3.582031 -0.0976562 4.0625 -0.578125 C 4.238281 -0.753906 4.367188 -0.945312 4.453125 -1.15625 C 4.566406 -0.300781 4.960938 0.128906 5.640625 0.140625 Z M 2.765625 -0.4375 C 2.179688 -0.4375 1.820312 -0.726562 1.6875 -1.3125 C 1.65625 -1.445312 1.640625 -1.597656 1.640625 -1.765625 C 1.640625 -2.398438 2.007812 -2.804688 2.75 -2.984375 C 3.144531 -3.066406 3.71875 -3.113281 4.46875 -3.125 L 4.46875 -1.96875 C 4.320312 -1.3125 3.972656 -0.847656 3.421875 -0.578125 C 3.191406 -0.484375 2.972656 -0.4375 2.765625 -0.4375 Z M 2.765625 -0.4375 "/></g></g></g><g fill="rgb(100%, 100%, 100%)" fill-opacity="1"><g transform="translate(31.297883, 169.583029)"><g><path d="M 3.265625 -0.359375 L 2.609375 -0.359375 L 2.609375 -2.5 L 3.40625 -3.234375 L 5.4375 0 L 7.359375 0 C 7.359375 -0.207031 7.285156 -0.320312 7.140625 -0.34375 C 7.097656 -0.351562 7.050781 -0.359375 7 -0.359375 L 6.46875 -0.359375 L 4.15625 -3.9375 L 5.515625 -5.203125 C 5.847656 -5.523438 6.097656 -5.703125 6.265625 -5.734375 C 6.347656 -5.753906 6.4375 -5.765625 6.53125 -5.765625 C 6.738281 -5.765625 6.851562 -5.835938 6.875 -5.984375 C 6.882812 -6.035156 6.890625 -6.082031 6.890625 -6.125 L 4.4375 -6.125 L 4.4375 -5.765625 L 5.515625 -5.765625 L 2.609375 -3.078125 L 2.609375 -9.375 L 0.453125 -9.375 L 0.453125 -9.015625 L 1.53125 -9.015625 L 1.53125 -1.21875 C 1.53125 -0.78125 1.40625 -0.519531 1.15625 -0.4375 C 1.007812 -0.382812 0.773438 -0.359375 0.453125 -0.359375 L 0.453125 0 L 3.625 0 C 3.625 -0.207031 3.550781 -0.320312 3.40625 -0.34375 C 3.363281 -0.351562 3.316406 -0.359375 3.265625 -0.359375 Z M 3.265625 -0.359375 "/></g></g></g><g fill="rgb(100%, 100%, 100%)" fill-opacity="1"><g transform="translate(39.892966, 169.583029)"><g><path d="M 3.390625 -0.359375 L 2.671875 -0.359375 L 2.671875 -6.125 L 0.4375 -6.125 L 0.4375 -5.765625 L 1.59375 -5.765625 L 1.59375 -1.21875 C 1.59375 -0.78125 1.441406 -0.515625 1.140625 -0.421875 C 0.992188 -0.378906 0.757812 -0.359375 0.4375 -0.359375 L 0.4375 0 L 3.75 0 C 3.75 -0.207031 3.675781 -0.320312 3.53125 -0.34375 C 3.476562 -0.351562 3.429688 -0.359375 3.390625 -0.359375 Z M 2.84375 -8.234375 C 2.84375 -8.566406 2.691406 -8.804688 2.390625 -8.953125 C 2.273438 -9.003906 2.164062 -9.03125 2.0625 -9.03125 C 1.726562 -9.03125 1.488281 -8.875 1.34375 -8.5625 C 1.289062 -8.457031 1.265625 -8.347656 1.265625 -8.234375 C 1.265625 -7.878906 1.425781 -7.632812 1.75 -7.5 C 1.851562 -7.457031 1.957031 -7.4375 2.0625 -7.4375 C 2.394531 -7.4375 2.628906 -7.59375 2.765625 -7.90625 C 2.816406 -8.007812 2.84375 -8.117188 2.84375 -8.234375 Z M 2.84375 -8.234375 "/></g></g></g><g fill="rgb(100%, 100%, 100%)" fill-opacity="1"><g transform="translate(45.461108, 169.583029)"><g><path d="M 3.25 -0.359375 L 2.59375 -0.359375 L 2.59375 -3.46875 C 2.625 -4.363281 2.941406 -5.007812 3.546875 -5.40625 C 3.804688 -5.570312 4.070312 -5.65625 4.34375 -5.65625 C 4.925781 -5.65625 5.320312 -5.378906 5.53125 -4.828125 C 5.625 -4.609375 5.671875 -4.359375 5.671875 -4.078125 L 5.671875 -1.21875 C 5.671875 -0.78125 5.546875 -0.519531 5.296875 -0.4375 C 5.148438 -0.382812 4.910156 -0.359375 4.578125 -0.359375 L 4.578125 0 L 7.828125 0 C 7.828125 -0.207031 7.753906 -0.320312 7.609375 -0.34375 C 7.578125 -0.351562 7.53125 -0.359375 7.46875 -0.359375 L 6.75 -0.359375 L 6.75 -3.9375 C 6.75 -4.894531 6.414062 -5.582031 5.75 -6 C 5.445312 -6.175781 5.117188 -6.265625 4.765625 -6.265625 C 4.046875 -6.265625 3.457031 -5.984375 3 -5.421875 C 2.820312 -5.203125 2.679688 -4.957031 2.578125 -4.6875 L 2.515625 -6.125 L 0.4375 -6.125 L 0.4375 -5.765625 L 1.515625 -5.765625 L 1.515625 -1.21875 C 1.515625 -0.78125 1.390625 -0.519531 1.140625 -0.4375 C 0.992188 -0.382812 0.757812 -0.359375 0.4375 -0.359375 L 0.4375 0 L 3.609375 0 C 3.609375 -0.207031 3.535156 -0.320312 3.390625 -0.34375 C 3.347656 -0.351562 3.300781 -0.359375 3.25 -0.359375 Z M 3.25 -0.359375 "/></g></g></g><g fill="rgb(100%, 100%, 100%)" fill-opacity="1"><g transform="translate(55.03634, 169.583029)"><g><path d="M 1.875 -4 C 1.894531 -5.257812 2.375 -5.894531 3.3125 -5.90625 C 4.257812 -5.894531 4.738281 -5.257812 4.75 -4 C 4.726562 -2.6875 4.25 -2.023438 3.3125 -2.015625 C 2.363281 -2.035156 1.882812 -2.695312 1.875 -4 Z M 3.328125 -6.265625 C 2.460938 -6.265625 1.773438 -5.988281 1.265625 -5.4375 C 0.898438 -5.019531 0.71875 -4.535156 0.71875 -3.984375 C 0.71875 -3.253906 1.070312 -2.644531 1.78125 -2.15625 C 1.851562 -2.113281 1.921875 -2.070312 1.984375 -2.03125 C 1.367188 -2.03125 0.988281 -1.765625 0.84375 -1.234375 C 0.8125 -1.109375 0.796875 -0.984375 0.796875 -0.859375 C 0.804688 -0.347656 1.007812 0.03125 1.40625 0.28125 C 1.09375 0.613281 0.9375 0.953125 0.9375 1.296875 C 0.9375 1.828125 1.25 2.222656 1.875 2.484375 C 2.269531 2.648438 2.753906 2.734375 3.328125 2.734375 C 4.785156 2.734375 5.753906 2.378906 6.234375 1.671875 C 6.378906 1.429688 6.453125 1.175781 6.453125 0.90625 C 6.453125 0.0820312 5.976562 -0.390625 5.03125 -0.515625 C 4.90625 -0.535156 4.773438 -0.546875 4.640625 -0.546875 L 2.015625 -0.609375 C 1.578125 -0.640625 1.351562 -0.832031 1.34375 -1.1875 C 1.34375 -1.4375 1.5 -1.59375 1.8125 -1.65625 C 1.882812 -1.664062 1.957031 -1.671875 2.03125 -1.671875 L 3.296875 -1.65625 C 4.148438 -1.65625 4.832031 -1.941406 5.34375 -2.515625 C 5.707031 -2.929688 5.890625 -3.425781 5.890625 -4 C 5.890625 -4.71875 5.613281 -5.289062 5.0625 -5.71875 C 5.144531 -6.03125 5.304688 -6.210938 5.546875 -6.265625 C 5.585938 -6.273438 5.628906 -6.28125 5.671875 -6.28125 C 5.804688 -6.28125 5.945312 -6.210938 6.09375 -6.078125 C 6.207031 -5.972656 6.304688 -5.921875 6.390625 -5.921875 C 6.628906 -5.984375 6.769531 -6.140625 6.8125 -6.390625 C 6.8125 -6.679688 6.671875 -6.882812 6.390625 -7 C 6.285156 -7.03125 6.179688 -7.046875 6.078125 -7.046875 C 5.617188 -7.046875 5.25 -6.847656 4.96875 -6.453125 C 4.863281 -6.296875 4.785156 -6.125 4.734375 -5.9375 C 4.296875 -6.15625 3.828125 -6.265625 3.328125 -6.265625 Z M 3.328125 2.359375 C 2.378906 2.359375 1.78125 2.109375 1.53125 1.609375 C 1.457031 1.472656 1.421875 1.34375 1.421875 1.21875 C 1.429688 0.957031 1.550781 0.695312 1.78125 0.4375 C 1.96875 0.46875 2.125 0.484375 2.25 0.484375 L 4.46875 0.515625 C 5.1875 0.523438 5.601562 0.691406 5.71875 1.015625 C 5.75 1.085938 5.765625 1.179688 5.765625 1.296875 C 5.765625 1.722656 5.367188 2.03125 4.578125 2.21875 C 4.203125 2.3125 3.785156 2.359375 3.328125 2.359375 Z M 3.328125 2.359375 "/></g></g></g><g fill="rgb(100%, 100%, 100%)" fill-opacity="1"><g transform="translate(63.357554, 169.583029)"><g/></g></g><g fill="rgb(100%, 100%, 100%)" fill-opacity="1"><g transform="translate(67.556363, 169.583029)"><g><path d="M 4.546875 -8.28125 C 5.398438 -8.28125 5.953125 -7.894531 6.203125 -7.125 C 6.273438 -6.875 6.3125 -6.601562 6.3125 -6.3125 C 6.3125 -5.0625 5.753906 -4.375 4.640625 -4.25 C 4.523438 -4.238281 4.410156 -4.234375 4.296875 -4.234375 L 2.96875 -4.234375 L 2.96875 -8.28125 Z M 4.40625 0 C 4.40625 -0.207031 4.332031 -0.328125 4.1875 -0.359375 C 4.132812 -0.367188 4.082031 -0.375 4.03125 -0.375 L 2.96875 -0.375 L 2.96875 -3.828125 L 4.234375 -3.828125 C 5.816406 -3.828125 6.863281 -4.269531 7.375 -5.15625 C 7.570312 -5.5 7.671875 -5.890625 7.671875 -6.328125 C 7.671875 -7.273438 7.257812 -7.941406 6.4375 -8.328125 C 5.988281 -8.546875 5.457031 -8.65625 4.84375 -8.65625 L 0.578125 -8.65625 L 0.578125 -8.28125 L 1.734375 -8.28125 L 1.734375 -0.375 L 0.578125 -0.375 L 0.578125 0 Z M 4.40625 0 "/></g></g></g><g fill="rgb(100%, 100%, 100%)" fill-opacity="1"><g transform="translate(77.045112, 169.583029)"><g><path d="M 3.34375 -0.359375 L 2.625 -0.359375 L 2.625 -3.46875 C 2.625 -4.34375 2.925781 -4.976562 3.53125 -5.375 C 3.78125 -5.539062 4.039062 -5.625 4.3125 -5.625 C 4.894531 -5.625 5.300781 -5.347656 5.53125 -4.796875 C 5.644531 -4.535156 5.703125 -4.25 5.703125 -3.9375 L 5.703125 -1.21875 C 5.703125 -0.78125 5.59375 -0.519531 5.375 -0.4375 C 5.238281 -0.382812 5.007812 -0.359375 4.6875 -0.359375 L 4.6875 0 L 7.859375 0 C 7.859375 -0.207031 7.785156 -0.320312 7.640625 -0.34375 C 7.597656 -0.351562 7.550781 -0.359375 7.5 -0.359375 L 6.78125 -0.359375 L 6.78125 -3.9375 C 6.78125 -4.988281 6.429688 -5.703125 5.734375 -6.078125 C 5.460938 -6.203125 5.175781 -6.265625 4.875 -6.265625 C 4.164062 -6.265625 3.566406 -6.007812 3.078125 -5.5 C 2.878906 -5.269531 2.726562 -5.019531 2.625 -4.75 L 2.625 -9.375 L 0.46875 -9.375 L 0.46875 -9.015625 L 1.546875 -9.015625 L 1.546875 -1.21875 C 1.546875 -0.78125 1.421875 -0.519531 1.171875 -0.4375 C 1.023438 -0.382812 0.789062 -0.359375 0.46875 -0.359375 L 0.46875 0 L 3.703125 0 C 3.703125 -0.207031 3.628906 -0.320312 3.484375 -0.34375 C 3.453125 -0.351562 3.40625 -0.359375 3.34375 -0.359375 Z M 3.34375 -0.359375 "/></g></g></g><g fill="rgb(100%, 100%, 100%)" fill-opacity="1"><g transform="translate(86.663586, 169.583029)"><g><path d="M 1.484375 2.296875 C 1.328125 2.296875 1.210938 2.179688 1.140625 1.953125 C 1.035156 1.660156 0.9375 1.476562 0.84375 1.40625 C 0.75 1.351562 0.644531 1.328125 0.53125 1.328125 C 0.226562 1.328125 0.0507812 1.460938 0 1.734375 C -0.0078125 1.765625 -0.015625 1.796875 -0.015625 1.828125 C -0.015625 2.191406 0.195312 2.457031 0.625 2.625 C 0.8125 2.695312 1.007812 2.734375 1.21875 2.734375 C 1.976562 2.734375 2.640625 2.269531 3.203125 1.34375 C 3.429688 0.96875 3.648438 0.519531 3.859375 0 L 6 -5.265625 C 6.09375 -5.535156 6.195312 -5.6875 6.3125 -5.71875 C 6.382812 -5.738281 6.460938 -5.75 6.546875 -5.75 C 6.734375 -5.75 6.84375 -5.800781 6.875 -5.90625 C 6.894531 -5.96875 6.90625 -6.039062 6.90625 -6.125 L 4.71875 -6.125 L 4.71875 -5.75 L 5.765625 -5.75 L 3.921875 -1.140625 L 1.953125 -5.75 L 2.90625 -5.75 L 2.90625 -6.125 L 0.09375 -6.125 L 0.09375 -5.75 L 0.8125 -5.75 L 3.40625 0 C 2.863281 1.269531 2.359375 2.003906 1.890625 2.203125 C 1.753906 2.265625 1.617188 2.296875 1.484375 2.296875 Z M 1.484375 2.296875 "/></g></g></g><g fill="rgb(100%, 100%, 100%)" fill-opacity="1"><g transform="translate(95.028042, 169.583029)"><g><path d="M 2.734375 -0.25 C 3.398438 -0.25 3.847656 -0.445312 4.078125 -0.84375 C 4.160156 -0.988281 4.203125 -1.148438 4.203125 -1.328125 C 4.203125 -1.734375 3.910156 -2.078125 3.328125 -2.359375 C 3.203125 -2.429688 2.992188 -2.53125 2.703125 -2.65625 C 1.921875 -2.976562 1.398438 -3.285156 1.140625 -3.578125 C 0.859375 -3.890625 0.71875 -4.257812 0.71875 -4.6875 C 0.71875 -5.351562 1.082031 -5.816406 1.8125 -6.078125 C 2.15625 -6.203125 2.519531 -6.265625 2.90625 -6.265625 C 3.539062 -6.265625 4.09375 -6.132812 4.5625 -5.875 C 4.5625 -6.144531 4.628906 -6.300781 4.765625 -6.34375 C 4.816406 -6.351562 4.878906 -6.359375 4.953125 -6.359375 L 4.953125 -4.5625 L 4.578125 -4.5625 C 4.554688 -5.445312 4.0625 -5.890625 3.09375 -5.890625 C 2.375 -5.890625 1.929688 -5.679688 1.765625 -5.265625 C 1.710938 -5.148438 1.6875 -5.03125 1.6875 -4.90625 C 1.6875 -4.488281 1.984375 -4.132812 2.578125 -3.84375 C 2.710938 -3.78125 2.925781 -3.691406 3.21875 -3.578125 C 4 -3.253906 4.515625 -2.953125 4.765625 -2.671875 C 5.046875 -2.359375 5.1875 -1.992188 5.1875 -1.578125 C 5.1875 -0.796875 4.773438 -0.273438 3.953125 -0.015625 C 3.628906 0.0859375 3.28125 0.140625 2.90625 0.140625 C 2.21875 0.128906 1.617188 -0.0390625 1.109375 -0.375 C 1.109375 -0.125 1.046875 0.0195312 0.921875 0.0625 C 0.867188 0.0703125 0.800781 0.078125 0.71875 0.078125 L 0.71875 -2.125 L 1.125 -2.125 C 1.144531 -0.882812 1.679688 -0.257812 2.734375 -0.25 Z M 2.734375 -0.25 "/></g></g></g><g fill="rgb(100%, 100%, 100%)" fill-opacity="1"><g transform="translate(102.181722, 169.583029)"><g><path d="M 3.390625 -0.359375 L 2.671875 -0.359375 L 2.671875 -6.125 L 0.4375 -6.125 L 0.4375 -5.765625 L 1.59375 -5.765625 L 1.59375 -1.21875 C 1.59375 -0.78125 1.441406 -0.515625 1.140625 -0.421875 C 0.992188 -0.378906 0.757812 -0.359375 0.4375 -0.359375 L 0.4375 0 L 3.75 0 C 3.75 -0.207031 3.675781 -0.320312 3.53125 -0.34375 C 3.476562 -0.351562 3.429688 -0.359375 3.390625 -0.359375 Z M 2.84375 -8.234375 C 2.84375 -8.566406 2.691406 -8.804688 2.390625 -8.953125 C 2.273438 -9.003906 2.164062 -9.03125 2.0625 -9.03125 C 1.726562 -9.03125 1.488281 -8.875 1.34375 -8.5625 C 1.289062 -8.457031 1.265625 -8.347656 1.265625 -8.234375 C 1.265625 -7.878906 1.425781 -7.632812 1.75 -7.5 C 1.851562 -7.457031 1.957031 -7.4375 2.0625 -7.4375 C 2.394531 -7.4375 2.628906 -7.59375 2.765625 -7.90625 C 2.816406 -8.007812 2.84375 -8.117188 2.84375 -8.234375 Z M 2.84375 -8.234375 "/></g></g></g><g fill="rgb(100%, 100%, 100%)" fill-opacity="1"><g transform="translate(107.749861, 169.583029)"><g><path d="M 1.796875 -3.078125 C 1.796875 -4.566406 2.207031 -5.472656 3.03125 -5.796875 C 3.238281 -5.867188 3.457031 -5.90625 3.6875 -5.90625 C 4.757812 -5.90625 5.378906 -5.234375 5.546875 -3.890625 C 5.578125 -3.660156 5.59375 -3.40625 5.59375 -3.125 C 5.59375 -1.507812 5.148438 -0.5625 4.265625 -0.28125 C 4.097656 -0.238281 3.921875 -0.21875 3.734375 -0.21875 C 2.765625 -0.21875 2.15625 -0.796875 1.90625 -1.953125 C 1.832031 -2.285156 1.796875 -2.660156 1.796875 -3.078125 Z M 3.734375 -6.265625 C 2.804688 -6.265625 2.035156 -5.953125 1.421875 -5.328125 C 0.859375 -4.734375 0.578125 -4 0.578125 -3.125 C 0.578125 -1.914062 1.019531 -1.007812 1.90625 -0.40625 C 2.4375 -0.0390625 3.03125 0.140625 3.6875 0.140625 C 4.613281 0.140625 5.378906 -0.1875 5.984375 -0.84375 C 6.546875 -1.4375 6.828125 -2.179688 6.828125 -3.078125 C 6.828125 -4.285156 6.378906 -5.179688 5.484375 -5.765625 C 4.953125 -6.097656 4.367188 -6.265625 3.734375 -6.265625 Z M 3.734375 -6.265625 "/></g></g></g><g fill="rgb(100%, 100%, 100%)" fill-opacity="1"><g transform="translate(116.532323, 169.583029)"><g><path d="M 0.28125 -5.765625 L 1.296875 -5.765625 L 1.296875 -1.703125 C 1.367188 -0.503906 1.921875 0.113281 2.953125 0.15625 C 3.835938 0.15625 4.390625 -0.382812 4.609375 -1.46875 C 4.609375 -1.476562 4.609375 -1.488281 4.609375 -1.5 L 4.21875 -1.578125 C 3.976562 -0.773438 3.628906 -0.34375 3.171875 -0.28125 C 2.648438 -0.289062 2.382812 -0.660156 2.375 -1.390625 L 2.375 -5.765625 L 4.609375 -5.765625 L 4.609375 -6.125 L 2.375 -6.125 L 2.375 -7.796875 L 1.296875 -7.5 L 1.296875 -6.125 L 0.28125 -6.125 Z M 0.28125 -5.765625 "/></g></g></g><g fill="rgb(100%, 100%, 100%)" fill-opacity="1"><g transform="translate(122.604953, 169.583029)"><g><path d="M 3.34375 -0.359375 L 2.625 -0.359375 L 2.625 -3.46875 C 2.625 -4.34375 2.925781 -4.976562 3.53125 -5.375 C 3.78125 -5.539062 4.039062 -5.625 4.3125 -5.625 C 4.894531 -5.625 5.300781 -5.347656 5.53125 -4.796875 C 5.644531 -4.535156 5.703125 -4.25 5.703125 -3.9375 L 5.703125 -1.21875 C 5.703125 -0.78125 5.59375 -0.519531 5.375 -0.4375 C 5.238281 -0.382812 5.007812 -0.359375 4.6875 -0.359375 L 4.6875 0 L 7.859375 0 C 7.859375 -0.207031 7.785156 -0.320312 7.640625 -0.34375 C 7.597656 -0.351562 7.550781 -0.359375 7.5 -0.359375 L 6.78125 -0.359375 L 6.78125 -3.9375 C 6.78125 -4.988281 6.429688 -5.703125 5.734375 -6.078125 C 5.460938 -6.203125 5.175781 -6.265625 4.875 -6.265625 C 4.164062 -6.265625 3.566406 -6.007812 3.078125 -5.5 C 2.878906 -5.269531 2.726562 -5.019531 2.625 -4.75 L 2.625 -9.375 L 0.46875 -9.375 L 0.46875 -9.015625 L 1.546875 -9.015625 L 1.546875 -1.21875 C 1.546875 -0.78125 1.421875 -0.519531 1.171875 -0.4375 C 1.023438 -0.382812 0.789062 -0.359375 0.46875 -0.359375 L 0.46875 0 L 3.703125 0 C 3.703125 -0.207031 3.628906 -0.320312 3.484375 -0.34375 C 3.453125 -0.351562 3.40625 -0.359375 3.34375 -0.359375 Z M 3.34375 -0.359375 "/></g></g></g><g fill="rgb(100%, 100%, 100%)" fill-opacity="1"><g transform="translate(132.223427, 169.583029)"><g><path d="M 3.59375 -5.90625 C 4.257812 -5.90625 4.707031 -5.625 4.9375 -5.0625 C 5.007812 -4.875 5.046875 -4.675781 5.046875 -4.46875 C 5.046875 -3.988281 4.816406 -3.695312 4.359375 -3.59375 C 4.117188 -3.539062 3.773438 -3.519531 3.328125 -3.53125 L 1.796875 -3.578125 C 1.847656 -4.679688 2.210938 -5.398438 2.890625 -5.734375 C 3.109375 -5.847656 3.34375 -5.90625 3.59375 -5.90625 Z M 6.09375 -1.390625 L 5.734375 -1.515625 C 5.398438 -0.785156 4.859375 -0.375 4.109375 -0.28125 C 4.015625 -0.269531 3.921875 -0.265625 3.828125 -0.265625 C 2.828125 -0.265625 2.195312 -0.863281 1.9375 -2.0625 C 1.851562 -2.394531 1.804688 -2.765625 1.796875 -3.171875 L 3.53125 -3.140625 C 4.707031 -3.117188 5.460938 -3.226562 5.796875 -3.46875 C 6.054688 -3.664062 6.1875 -3.941406 6.1875 -4.296875 C 6.1875 -4.953125 5.851562 -5.472656 5.1875 -5.859375 C 4.71875 -6.128906 4.175781 -6.265625 3.5625 -6.265625 C 2.363281 -6.265625 1.503906 -5.765625 0.984375 -4.765625 C 0.710938 -4.253906 0.578125 -3.671875 0.578125 -3.015625 C 0.578125 -1.816406 1.003906 -0.929688 1.859375 -0.359375 C 2.367188 -0.0234375 2.953125 0.140625 3.609375 0.140625 C 4.640625 0.140625 5.398438 -0.234375 5.890625 -0.984375 C 5.972656 -1.117188 6.039062 -1.253906 6.09375 -1.390625 Z M 6.09375 -1.390625 "/></g></g></g><g fill="rgb(100%, 100%, 100%)" fill-opacity="1"><g transform="translate(140.299603, 169.583029)"><g><path d="M 3.65625 -0.359375 L 2.625 -0.359375 L 2.625 -3.234375 C 2.625 -4.109375 2.894531 -4.804688 3.4375 -5.328125 C 3.644531 -5.535156 3.820312 -5.644531 3.96875 -5.65625 C 4.125 -5.65625 4.269531 -5.535156 4.40625 -5.296875 C 4.5625 -5.023438 4.707031 -4.867188 4.84375 -4.828125 C 4.90625 -4.804688 4.960938 -4.796875 5.015625 -4.796875 C 5.304688 -4.796875 5.488281 -4.9375 5.5625 -5.21875 C 5.582031 -5.28125 5.59375 -5.335938 5.59375 -5.390625 C 5.59375 -5.828125 5.375 -6.09375 4.9375 -6.1875 C 4.832031 -6.207031 4.738281 -6.21875 4.65625 -6.21875 C 4.082031 -6.21875 3.566406 -5.972656 3.109375 -5.484375 C 2.898438 -5.253906 2.734375 -4.992188 2.609375 -4.703125 L 2.546875 -6.125 L 0.46875 -6.125 L 0.46875 -5.765625 L 1.546875 -5.765625 L 1.546875 -1.21875 C 1.546875 -0.78125 1.421875 -0.519531 1.171875 -0.4375 C 1.023438 -0.382812 0.789062 -0.359375 0.46875 -0.359375 L 0.46875 0 L 4.015625 0 C 4.015625 -0.207031 3.945312 -0.320312 3.8125 -0.34375 C 3.769531 -0.351562 3.71875 -0.359375 3.65625 -0.359375 Z M 3.65625 -0.359375 "/></g></g></g><g fill="rgb(100%, 100%, 100%)" fill-opacity="1"><g transform="translate(147.352385, 169.583029)"><g><path d="M 5.640625 0.140625 C 6.378906 0.140625 6.785156 -0.304688 6.859375 -1.203125 C 6.867188 -1.253906 6.875 -1.304688 6.875 -1.359375 L 6.5 -1.375 C 6.4375 -0.664062 6.25 -0.304688 5.9375 -0.296875 C 5.6875 -0.316406 5.554688 -0.566406 5.546875 -1.046875 L 5.546875 -4.09375 C 5.546875 -5.46875 4.859375 -6.191406 3.484375 -6.265625 C 3.398438 -6.265625 3.316406 -6.265625 3.234375 -6.265625 C 2.148438 -6.265625 1.425781 -6.015625 1.0625 -5.515625 C 0.945312 -5.359375 0.890625 -5.195312 0.890625 -5.03125 C 0.890625 -4.726562 1.03125 -4.554688 1.3125 -4.515625 C 1.363281 -4.503906 1.410156 -4.5 1.453125 -4.5 C 1.671875 -4.5 1.835938 -4.640625 1.953125 -4.921875 C 2.085938 -5.273438 2.175781 -5.484375 2.21875 -5.546875 C 2.40625 -5.785156 2.691406 -5.90625 3.078125 -5.90625 C 3.972656 -5.851562 4.4375 -5.359375 4.46875 -4.421875 L 4.46875 -3.515625 C 2.207031 -3.515625 0.914062 -3.046875 0.59375 -2.109375 C 0.53125 -1.921875 0.5 -1.722656 0.5 -1.515625 C 0.5 -0.785156 0.820312 -0.285156 1.46875 -0.015625 C 1.726562 0.0859375 2.003906 0.140625 2.296875 0.140625 C 2.992188 0.140625 3.582031 -0.0976562 4.0625 -0.578125 C 4.238281 -0.753906 4.367188 -0.945312 4.453125 -1.15625 C 4.566406 -0.300781 4.960938 0.128906 5.640625 0.140625 Z M 2.765625 -0.4375 C 2.179688 -0.4375 1.820312 -0.726562 1.6875 -1.3125 C 1.65625 -1.445312 1.640625 -1.597656 1.640625 -1.765625 C 1.640625 -2.398438 2.007812 -2.804688 2.75 -2.984375 C 3.144531 -3.066406 3.71875 -3.113281 4.46875 -3.125 L 4.46875 -1.96875 C 4.320312 -1.3125 3.972656 -0.847656 3.421875 -0.578125 C 3.191406 -0.484375 2.972656 -0.4375 2.765625 -0.4375 Z M 2.765625 -0.4375 "/></g></g></g><g fill="rgb(100%, 100%, 100%)" fill-opacity="1"><g transform="translate(155.688013, 169.583029)"><g><path d="M 2.53125 2.375 L 2.53125 -0.609375 C 3.0625 -0.140625 3.675781 0.109375 4.375 0.140625 C 5.226562 0.140625 5.941406 -0.179688 6.515625 -0.828125 C 7.078125 -1.453125 7.359375 -2.242188 7.359375 -3.203125 C 7.359375 -4.296875 7.054688 -5.128906 6.453125 -5.703125 C 6.023438 -6.078125 5.507812 -6.265625 4.90625 -6.265625 C 3.96875 -6.265625 3.269531 -5.894531 2.8125 -5.15625 C 2.695312 -4.96875 2.597656 -4.769531 2.515625 -4.5625 L 2.453125 -6.125 L 0.375 -6.125 L 0.375 -5.765625 L 1.453125 -5.765625 L 1.453125 1.515625 C 1.453125 1.953125 1.328125 2.21875 1.078125 2.3125 C 0.929688 2.351562 0.695312 2.375 0.375 2.375 L 0.375 2.734375 L 3.90625 2.734375 C 3.90625 2.523438 3.832031 2.410156 3.6875 2.390625 C 3.65625 2.378906 3.609375 2.375 3.546875 2.375 Z M 4.4375 -5.703125 C 5.28125 -5.703125 5.8125 -5.175781 6.03125 -4.125 C 6.09375 -3.800781 6.125 -3.445312 6.125 -3.0625 C 6.125 -1.644531 5.742188 -0.75 4.984375 -0.375 C 4.765625 -0.269531 4.523438 -0.21875 4.265625 -0.21875 C 3.523438 -0.21875 3.015625 -0.609375 2.734375 -1.390625 C 2.585938 -1.773438 2.515625 -2.238281 2.515625 -2.78125 C 2.515625 -4.03125 2.835938 -4.894531 3.484375 -5.375 C 3.773438 -5.59375 4.09375 -5.703125 4.4375 -5.703125 Z M 4.4375 -5.703125 "/></g></g></g><g fill="rgb(100%, 100%, 100%)" fill-opacity="1"><g transform="translate(165.003794, 169.583029)"><g><path d="M 1.484375 2.296875 C 1.328125 2.296875 1.210938 2.179688 1.140625 1.953125 C 1.035156 1.660156 0.9375 1.476562 0.84375 1.40625 C 0.75 1.351562 0.644531 1.328125 0.53125 1.328125 C 0.226562 1.328125 0.0507812 1.460938 0 1.734375 C -0.0078125 1.765625 -0.015625 1.796875 -0.015625 1.828125 C -0.015625 2.191406 0.195312 2.457031 0.625 2.625 C 0.8125 2.695312 1.007812 2.734375 1.21875 2.734375 C 1.976562 2.734375 2.640625 2.269531 3.203125 1.34375 C 3.429688 0.96875 3.648438 0.519531 3.859375 0 L 6 -5.265625 C 6.09375 -5.535156 6.195312 -5.6875 6.3125 -5.71875 C 6.382812 -5.738281 6.460938 -5.75 6.546875 -5.75 C 6.734375 -5.75 6.84375 -5.800781 6.875 -5.90625 C 6.894531 -5.96875 6.90625 -6.039062 6.90625 -6.125 L 4.71875 -6.125 L 4.71875 -5.75 L 5.765625 -5.75 L 3.921875 -1.140625 L 1.953125 -5.75 L 2.90625 -5.75 L 2.90625 -6.125 L 0.09375 -6.125 L 0.09375 -5.75 L 0.8125 -5.75 L 3.40625 0 C 2.863281 1.269531 2.359375 2.003906 1.890625 2.203125 C 1.753906 2.265625 1.617188 2.296875 1.484375 2.296875 Z M 1.484375 2.296875 "/></g></g></g><g fill="rgb(100%, 100%, 100%)" fill-opacity="1"><g transform="translate(173.36825, 169.583029)"><g/></g></g><g fill="rgb(100%, 100%, 100%)" fill-opacity="1"><g transform="translate(177.567069, 169.583029)"><g><path d="M 8.84375 0 C 8.84375 -0.207031 8.765625 -0.328125 8.609375 -0.359375 C 8.554688 -0.367188 8.507812 -0.375 8.46875 -0.375 L 7.96875 -0.375 L 4.671875 -8.65625 L 4.140625 -8.65625 L 0.90625 -0.375 L 0 -0.375 L 0 0 L 2.5625 0 C 2.5625 -0.207031 2.488281 -0.328125 2.34375 -0.359375 C 2.289062 -0.367188 2.238281 -0.375 2.1875 -0.375 L 1.484375 -0.375 L 2.5625 -3.171875 L 5.578125 -3.171875 L 6.65625 -0.375 L 5.71875 -0.375 L 5.71875 0 Z M 5.421875 -3.59375 L 2.71875 -3.59375 L 4.0625 -7.078125 Z M 5.421875 -3.59375 "/></g></g></g><g fill="rgb(100%, 100%, 100%)" fill-opacity="1"><g transform="translate(187.790931, 169.583029)"><g><path d="M 0.578125 -3 C 0.578125 -1.832031 1.003906 -0.960938 1.859375 -0.390625 C 2.390625 -0.0351562 2.988281 0.140625 3.65625 0.140625 C 4.65625 0.140625 5.410156 -0.207031 5.921875 -0.90625 C 6.035156 -1.070312 6.128906 -1.238281 6.203125 -1.40625 L 5.828125 -1.53125 C 5.472656 -0.769531 4.882812 -0.351562 4.0625 -0.28125 C 3.988281 -0.269531 3.910156 -0.265625 3.828125 -0.265625 C 3.148438 -0.265625 2.617188 -0.601562 2.234375 -1.28125 C 1.941406 -1.800781 1.796875 -2.414062 1.796875 -3.125 C 1.796875 -4.382812 2.128906 -5.226562 2.796875 -5.65625 C 3.078125 -5.820312 3.382812 -5.90625 3.71875 -5.90625 C 4.238281 -5.90625 4.550781 -5.707031 4.65625 -5.3125 C 4.675781 -5.226562 4.703125 -5.109375 4.734375 -4.953125 C 4.785156 -4.566406 4.890625 -4.320312 5.046875 -4.21875 C 5.140625 -4.175781 5.242188 -4.148438 5.359375 -4.140625 C 5.691406 -4.117188 5.898438 -4.253906 5.984375 -4.546875 C 6.003906 -4.609375 6.015625 -4.671875 6.015625 -4.734375 C 6.015625 -5.222656 5.703125 -5.625 5.078125 -5.9375 C 4.628906 -6.15625 4.148438 -6.265625 3.640625 -6.265625 C 2.347656 -6.265625 1.445312 -5.742188 0.9375 -4.703125 C 0.695312 -4.203125 0.578125 -3.632812 0.578125 -3 Z M 0.578125 -3 "/></g></g></g><g fill="rgb(100%, 100%, 100%)" fill-opacity="1"><g transform="translate(195.449101, 169.583029)"><g><path d="M 0.578125 -3 C 0.578125 -1.832031 1.003906 -0.960938 1.859375 -0.390625 C 2.390625 -0.0351562 2.988281 0.140625 3.65625 0.140625 C 4.65625 0.140625 5.410156 -0.207031 5.921875 -0.90625 C 6.035156 -1.070312 6.128906 -1.238281 6.203125 -1.40625 L 5.828125 -1.53125 C 5.472656 -0.769531 4.882812 -0.351562 4.0625 -0.28125 C 3.988281 -0.269531 3.910156 -0.265625 3.828125 -0.265625 C 3.148438 -0.265625 2.617188 -0.601562 2.234375 -1.28125 C 1.941406 -1.800781 1.796875 -2.414062 1.796875 -3.125 C 1.796875 -4.382812 2.128906 -5.226562 2.796875 -5.65625 C 3.078125 -5.820312 3.382812 -5.90625 3.71875 -5.90625 C 4.238281 -5.90625 4.550781 -5.707031 4.65625 -5.3125 C 4.675781 -5.226562 4.703125 -5.109375 4.734375 -4.953125 C 4.785156 -4.566406 4.890625 -4.320312 5.046875 -4.21875 C 5.140625 -4.175781 5.242188 -4.148438 5.359375 -4.140625 C 5.691406 -4.117188 5.898438 -4.253906 5.984375 -4.546875 C 6.003906 -4.609375 6.015625 -4.671875 6.015625 -4.734375 C 6.015625 -5.222656 5.703125 -5.625 5.078125 -5.9375 C 4.628906 -6.15625 4.148438 -6.265625 3.640625 -6.265625 C 2.347656 -6.265625 1.445312 -5.742188 0.9375 -4.703125 C 0.695312 -4.203125 0.578125 -3.632812 0.578125 -3 Z M 0.578125 -3 "/></g></g></g><g fill="rgb(100%, 100%, 100%)" fill-opacity="1"><g transform="translate(203.107271, 169.583029)"><g><path d="M 3.59375 -5.90625 C 4.257812 -5.90625 4.707031 -5.625 4.9375 -5.0625 C 5.007812 -4.875 5.046875 -4.675781 5.046875 -4.46875 C 5.046875 -3.988281 4.816406 -3.695312 4.359375 -3.59375 C 4.117188 -3.539062 3.773438 -3.519531 3.328125 -3.53125 L 1.796875 -3.578125 C 1.847656 -4.679688 2.210938 -5.398438 2.890625 -5.734375 C 3.109375 -5.847656 3.34375 -5.90625 3.59375 -5.90625 Z M 6.09375 -1.390625 L 5.734375 -1.515625 C 5.398438 -0.785156 4.859375 -0.375 4.109375 -0.28125 C 4.015625 -0.269531 3.921875 -0.265625 3.828125 -0.265625 C 2.828125 -0.265625 2.195312 -0.863281 1.9375 -2.0625 C 1.851562 -2.394531 1.804688 -2.765625 1.796875 -3.171875 L 3.53125 -3.140625 C 4.707031 -3.117188 5.460938 -3.226562 5.796875 -3.46875 C 6.054688 -3.664062 6.1875 -3.941406 6.1875 -4.296875 C 6.1875 -4.953125 5.851562 -5.472656 5.1875 -5.859375 C 4.71875 -6.128906 4.175781 -6.265625 3.5625 -6.265625 C 2.363281 -6.265625 1.503906 -5.765625 0.984375 -4.765625 C 0.710938 -4.253906 0.578125 -3.671875 0.578125 -3.015625 C 0.578125 -1.816406 1.003906 -0.929688 1.859375 -0.359375 C 2.367188 -0.0234375 2.953125 0.140625 3.609375 0.140625 C 4.640625 0.140625 5.398438 -0.234375 5.890625 -0.984375 C 5.972656 -1.117188 6.039062 -1.253906 6.09375 -1.390625 Z M 6.09375 -1.390625 "/></g></g></g><g fill="rgb(100%, 100%, 100%)" fill-opacity="1"><g transform="translate(211.183447, 169.583029)"><g><path d="M 2.734375 -0.25 C 3.398438 -0.25 3.847656 -0.445312 4.078125 -0.84375 C 4.160156 -0.988281 4.203125 -1.148438 4.203125 -1.328125 C 4.203125 -1.734375 3.910156 -2.078125 3.328125 -2.359375 C 3.203125 -2.429688 2.992188 -2.53125 2.703125 -2.65625 C 1.921875 -2.976562 1.398438 -3.285156 1.140625 -3.578125 C 0.859375 -3.890625 0.71875 -4.257812 0.71875 -4.6875 C 0.71875 -5.351562 1.082031 -5.816406 1.8125 -6.078125 C 2.15625 -6.203125 2.519531 -6.265625 2.90625 -6.265625 C 3.539062 -6.265625 4.09375 -6.132812 4.5625 -5.875 C 4.5625 -6.144531 4.628906 -6.300781 4.765625 -6.34375 C 4.816406 -6.351562 4.878906 -6.359375 4.953125 -6.359375 L 4.953125 -4.5625 L 4.578125 -4.5625 C 4.554688 -5.445312 4.0625 -5.890625 3.09375 -5.890625 C 2.375 -5.890625 1.929688 -5.679688 1.765625 -5.265625 C 1.710938 -5.148438 1.6875 -5.03125 1.6875 -4.90625 C 1.6875 -4.488281 1.984375 -4.132812 2.578125 -3.84375 C 2.710938 -3.78125 2.925781 -3.691406 3.21875 -3.578125 C 4 -3.253906 4.515625 -2.953125 4.765625 -2.671875 C 5.046875 -2.359375 5.1875 -1.992188 5.1875 -1.578125 C 5.1875 -0.796875 4.773438 -0.273438 3.953125 -0.015625 C 3.628906 0.0859375 3.28125 0.140625 2.90625 0.140625 C 2.21875 0.128906 1.617188 -0.0390625 1.109375 -0.375 C 1.109375 -0.125 1.046875 0.0195312 0.921875 0.0625 C 0.867188 0.0703125 0.800781 0.078125 0.71875 0.078125 L 0.71875 -2.125 L 1.125 -2.125 C 1.144531 -0.882812 1.679688 -0.257812 2.734375 -0.25 Z M 2.734375 -0.25 "/></g></g></g><g fill="rgb(100%, 100%, 100%)" fill-opacity="1"><g transform="translate(218.337127, 169.583029)"><g><path d="M 2.734375 -0.25 C 3.398438 -0.25 3.847656 -0.445312 4.078125 -0.84375 C 4.160156 -0.988281 4.203125 -1.148438 4.203125 -1.328125 C 4.203125 -1.734375 3.910156 -2.078125 3.328125 -2.359375 C 3.203125 -2.429688 2.992188 -2.53125 2.703125 -2.65625 C 1.921875 -2.976562 1.398438 -3.285156 1.140625 -3.578125 C 0.859375 -3.890625 0.71875 -4.257812 0.71875 -4.6875 C 0.71875 -5.351562 1.082031 -5.816406 1.8125 -6.078125 C 2.15625 -6.203125 2.519531 -6.265625 2.90625 -6.265625 C 3.539062 -6.265625 4.09375 -6.132812 4.5625 -5.875 C 4.5625 -6.144531 4.628906 -6.300781 4.765625 -6.34375 C 4.816406 -6.351562 4.878906 -6.359375 4.953125 -6.359375 L 4.953125 -4.5625 L 4.578125 -4.5625 C 4.554688 -5.445312 4.0625 -5.890625 3.09375 -5.890625 C 2.375 -5.890625 1.929688 -5.679688 1.765625 -5.265625 C 1.710938 -5.148438 1.6875 -5.03125 1.6875 -4.90625 C 1.6875 -4.488281 1.984375 -4.132812 2.578125 -3.84375 C 2.710938 -3.78125 2.925781 -3.691406 3.21875 -3.578125 C 4 -3.253906 4.515625 -2.953125 4.765625 -2.671875 C 5.046875 -2.359375 5.1875 -1.992188 5.1875 -1.578125 C 5.1875 -0.796875 4.773438 -0.273438 3.953125 -0.015625 C 3.628906 0.0859375 3.28125 0.140625 2.90625 0.140625 C 2.21875 0.128906 1.617188 -0.0390625 1.109375 -0.375 C 1.109375 -0.125 1.046875 0.0195312 0.921875 0.0625 C 0.867188 0.0703125 0.800781 0.078125 0.71875 0.078125 L 0.71875 -2.125 L 1.125 -2.125 C 1.144531 -0.882812 1.679688 -0.257812 2.734375 -0.25 Z M 2.734375 -0.25 "/></g></g></g><g fill="rgb(100%, 100%, 100%)" fill-opacity="1"><g transform="translate(225.490807, 169.583029)"><g><path d="M 3.390625 -0.359375 L 2.671875 -0.359375 L 2.671875 -6.125 L 0.4375 -6.125 L 0.4375 -5.765625 L 1.59375 -5.765625 L 1.59375 -1.21875 C 1.59375 -0.78125 1.441406 -0.515625 1.140625 -0.421875 C 0.992188 -0.378906 0.757812 -0.359375 0.4375 -0.359375 L 0.4375 0 L 3.75 0 C 3.75 -0.207031 3.675781 -0.320312 3.53125 -0.34375 C 3.476562 -0.351562 3.429688 -0.359375 3.390625 -0.359375 Z M 2.84375 -8.234375 C 2.84375 -8.566406 2.691406 -8.804688 2.390625 -8.953125 C 2.273438 -9.003906 2.164062 -9.03125 2.0625 -9.03125 C 1.726562 -9.03125 1.488281 -8.875 1.34375 -8.5625 C 1.289062 -8.457031 1.265625 -8.347656 1.265625 -8.234375 C 1.265625 -7.878906 1.425781 -7.632812 1.75 -7.5 C 1.851562 -7.457031 1.957031 -7.4375 2.0625 -7.4375 C 2.394531 -7.4375 2.628906 -7.59375 2.765625 -7.90625 C 2.816406 -8.007812 2.84375 -8.117188 2.84375 -8.234375 Z M 2.84375 -8.234375 "/></g></g></g><g fill="rgb(100%, 100%, 100%)" fill-opacity="1"><g transform="translate(231.058946, 169.583029)"><g><path d="M 4.40625 0.140625 C 5.257812 0.140625 5.972656 -0.175781 6.546875 -0.8125 C 7.085938 -1.425781 7.359375 -2.203125 7.359375 -3.140625 C 7.359375 -4.203125 7.066406 -5.03125 6.484375 -5.625 C 6.054688 -6.050781 5.523438 -6.265625 4.890625 -6.265625 C 3.835938 -6.265625 3.09375 -5.796875 2.65625 -4.859375 C 2.601562 -4.773438 2.5625 -4.6875 2.53125 -4.59375 L 2.53125 -9.375 L 0.375 -9.375 L 0.375 -9.015625 L 1.453125 -9.015625 L 1.453125 -1.21875 C 1.453125 -0.78125 1.328125 -0.519531 1.078125 -0.4375 C 0.929688 -0.382812 0.695312 -0.359375 0.375 -0.359375 L 0.375 0 L 2.1875 0 L 2.328125 -0.953125 C 2.734375 -0.285156 3.359375 0.0703125 4.203125 0.125 C 4.273438 0.132812 4.34375 0.140625 4.40625 0.140625 Z M 4.4375 -5.703125 C 5.226562 -5.703125 5.742188 -5.21875 5.984375 -4.25 C 6.078125 -3.894531 6.125 -3.492188 6.125 -3.046875 C 6.125 -1.691406 5.757812 -0.8125 5.03125 -0.40625 C 4.800781 -0.28125 4.546875 -0.21875 4.265625 -0.21875 C 3.546875 -0.21875 3.035156 -0.601562 2.734375 -1.375 C 2.585938 -1.769531 2.515625 -2.234375 2.515625 -2.765625 C 2.515625 -3.929688 2.804688 -4.773438 3.390625 -5.296875 C 3.691406 -5.566406 4.039062 -5.703125 4.4375 -5.703125 Z M 4.4375 -5.703125 "/></g></g></g><g fill="rgb(100%, 100%, 100%)" fill-opacity="1"><g transform="translate(240.374726, 169.583029)"><g><path d="M 3.421875 -0.359375 L 2.640625 -0.359375 L 2.640625 -9.375 L 0.46875 -9.375 L 0.46875 -9.015625 L 1.5625 -9.015625 L 1.5625 -1.21875 C 1.5625 -0.78125 1.4375 -0.519531 1.1875 -0.4375 C 1.039062 -0.382812 0.800781 -0.359375 0.46875 -0.359375 L 0.46875 0 L 3.78125 0 C 3.78125 -0.207031 3.707031 -0.320312 3.5625 -0.34375 C 3.519531 -0.351562 3.472656 -0.359375 3.421875 -0.359375 Z M 3.421875 -0.359375 "/></g></g></g><g fill="rgb(100%, 100%, 100%)" fill-opacity="1"><g transform="translate(245.928452, 169.583029)"><g><path d="M 3.59375 -5.90625 C 4.257812 -5.90625 4.707031 -5.625 4.9375 -5.0625 C 5.007812 -4.875 5.046875 -4.675781 5.046875 -4.46875 C 5.046875 -3.988281 4.816406 -3.695312 4.359375 -3.59375 C 4.117188 -3.539062 3.773438 -3.519531 3.328125 -3.53125 L 1.796875 -3.578125 C 1.847656 -4.679688 2.210938 -5.398438 2.890625 -5.734375 C 3.109375 -5.847656 3.34375 -5.90625 3.59375 -5.90625 Z M 6.09375 -1.390625 L 5.734375 -1.515625 C 5.398438 -0.785156 4.859375 -0.375 4.109375 -0.28125 C 4.015625 -0.269531 3.921875 -0.265625 3.828125 -0.265625 C 2.828125 -0.265625 2.195312 -0.863281 1.9375 -2.0625 C 1.851562 -2.394531 1.804688 -2.765625 1.796875 -3.171875 L 3.53125 -3.140625 C 4.707031 -3.117188 5.460938 -3.226562 5.796875 -3.46875 C 6.054688 -3.664062 6.1875 -3.941406 6.1875 -4.296875 C 6.1875 -4.953125 5.851562 -5.472656 5.1875 -5.859375 C 4.71875 -6.128906 4.175781 -6.265625 3.5625 -6.265625 C 2.363281 -6.265625 1.503906 -5.765625 0.984375 -4.765625 C 0.710938 -4.253906 0.578125 -3.671875 0.578125 -3.015625 C 0.578125 -1.816406 1.003906 -0.929688 1.859375 -0.359375 C 2.367188 -0.0234375 2.953125 0.140625 3.609375 0.140625 C 4.640625 0.140625 5.398438 -0.234375 5.890625 -0.984375 C 5.972656 -1.117188 6.039062 -1.253906 6.09375 -1.390625 Z M 6.09375 -1.390625 "/></g></g></g></svg>