<svg xmlns="http://www.w3.org/2000/svg" xmlns:xlink="http://www.w3.org/1999/xlink" width="1920" zoomAndPan="magnify" viewBox="0 0 1440 809.999993" height="1080" preserveAspectRatio="xMidYMid meet" version="1.0"><path fill="rgb(87.449646%, 4.309082%, 1.959229%)" d="M 695.597656 177.058594 C 556.421875 177.058594 443.597656 289.882812 443.597656 429.058594 C 443.597656 568.234375 556.421875 681.058594 695.597656 681.058594 C 834.773438 681.058594 947.597656 568.234375 947.597656 429.058594 C 947.597656 289.882812 834.773438 177.058594 695.597656 177.058594 " fill-opacity="1" fill-rule="nonzero"/><path fill="rgb(100%, 100%, 100%)" d="M 843.515625 360.710938 C 840.632812 385.316406 828.292969 409.625 808.761719 429.15625 C 791.929688 445.984375 771.929688 457.003906 752.085938 461.792969 C 749.863281 461.96875 741.429688 462.691406 729.574219 464.53125 C 710.488281 464.503906 692.8125 458.1875 679.804688 445.175781 C 667.167969 432.542969 660.464844 415.171875 660.4375 395.476562 C 662.3125 383.4375 663.03125 374.917969 663.191406 372.816406 C 668.117188 352.351562 679.441406 332.605469 695.828125 316.222656 C 715.355469 296.691406 739.664062 284.351562 764.269531 281.46875 C 767.898438 281.042969 771.464844 280.832031 774.964844 280.832031 C 794.703125 280.832031 812.121094 287.539062 824.78125 300.203125 C 839.6875 315.105469 846.339844 336.59375 843.515625 360.710938 Z M 832.640625 292.339844 C 815.28125 274.984375 790.539062 267.203125 762.976562 270.429688 C 735.902344 273.601562 709.257812 287.074219 687.96875 308.367188 C 666.675781 329.660156 653.203125 356.296875 650.03125 383.371094 C 649.609375 386.988281 649.382812 390.554688 649.332031 394.066406 C 644.941406 421.765625 634.375 468.472656 610.769531 495.179688 L 618.652344 503.03125 C 637.027344 482.535156 648.003906 451.964844 654.46875 425.539062 C 658.273438 435.921875 664.132812 445.226562 671.945312 453.039062 C 679.878906 460.96875 689.289062 466.746094 699.605469 470.472656 C 673.144531 476.933594 642.492188 487.914062 621.953125 506.324219 L 629.839844 514.179688 C 656.769531 490.402344 703.992188 479.863281 731.59375 475.542969 C 738.722656 475.40625 745.988281 474.503906 753.269531 472.851562 C 753.3125 472.847656 753.347656 472.84375 753.355469 472.84375 L 753.355469 472.832031 C 775.605469 467.757812 797.945312 455.6875 816.617188 437.011719 C 837.910156 415.722656 851.382812 389.082031 854.550781 362.007812 C 857.78125 334.441406 849.996094 309.703125 832.640625 292.339844 " fill-opacity="1" fill-rule="nonzero"/><path fill="rgb(100%, 100%, 100%)" d="M 596.464844 505.652344 L 619.332031 528.519531 L 628.308594 519.539062 L 605.441406 496.675781 L 596.464844 505.652344 " fill-opacity="1" fill-rule="nonzero"/><path fill="rgb(100%, 100%, 100%)" d="M 536.558594 565.558594 C 533.757812 568.355469 533.757812 572.894531 536.558594 575.695312 L 549.289062 588.425781 C 552.089844 591.226562 556.625 591.226562 559.425781 588.425781 L 615.101562 532.75 L 592.234375 509.882812 L 536.558594 565.558594 " fill-opacity="1" fill-rule="nonzero"/><path fill="rgb(100%, 100%, 100%)" d="M 826.917969 323.429688 L 801.664062 348.691406 L 776.910156 323.929688 L 802.164062 298.675781 Z M 826.417969 379.484375 L 801.164062 404.746094 L 776.40625 379.984375 L 801.664062 354.730469 Z M 772.886719 433.023438 L 748.128906 408.265625 L 773.386719 383.011719 L 798.140625 407.765625 Z M 720.351562 380.492188 L 745.609375 355.230469 L 770.363281 379.984375 L 745.105469 405.246094 Z M 716.828125 433.523438 L 692.074219 408.769531 L 717.332031 383.511719 L 742.085938 408.265625 Z M 692.574219 352.714844 L 717.832031 327.457031 L 742.585938 352.210938 L 717.332031 377.46875 Z M 746.109375 299.175781 L 770.863281 323.929688 L 745.609375 349.191406 L 720.855469 324.433594 Z M 798.640625 351.710938 L 773.386719 376.96875 L 748.632812 352.210938 L 773.886719 326.953125 Z M 806.242188 294.601562 C 802.042969 292.382812 797.582031 290.660156 792.917969 289.429688 L 799.140625 295.652344 L 773.886719 320.910156 L 749.132812 296.15625 L 756.25 289.039062 C 753.539062 289.609375 750.824219 290.308594 748.113281 291.128906 L 746.109375 293.132812 L 745.074219 292.097656 C 743.59375 292.597656 742.117188 293.136719 740.640625 293.707031 L 743.085938 296.15625 L 717.832031 321.410156 L 708.914062 312.492188 C 707.816406 313.398438 706.730469 314.328125 705.65625 315.28125 L 714.808594 324.433594 L 689.554688 349.691406 L 682.511719 342.652344 C 681.734375 343.90625 680.984375 345.171875 680.265625 346.445312 L 686.527344 352.714844 L 670.734375 368.507812 C 669.910156 371.222656 669.214844 373.9375 668.644531 376.648438 L 689.554688 355.734375 L 714.308594 380.492188 L 689.050781 405.746094 L 667.378906 384.078125 C 667.148438 385.921875 666.96875 387.765625 666.855469 389.597656 L 686.027344 408.769531 L 672.238281 422.558594 C 672.84375 423.941406 673.5 425.304688 674.207031 426.636719 L 689.050781 411.789062 L 713.808594 436.546875 L 699.15625 451.199219 C 700.503906 451.886719 701.878906 452.523438 703.28125 453.113281 L 716.828125 439.566406 L 735.386719 458.125 C 737.21875 458.011719 739.058594 457.835938 740.90625 457.605469 L 719.847656 436.546875 L 745.105469 411.289062 L 769.863281 436.042969 L 749.90625 455.996094 C 752.6875 455.359375 755.472656 454.589844 758.257812 453.691406 L 772.886719 439.066406 L 778.539062 444.71875 C 779.8125 444 781.074219 443.246094 782.332031 442.46875 L 775.90625 436.042969 L 801.164062 410.789062 L 809.703125 419.328125 C 810.652344 418.253906 811.582031 417.167969 812.488281 416.066406 L 804.183594 407.765625 L 829.441406 382.507812 L 831.277344 384.34375 C 831.847656 382.867188 832.386719 381.390625 832.882812 379.910156 L 832.460938 379.484375 L 833.292969 378.652344 C 834.195312 375.871094 834.964844 373.085938 835.601562 370.304688 L 829.441406 376.464844 L 804.6875 351.710938 L 829.941406 326.453125 L 835.554688 332.066406 C 834.402344 327.699219 832.820312 323.511719 830.800781 319.550781 L 829.941406 320.410156 L 805.1875 295.652344 L 806.242188 294.601562 " fill-opacity="1" fill-rule="nonzero"/><path fill="rgb(100%, 100%, 100%)" d="M 608.699219 350.375 C 608.699219 345.429688 606.769531 340.679688 603.367188 337.128906 C 600.207031 340.636719 598.285156 345.28125 598.285156 350.375 C 598.285156 355.46875 600.207031 360.109375 603.367188 363.621094 C 606.769531 360.070312 608.699219 355.316406 608.699219 350.375 " fill-opacity="1" fill-rule="nonzero"/><path fill="rgb(100%, 100%, 100%)" d="M 632.730469 363.714844 C 635.941406 360.195312 637.898438 355.511719 637.898438 350.375 C 637.898438 345.238281 635.941406 340.554688 632.730469 337.035156 C 629.273438 340.59375 627.3125 345.390625 627.3125 350.375 C 627.3125 355.363281 629.273438 360.152344 632.730469 363.714844 " fill-opacity="1" fill-rule="nonzero"/><path fill="rgb(100%, 100%, 100%)" d="M 606.554688 366.46875 C 609.804688 368.800781 613.785156 370.183594 618.089844 370.183594 C 622.351562 370.183594 626.292969 368.832031 629.523438 366.542969 C 625.382812 362.203125 623.035156 356.402344 623.035156 350.375 C 623.035156 344.34375 625.382812 338.546875 629.523438 334.207031 C 626.292969 331.917969 622.351562 330.570312 618.089844 330.570312 C 613.785156 330.570312 609.804688 331.945312 606.554688 334.28125 C 610.652344 338.613281 612.976562 344.378906 612.976562 350.375 C 612.976562 356.371094 610.652344 362.136719 606.554688 366.46875 " fill-opacity="1" fill-rule="nonzero"/></svg>