<svg xmlns="http://www.w3.org/2000/svg" xmlns:xlink="http://www.w3.org/1999/xlink" width="1920" zoomAndPan="magnify" viewBox="0 0 1440 809.999993" height="1080" preserveAspectRatio="xMidYMid meet" version="1.0"><defs><clipPath id="id1"><path d="M 536.828125 210.289062 L 860.828125 210.289062 L 860.828125 534.289062 L 536.828125 534.289062 Z M 536.828125 210.289062 " clip-rule="nonzero"/></clipPath></defs><path fill="rgb(87.449646%, 4.309082%, 1.959229%)" d="M 698.855469 108.691406 C 553.257812 108.691406 435.230469 226.722656 435.230469 372.316406 C 435.230469 517.914062 553.257812 635.941406 698.855469 635.941406 C 844.453125 635.941406 962.480469 517.914062 962.480469 372.316406 C 962.480469 226.722656 844.453125 108.691406 698.855469 108.691406 " fill-opacity="1" fill-rule="nonzero"/><g clip-path="url(#id1)"><path fill="rgb(100%, 100%, 100%)" d="M 567.203125 501.382812 L 569.734375 501.382812 L 569.734375 503.914062 C 569.734375 520.621094 583.402344 534.289062 600.109375 534.289062 C 616.8125 534.289062 630.484375 520.621094 630.484375 503.914062 L 630.484375 483.664062 L 810.203125 303.945312 L 830.453125 303.945312 C 847.15625 303.945312 860.828125 290.277344 860.828125 273.570312 C 860.828125 256.863281 847.15625 243.195312 830.453125 243.195312 L 827.921875 243.195312 L 827.921875 240.664062 C 827.921875 223.957031 814.25 210.289062 797.546875 210.289062 C 780.839844 210.289062 767.171875 223.957031 767.171875 240.664062 L 767.171875 260.914062 L 587.453125 440.632812 L 567.203125 440.632812 C 550.496094 440.632812 536.828125 454.300781 536.828125 471.007812 C 536.828125 487.714844 550.496094 501.382812 567.203125 501.382812 Z M 567.203125 501.382812 " fill-opacity="1" fill-rule="nonzero"/></g></svg>