<svg xmlns="http://www.w3.org/2000/svg" xmlns:xlink="http://www.w3.org/1999/xlink" width="1920" zoomAndPan="magnify" viewBox="0 0 1440 809.999993" height="1080" preserveAspectRatio="xMidYMid meet" version="1.0"><defs><clipPath id="id1"><path d="M 542.277344 213.433594 L 891.027344 213.433594 L 891.027344 562.183594 L 542.277344 562.183594 Z M 542.277344 213.433594 " clip-rule="nonzero"/></clipPath></defs><path fill="rgb(87.449646%, 4.309082%, 1.959229%)" d="M 716.652344 167.308594 C 594.875 167.308594 496.152344 266.027344 496.152344 387.808594 C 496.152344 509.585938 594.875 608.308594 716.652344 608.308594 C 838.433594 608.308594 937.152344 509.585938 937.152344 387.808594 C 937.152344 266.027344 838.433594 167.308594 716.652344 167.308594 " fill-opacity="1" fill-rule="nonzero"/><g clip-path="url(#id1)"><path fill="rgb(100%, 100%, 100%)" d="M 760.246094 213.433594 L 673.058594 213.433594 L 673.058594 344.214844 L 542.277344 344.214844 L 542.277344 431.402344 L 673.058594 431.402344 L 673.058594 562.183594 L 760.246094 562.183594 L 760.246094 431.402344 L 891.027344 431.402344 L 891.027344 344.214844 L 760.246094 344.214844 L 760.246094 213.433594 " fill-opacity="1" fill-rule="nonzero"/></g></svg>